<?xml version="1.0" encoding="utf-8"?>
<!-- Generator: Adobe Illustrator 18.0.0, SVG Export Plug-In . SVG Version: 6.00 Build 0)  -->
<!DOCTYPE svg PUBLIC "-//W3C//DTD SVG 1.1//EN" "http://www.w3.org/Graphics/SVG/1.1/DTD/svg11.dtd">
<svg version="1.1" id="Layer_1" xmlns="http://www.w3.org/2000/svg" xmlns:xlink="http://www.w3.org/1999/xlink" x="0px" y="0px"
	 viewBox="0 0 100 99.9" enable-background="new 0 0 100 99.9" xml:space="preserve">
<g>
	<g>
		<g>
			<path fill="#F16667" d="M97.2,52.8C95.6,79.2,73,99.2,46.7,97.6C20.3,96.1,0.3,73.4,1.8,47.1C3.4,20.8,26,0.7,52.4,2.3
				c26,1.6,45.9,23.7,44.9,49.6"/>
		</g>
	</g>
	<g>
		<polygon points="50,95.5 50.9,95.5 50.9,99.9 50.1,99.9 50,95.5 		"/>
		<polygon points="47.8,99.9 47.9,95.5 48.8,95.5 48.6,99.9 47.8,99.9 		"/>
		<polygon points="52.2,95.5 53,95.4 53.3,99.8 52.4,99.9 52.2,95.5 		"/>
		<polygon points="45.5,99.7 45.8,95.3 46.6,95.4 46.3,99.8 45.5,99.7 		"/>
		<polygon points="54.3,95.3 55.1,95.2 55.6,99.6 54.7,99.7 54.3,95.3 		"/>
		<polygon points="43.1,99.5 43.7,95.1 44.5,95.2 43.9,99.6 43.1,99.5 		"/>
		<polygon points="56.4,95.1 57.2,94.9 57.9,99.3 57.1,99.4 56.4,95.1 		"/>
		<polygon points="40.8,99.1 41.6,94.7 42.4,94.9 41.6,99.2 40.8,99.1 		"/>
		<polygon points="58.5,94.7 59.3,94.6 60.2,98.9 59.4,99.1 58.5,94.7 		"/>
		<polygon points="38.6,98.6 39.5,94.3 40.3,94.5 39.4,98.8 38.6,98.6 		"/>
		<polygon points="60.6,94.3 61.4,94.1 62.5,98.4 61.6,98.6 60.6,94.3 		"/>
		<polygon points="36.3,98 37.5,93.8 38.3,94 37.1,98.3 36.3,98 		"/>
		<polygon points="62.6,93.7 63.4,93.5 64.7,97.7 63.9,98 62.6,93.7 		"/>
		<polygon points="34.1,97.4 35.4,93.1 36.2,93.4 34.8,97.6 34.1,97.4 		"/>
		<polygon points="64.7,93.1 65.4,92.8 66.9,97 66.1,97.3 64.7,93.1 		"/>
		<polygon points="31.9,96.6 33.5,92.4 34.2,92.7 32.6,96.9 31.9,96.6 		"/>
		<polygon points="66.6,92.4 67.4,92.1 69.1,96.2 68.3,96.5 66.6,92.4 		"/>
		<polygon points="29.7,95.7 31.5,91.6 32.2,91.9 30.5,96 29.7,95.7 		"/>
		<polygon points="68.6,91.5 69.3,91.2 71.2,95.2 70.4,95.6 68.6,91.5 		"/>
		<polygon points="27.6,94.7 29.6,90.7 30.3,91.1 28.4,95 27.6,94.7 		"/>
		<polygon points="70.5,90.6 71.2,90.2 73.3,94.2 72.5,94.6 70.5,90.6 		"/>
		<polygon points="25.6,93.6 27.7,89.7 28.4,90.1 26.3,94 25.6,93.6 		"/>
		<polygon points="72.4,89.6 73.1,89.2 75.3,93 74.6,93.5 72.4,89.6 		"/>
		<polygon points="23.5,92.4 25.9,88.6 26.6,89.1 24.3,92.8 23.5,92.4 		"/>
		<polygon points="74.2,88.5 74.9,88.1 77.3,91.8 76.6,92.3 74.2,88.5 		"/>
		<polygon points="21.6,91.1 24.1,87.5 24.8,87.9 22.3,91.6 21.6,91.1 		"/>
		<polygon points="76,87.4 76.7,86.9 79.2,90.5 78.5,91 76,87.4 		"/>
		<polygon points="19.7,89.7 22.4,86.2 23,86.7 20.4,90.2 19.7,89.7 		"/>
		<polygon points="77.7,86.1 78.4,85.6 81.1,89.1 80.4,89.6 77.7,86.1 		"/>
		<polygon points="17.9,88.3 20.7,84.9 21.3,85.4 18.6,88.8 17.9,88.3 		"/>
		<polygon points="79.4,84.8 80,84.2 82.9,87.6 82.2,88.1 79.4,84.8 		"/>
		<polygon points="16.2,86.8 19.1,83.5 19.7,84 16.8,87.3 16.2,86.8 		"/>
		<polygon points="80.9,83.4 81.5,82.8 84.6,86 84,86.6 80.9,83.4 		"/>
		<polygon points="14.5,85.1 17.6,82 18.2,82.6 15.1,85.7 14.5,85.1 		"/>
		<polygon points="82.5,81.9 83,81.3 86.2,84.4 85.6,85 82.5,81.9 		"/>
		<polygon points="12.9,83.4 16.1,80.5 16.7,81.1 13.4,84.1 12.9,83.4 		"/>
		<polygon points="83.9,80.4 84.5,79.7 87.8,82.6 87.2,83.3 83.9,80.4 		"/>
		<polygon points="11.4,81.7 14.8,78.8 15.3,79.5 11.9,82.3 11.4,81.7 		"/>
		<polygon points="85.3,78.7 85.8,78.1 89.3,80.8 88.8,81.5 85.3,78.7 		"/>
		<polygon points="9.9,79.8 13.4,77.2 13.9,77.8 10.4,80.5 9.9,79.8 		"/>
		<polygon points="86.6,77.1 87.1,76.4 90.7,79 90.2,79.7 86.6,77.1 		"/>
		<polygon points="8.6,77.9 12.2,75.4 12.7,76.1 9,78.6 8.6,77.9 		"/>
		<polygon points="87.8,75.3 88.3,74.6 92,77.1 91.5,77.8 87.8,75.3 		"/>
		<polygon points="7.3,76 11.1,73.7 11.5,74.4 7.7,76.7 7.3,76 		"/>
		<polygon points="89,73.5 89.4,72.8 93.2,75.1 92.8,75.8 89,73.5 		"/>
		<polygon points="6.1,74 10,71.8 10.4,72.5 6.5,74.7 6.1,74 		"/>
		<polygon points="90,71.7 90.4,71 94.3,73 93.9,73.8 90,71.7 		"/>
		<polygon points="5.1,71.9 9,69.9 9.4,70.7 5.4,72.7 5.1,71.9 		"/>
		<polygon points="91,69.8 91.3,69.1 95.3,71 95,71.7 91,69.8 		"/>
		<polygon points="4.1,69.8 8.1,68 8.5,68.8 4.4,70.6 4.1,69.8 		"/>
		<polygon points="91.9,67.9 92.2,67.1 96.3,68.8 96,69.6 91.9,67.9 		"/>
		<polygon points="3.2,67.6 7.3,66 7.6,66.8 3.5,68.4 3.2,67.6 		"/>
		<polygon points="92.7,65.9 92.9,65.1 97.1,66.6 96.8,67.4 92.7,65.9 		"/>
		<polygon points="2.4,65.4 6.6,64 6.9,64.8 2.7,66.2 2.4,65.4 		"/>
		<polygon points="93.4,63.9 93.6,63.1 97.8,64.4 97.6,65.2 93.4,63.9 		"/>
		<polygon points="1.8,63.2 6,62 6.3,62.8 2,64 1.8,63.2 		"/>
		<polygon points="94,61.9 94.2,61.1 98.4,62.2 98.2,63 94,61.9 		"/>
		<polygon points="1.2,60.9 5.5,59.9 5.7,60.8 1.4,61.7 1.2,60.9 		"/>
		<polygon points="94.5,59.8 94.6,59 99,59.9 98.8,60.7 94.5,59.8 		"/>
		<polygon points="0.8,58.7 5.1,57.8 5.3,58.7 0.9,59.5 0.8,58.7 		"/>
		<polygon points="94.9,57.7 95,56.9 99.4,57.6 99.2,58.4 94.9,57.7 		"/>
		<polygon points="0.4,56.4 4.8,55.8 4.9,56.6 0.5,57.2 0.4,56.4 		"/>
		<polygon points="95.2,55.7 95.3,54.9 99.7,55.4 99.6,56.2 95.2,55.7 		"/>
		<polygon points="0.2,54 4.6,53.7 4.6,54.5 0.2,54.9 0.2,54 		"/>
		<polygon points="95.4,53.7 95.4,52.9 99.9,53.2 99.8,54 95.4,53.7 		"/>
		<polygon points="0,51.7 4.4,51.5 4.5,52.3 0.1,52.6 0,51.7 		"/>
		<polygon points="95.5,51.7 95.5,50.9 99.9,51.1 99.9,51.9 95.5,51.7 		"/>
		<polygon points="0,50.2 0,49.4 4.4,49.4 4.4,50.2 0,50.2 		"/>
		<polygon points="95.5,48.9 99.9,48.8 100,49.6 95.5,49.7 95.5,48.9 		"/>
		<polygon points="0,47.9 0.1,47 4.5,47.3 4.5,48.1 0,47.9 		"/>
		<polygon points="95.4,46.8 99.8,46.5 99.9,47.3 95.5,47.6 95.4,46.8 		"/>
		<polygon points="0.2,45.6 0.3,44.7 4.7,45.1 4.6,46 0.2,45.6 		"/>
		<polygon points="95.2,44.6 99.6,44.2 99.7,45 95.3,45.4 95.2,44.6 		"/>
		<polygon points="0.4,43.2 0.6,42.4 5,43.1 4.8,43.9 0.4,43.2 		"/>
		<polygon points="94.9,42.5 99.3,41.9 99.4,42.7 95.1,43.3 94.9,42.5 		"/>
		<polygon points="0.8,40.9 1,40.1 5.3,41 5.2,41.8 0.8,40.9 		"/>
		<polygon points="94.5,40.4 98.9,39.6 99,40.4 94.7,41.3 94.5,40.4 		"/>
		<polygon points="1.3,38.7 1.5,37.9 5.8,38.9 5.6,39.7 1.3,38.7 		"/>
		<polygon points="94,38.4 98.3,37.3 98.5,38.1 94.3,39.2 94,38.4 		"/>
		<polygon points="1.9,36.4 2.1,35.6 6.3,36.8 6.1,37.6 1.9,36.4 		"/>
		<polygon points="93.5,36.3 97.7,35 97.9,35.8 93.7,37.1 93.5,36.3 		"/>
		<polygon points="2.5,34.2 2.8,33.4 7,34.8 6.7,35.6 2.5,34.2 		"/>
		<polygon points="92.8,34.3 96.9,32.9 97.2,33.6 93,35.1 92.8,34.3 		"/>
		<polygon points="3.3,32 3.6,31.2 7.8,32.8 7.4,33.6 3.3,32 		"/>
		<polygon points="92,32.3 96.1,30.7 96.4,31.5 92.3,33.1 92,32.3 		"/>
		<polygon points="4.2,29.8 4.6,29.1 8.6,30.9 8.3,31.7 4.2,29.8 		"/>
		<polygon points="91.1,30.4 95.1,28.6 95.5,29.3 91.5,31.2 91.1,30.4 		"/>
		<polygon points="5.2,27.7 5.6,27 9.5,29 9.2,29.7 5.2,27.7 		"/>
		<polygon points="90.2,28.5 94.1,26.5 94.5,27.2 90.6,29.3 90.2,28.5 		"/>
		<polygon points="6.3,25.7 6.7,24.9 10.6,27.1 10.1,27.8 6.3,25.7 		"/>
		<polygon points="89.1,26.7 92.9,24.4 93.4,25.2 89.5,27.4 89.1,26.7 		"/>
		<polygon points="7.5,23.6 7.9,23 11.7,25.3 11.2,26 7.5,23.6 		"/>
		<polygon points="88,24.9 91.7,22.5 92.2,23.2 88.4,25.6 88,24.9 		"/>
		<polygon points="8.8,21.7 9.2,21 12.9,23.6 12.4,24.2 8.8,21.7 		"/>
		<polygon points="86.8,23.1 90.4,20.6 90.9,21.2 87.3,23.8 86.8,23.1 		"/>
		<polygon points="10.1,19.8 10.6,19.1 14.1,21.9 13.6,22.5 10.1,19.8 		"/>
		<polygon points="85.5,21.4 89,18.7 89.5,19.3 86,22.1 85.5,21.4 		"/>
		<polygon points="11.6,18 12.1,17.3 15.5,20.2 14.9,20.9 11.6,18 		"/>
		<polygon points="84.1,19.8 87.5,16.9 88,17.5 84.7,20.5 84.1,19.8 		"/>
		<polygon points="13.1,16.2 13.7,15.6 16.9,18.7 16.3,19.3 13.1,16.2 		"/>
		<polygon points="82.7,18.3 85.9,15.2 86.5,15.8 83.3,18.9 82.7,18.3 		"/>
		<polygon points="14.7,14.6 15.3,14 18.4,17.1 17.8,17.7 14.7,14.6 		"/>
		<polygon points="81.2,16.8 84.2,13.6 84.8,14.1 81.8,17.3 81.2,16.8 		"/>
		<polygon points="16.4,13 17,12.4 20,15.7 19.4,16.2 16.4,13 		"/>
		<polygon points="79.6,15.4 82.5,12 83.1,12.6 80.2,15.9 79.6,15.4 		"/>
		<polygon points="18.2,11.4 18.8,10.9 21.6,14.3 21,14.9 18.2,11.4 		"/>
		<polygon points="77.9,14 80.7,10.5 81.4,11.1 78.6,14.5 77.9,14 		"/>
		<polygon points="20,10 20.7,9.5 23.3,13.1 22.6,13.5 20,10 		"/>
		<polygon points="76.2,12.7 78.8,9.2 79.5,9.6 76.9,13.2 76.2,12.7 		"/>
		<polygon points="21.9,8.6 22.6,8.2 25,11.9 24.3,12.3 21.9,8.6 		"/>
		<polygon points="74.5,11.6 76.9,7.9 77.6,8.3 75.2,12 74.5,11.6 		"/>
		<polygon points="23.9,7.4 24.6,6.9 26.8,10.7 26.1,11.2 23.9,7.4 		"/>
		<polygon points="72.7,10.5 74.9,6.6 75.6,7.1 73.4,10.9 72.7,10.5 		"/>
		<polygon points="25.9,6.2 26.6,5.8 28.7,9.7 28,10.1 25.9,6.2 		"/>
		<polygon points="70.8,9.4 72.9,5.5 73.6,5.9 71.5,9.8 70.8,9.4 		"/>
		<polygon points="27.9,5.1 28.7,4.8 30.6,8.7 29.8,9.1 27.9,5.1 		"/>
		<polygon points="68.9,8.5 70.8,4.5 71.5,4.9 69.6,8.9 68.9,8.5 		"/>
		<polygon points="30,4.1 30.8,3.8 32.5,7.9 31.8,8.2 30,4.1 		"/>
		<polygon points="66.9,7.7 68.6,3.6 69.4,3.9 67.7,8 66.9,7.7 		"/>
		<polygon points="32.2,3.3 33,3 34.5,7.1 33.7,7.4 32.2,3.3 		"/>
		<polygon points="65,6.9 66.4,2.8 67.2,3 65.7,7.2 65,6.9 		"/>
		<polygon points="34.4,2.5 35.2,2.2 36.5,6.4 35.7,6.7 34.4,2.5 		"/>
		<polygon points="62.9,6.3 64.2,2.1 65,2.3 63.7,6.5 62.9,6.3 		"/>
		<polygon points="36.6,1.8 37.4,1.6 38.6,5.9 37.8,6.1 36.6,1.8 		"/>
		<polygon points="60.9,5.7 62,1.5 62.8,1.7 61.7,5.9 60.9,5.7 		"/>
		<polygon points="38.9,1.2 39.7,1.1 40.6,5.4 39.8,5.6 38.9,1.2 		"/>
		<polygon points="58.8,5.3 59.7,0.9 60.5,1.1 59.6,5.4 58.8,5.3 		"/>
		<polygon points="41.2,0.8 42,0.6 42.7,5 41.9,5.1 41.2,0.8 		"/>
		<polygon points="56.7,4.9 57.4,0.6 58.2,0.7 57.5,5 56.7,4.9 		"/>
		<polygon points="43.5,0.4 44.3,0.3 44.8,4.7 44,4.8 43.5,0.4 		"/>
		<polygon points="54.6,4.7 55.1,0.3 55.9,0.4 55.4,4.7 54.6,4.7 		"/>
		<polygon points="45.8,0.2 46.6,0.1 46.9,4.5 46.1,4.6 45.8,0.2 		"/>
		<polygon points="52.5,4.5 52.8,0.1 53.6,0.1 53.3,4.5 52.5,4.5 		"/>
		<polygon points="48.1,0 49,0 49.1,4.4 48.2,4.4 48.1,0 		"/>
		<polygon points="50.4,4.4 50.4,0 51.3,0 51.2,4.4 50.4,4.4 		"/>
	</g>
	<path fill="#FFFFFF" stroke="#000000" stroke-width="0.535" stroke-miterlimit="10" d="M52.7,40.5c0-1.9,0-3.7,0-5.6
		c-1.7,0-3.2,0-4.8,0c0-2.9,0-5.8,0-8.6c-9.3,0-18.4,0-27.7,0c0,2.9,0,5.7,0,8.6c-1.7,0-3.2,0-4.8,0c0,9.9,0,19.7,0,29.5
		c-0.9,0.1-1.7,0.1-2.5,0.2c0,1.1,0,2.1,0,3.2c7.6,0,15.2,0,22.8,0"/>
	<path fill="none" stroke="#000000" stroke-width="0.535" stroke-miterlimit="10" d="M47.8,45.5c0-0.2,0-0.4,0-0.6
		c-1.3,0-2.6,0-3.9,0c0,0.2,0,0.4,0,0.6"/>
	<path fill="none" stroke="#000000" stroke-width="0.535" stroke-miterlimit="10" d="M38.9,33.7c-0.5,0-3,0-3.5,0c0-0.8,0-3.1,0-3.7
		c-0.9,0-1.8,0-2.7,0l0,3.7h-3.5c0,1,0,1.6,0,2.5l3.5,0V40c0.9,0,1.8,0,2.7,0c0-0.6,0-3.2,0-3.8c0.5,0,3.5,0,3.5,0
		C38.9,35.3,38.9,34.4,38.9,33.7z"/>
	<path fill="none" stroke="#000000" stroke-width="0.535" stroke-miterlimit="10" d="M36.1,47.7c0,0.4,0,0.7,0,1.1
		c0.2,0,0.4,0,0.6,0"/>
	<path fill="none" stroke="#000000" stroke-width="0.535" stroke-miterlimit="10" d="M40.1,45.5c0-0.2,0-0.4,0-0.6c-1.4,0-2.7,0-4,0
		c0,0.2,0,0.4,0,0.6"/>
	<path fill="none" stroke="#000000" stroke-width="0.535" stroke-miterlimit="10" d="M28.4,44.9c0,1.4,0,2.6,0,3.9
		c1.3,0,2.5,0,3.8,0c0-1.4,0-2.6,0-3.9C30.8,44.9,29.6,44.9,28.4,44.9z"/>
	<path fill="none" stroke="#000000" stroke-width="0.535" stroke-miterlimit="10" d="M47.8,40.5c0-0.9,0-1.7,0-2.6
		c-1.3,0-2.4,0-3.8,0c0,1.3,0,2.6,0,3.9c1.2,0,2.4,0,3.6,0"/>
	<path fill="none" stroke="#000000" stroke-width="0.535" stroke-miterlimit="10" d="M36.7,51.6c-0.2,0-0.4,0-0.6,0c0,1.4,0,2.6,0,4
		c0.2,0,0.4,0,0.6,0"/>
	<path fill="none" stroke="#000000" stroke-width="0.535" stroke-miterlimit="10" d="M36.7,58.6c-2.1,0-4.2,0-6.3,0c0,2,0,3.9,0,5.8
		c2.1,0,4.2,0,6.3,0"/>
	<path fill="none" stroke="#000000" stroke-width="0.535" stroke-miterlimit="10" d="M24.5,44.9c-1.3,0-2.6,0-3.9,0
		c0,1.3,0,2.5,0,3.9c1.3,0,2.6,0,3.9,0C24.5,47.5,24.5,46.3,24.5,44.9z"/>
	<path fill="none" stroke="#000000" stroke-width="0.535" stroke-miterlimit="10" d="M24.5,38c-1.4,0-2.6,0-3.9,0c0,1.3,0,2.5,0,3.8
		c1.4,0,2.6,0,3.9,0C24.5,40.4,24.5,39.2,24.5,38z"/>
	<path fill="none" stroke="#000000" stroke-width="0.535" stroke-miterlimit="10" d="M20.6,55.5c1.3,0,2.5,0,3.9,0
		c0-1.4,0-2.7,0-3.9c-1.4,0-2.6,0-3.9,0C20.6,53,20.6,54.2,20.6,55.5z"/>
	<path fill="none" stroke="#000000" stroke-width="0.535" stroke-miterlimit="10" d="M28.4,51.6c0,1.4,0,2.7,0,4c1.4,0,2.6,0,3.8,0
		c0-1.4,0-2.7,0-4C30.9,51.6,29.7,51.6,28.4,51.6z"/>
	<path fill="none" stroke="#000000" stroke-width="0.535" stroke-miterlimit="10" d="M24.5,58.6c-1.4,0-2.6,0-3.9,0
		c0,1.4,0,2.6,0,3.9c1.4,0,2.6,0,3.9,0C24.5,61.1,24.5,60,24.5,58.6z"/>
	<path fill="#FFFFFF" stroke="#000000" stroke-width="0.535" stroke-linecap="round" stroke-linejoin="round" d="M36.7,58.6
		c0,1.9,0,3.9,0,5.8c0,0.4,0,0.8,0,1.3c-0.3,0-0.7,0-1,0c0,0.7,0,1.4,0,2.1c6.6,0,13.1,0,19.7,0c10.1,0,20.2,0,30.3,0
		c0-0.7,0-1.4,0-2.2c-0.4,0-0.8,0-1.3,0c0-6,0-12,0-18.1c0.5,0,1.1,0,1.6,0c0-0.7,0-1.4,0-2.2c-4.8,0-9.7,0-14.5,0c0-1,0-1.9,0-2.8
		c0.7,0,1.3,0,1.9,0c0-0.7,0-1.4,0-2.1c-1.9,0-3.8,0-5.6,0c0-0.1,0-0.2,0-0.3c0-0.4,0-0.9,0-1.3c0-0.2-0.1-0.3-0.3-0.3
		c-0.2,0-0.4,0-0.5,0c-1.8,0-3.7,0-5.5,0c-0.1,0-0.2,0-0.3,0c0-0.1-0.1-0.1-0.1-0.2c0-0.3,0-0.7,0-1c0-0.1,0.2-0.2,0.3-0.3
		c0.6-0.1,1.2-0.2,1.8-0.4c0.4-0.1,0.8-0.2,1.1-0.4c0.3-0.2,0.7-0.2,1.1-0.2c0.2,0,0.4,0,0.6,0c0.2,0,0.3-0.1,0.3-0.3
		c0-0.2,0-0.4-0.1-0.6c-0.2-0.5-0.4-1-0.5-1.5c-0.1-0.4-0.3-0.6-0.7-0.6c-0.5-0.1-1.1-0.1-1.6-0.1c-0.6,0-1.3,0.1-1.9,0.1
		c-0.2,0-0.3-0.1-0.4-0.3c-0.1-0.3-0.5-0.4-0.9-0.3c-0.3,0.1-0.3,0.3-0.4,0.6c0,0.3,0,0.6,0,0.9c0,1.4,0,2.8,0,4.2
		c0,0.1,0,0.2,0,0.3c-0.6,0-1.2,0-1.8,0c-1.5,0-3,0-4.5,0c-0.2,0-0.2,0.1-0.2,0.3c0,0.4,0,0.9,0,1.3c0,0.1,0,0.2,0,0.3
		c-0.2,0-0.3,0-0.5,0c-1.6,0-3.3,0-4.9,0c-0.1,0-0.1,0-0.2,0c0,0.4,0,0.9,0,1.3c0,0.3,0,0.5,0,0.8c0.6,0,1.3,0,1.9,0
		c0,1,0,1.9,0,2.8c-0.6,0-1.1,0-1.7,0c-1.3,0-2.6,0-3.9,0c-1.3,0-2.6,0-3.9,0c-1.3,0-2.7,0-4,0c-0.3,0-0.6,0-0.9,0
		c0,0.7,0,1.4,0,2.2c0.3,0,0.6,0,0.9,0c0.2,0,0.4,0,0.6,0c0,0.4,0,0.7,0,1.1c0,0.9,0,1.9,0,2.8c0,1.3,0,2.6,0,4
		C36.7,56.6,36.7,57.6,36.7,58.6z"/>
	<path fill="none" stroke="#000000" stroke-width="0.535" stroke-linecap="round" stroke-linejoin="round" d="M78.7,64.1
		c1,0,2,0,3.1,0c0-2.2,0-4.3,0-6.5c-1,0-2,0-3.1,0C78.7,59.8,78.7,61.9,78.7,64.1z"/>
	<path fill="none" stroke="#000000" stroke-width="0.535" stroke-linecap="round" stroke-linejoin="round" d="M73.4,64.1
		c1,0,2,0,3,0c0-2.2,0-4.3,0-6.5c-1,0-2,0-3,0C73.4,59.8,73.4,61.9,73.4,64.1z"/>
	<path fill="none" stroke="#000000" stroke-width="0.535" stroke-linecap="round" stroke-linejoin="round" d="M78.7,55.9
		c1,0,2,0,3.1,0c0-2.2,0-4.3,0-6.5c-1,0-2,0-3.1,0C78.7,51.6,78.7,53.8,78.7,55.9z"/>
	<path fill="none" stroke="#000000" stroke-width="0.535" stroke-linecap="round" stroke-linejoin="round" d="M73.4,55.9
		c1,0,2,0,3,0c0-2.2,0-4.3,0-6.5c-1,0-2,0-3,0C73.4,51.6,73.4,53.8,73.4,55.9z"/>
	<path fill="none" stroke="#000000" stroke-width="0.535" stroke-linecap="round" stroke-linejoin="round" d="M66.8,59.9
		c1,0,2,0,3.1,0c0-2.2,0-4.3,0-6.5c-1,0-2,0-3.1,0C66.8,55.6,66.8,57.7,66.8,59.9z"/>
	<path fill="none" stroke="#000000" stroke-width="0.535" stroke-linecap="round" stroke-linejoin="round" d="M44.9,58.6
		c0,1.3,0,2.6,0,3.9"/>
	<path fill="none" stroke="#000000" stroke-width="0.535" stroke-linecap="round" stroke-linejoin="round" d="M44.9,62.5
		c0,0.5,0,1.1,0,1.6c1,0,2,0,3.1,0c0-2.2,0-4.3,0-6.5c-1,0-2,0-3.1,0c0,0.3,0,0.6,0,1"/>
	<path fill="none" stroke="#000000" stroke-width="0.535" stroke-linecap="round" stroke-linejoin="round" d="M39.6,55.5
		c0-1.3,0-2.6,0-4"/>
	<path fill="none" stroke="#000000" stroke-width="0.535" stroke-linecap="round" stroke-linejoin="round" d="M39.6,55.5
		c0,0.1,0,0.2,0,0.4c1,0,2,0,3,0c0-2.2,0-4.3,0-6.5c-1,0-2,0-3,0c0,0.7,0,1.4,0,2.1"/>
	<path fill="none" stroke="#000000" stroke-width="0.535" stroke-linecap="round" stroke-linejoin="round" d="M44.9,55.6
		c0,0.1,0,0.2,0,0.3c1,0,2,0,3.1,0c0-2.2,0-4.3,0-6.5c-1,0-2,0-3.1,0c0,0.7,0,1.5,0,2.2"/>
	<path fill="none" stroke="#000000" stroke-width="0.535" stroke-linecap="round" stroke-linejoin="round" d="M44.9,55.6
		c0-1.3,0-2.7,0-4"/>
	<path fill="none" stroke="#000000" stroke-width="0.535" stroke-linecap="round" stroke-linejoin="round" d="M39.6,64.1
		c1,0,2,0,3,0c0-2.2,0-4.3,0-6.5c-1,0-2,0-3,0C39.6,59.8,39.6,61.9,39.6,64.1z"/>
	<path fill="none" stroke="#000000" stroke-width="0.535" stroke-linecap="round" stroke-linejoin="round" d="M52.7,42.2
		c-0.5,0-1,0-1.5,0c0,2.2,0,2.3,0,4.5c0.5,0,2.5,0,3,0c0-2.2,0-2.3,0-4.5C53.8,42.2,53.3,42.2,52.7,42.2"/>
	<path fill="none" stroke="#000000" stroke-width="0.535" stroke-linecap="round" stroke-linejoin="round" d="M66.8,46.7
		c1,0,2,0,3.1,0c0-2.2,0-2.3,0-4.5c-1,0-2,0-3.1,0C66.8,44.4,66.8,44.5,66.8,46.7z"/>
	<path fill="none" stroke="#000000" stroke-width="0.535" stroke-linecap="round" stroke-linejoin="round" d="M56,54.2
		c0,0.7,0,1.3,0,2c3.1,0,6.1,0,9.1,0c0-0.7,0-1.3,0-2C62.1,54.2,59.1,54.2,56,54.2z"/>
	<path fill="none" stroke="#000000" stroke-width="0.535" stroke-linecap="round" stroke-linejoin="round" d="M52.7,59.9
		c0.5,0,1,0,1.6,0c0-2.2,0-4.3,0-6.4c-0.5,0-1,0-1.6,0"/>
	<path fill="none" stroke="#000000" stroke-width="0.535" stroke-linecap="round" stroke-linejoin="round" d="M52.7,53.4
		c-0.5,0-1,0-1.5,0c0,2.2,0,4.3,0,6.4c0.5,0,1,0,1.5,0"/>
	<path fill="none" stroke="#000000" stroke-width="0.535" stroke-linecap="round" stroke-linejoin="round" d="M57.1,65.8
		c2.4,0,4.7,0,7,0c0-2.9,0-5.7,0-8.6c-2.4,0-4.7,0-7,0C57.1,60.1,57.1,63,57.1,65.8z"/>
	<path fill="none" stroke="#000000" stroke-width="0.535" stroke-linecap="round" stroke-linejoin="round" d="M56.5,42.2
		c0,2.2,0,2.3,0,4.4c1,0,2.1,0,3.1,0c0-2.2,0-2.3,0-4.4C58.6,42.2,57.6,42.2,56.5,42.2z"/>
	<path fill="none" stroke="#000000" stroke-width="0.535" stroke-linecap="round" stroke-linejoin="round" d="M61.5,42.2
		c0,2.2,0,2.3,0,4.5c1,0,2,0,3,0c0-2.2,0-2.3,0-4.5C63.5,42.2,62.5,42.2,61.5,42.2z"/>
	<path fill="none" stroke="#000000" stroke-width="0.535" stroke-linecap="round" stroke-linejoin="round" d="M57.9,61.9
		c0,0.3,0.2,0.5,0.5,0.5c0.3,0,0.5-0.2,0.5-0.5c0-0.3-0.2-0.5-0.5-0.5C58.2,61.4,57.9,61.6,57.9,61.9z"/>
	<g>
		<path d="M52.2,51.3l0.2-0.5c0.2,0.2,0.6,0.3,0.9,0.3c0.4,0,0.5-0.1,0.5-0.3c0-0.5-1.6-0.2-1.6-1.2c0-0.5,0.4-0.9,1.2-0.9
			c0.4,0,0.7,0.1,1,0.2l-0.2,0.5c-0.3-0.1-0.5-0.2-0.8-0.2c-0.4,0-0.5,0.1-0.5,0.3c0,0.5,1.6,0.2,1.6,1.2c0,0.5-0.4,0.9-1.2,0.9
			C52.9,51.6,52.5,51.5,52.2,51.3z"/>
		<path d="M54.8,50.2c0-0.8,0.6-1.4,1.5-1.4c0.5,0,0.9,0.2,1.2,0.5l-0.4,0.4c-0.2-0.2-0.4-0.3-0.7-0.3c-0.5,0-0.9,0.4-0.9,0.9
			c0,0.5,0.4,0.9,0.9,0.9c0.3,0,0.5-0.1,0.7-0.3l0.4,0.4c-0.3,0.3-0.7,0.5-1.2,0.5C55.5,51.6,54.8,51,54.8,50.2z"/>
		<path d="M60.5,48.8v2.8h-0.6v-1.1h-1.3v1.1h-0.6v-2.8h0.6v1.1h1.3v-1.1H60.5z"/>
		<path d="M61,50.2c0-0.8,0.6-1.4,1.5-1.4c0.9,0,1.5,0.6,1.5,1.4c0,0.8-0.7,1.4-1.5,1.4C61.6,51.6,61,51,61,50.2z M63.4,50.2
			c0-0.5-0.4-0.9-0.9-0.9c-0.5,0-0.9,0.4-0.9,0.9c0,0.5,0.4,0.9,0.9,0.9C63,51.1,63.4,50.7,63.4,50.2z"/>
		<path d="M64.4,50.2c0-0.8,0.6-1.4,1.5-1.4c0.9,0,1.5,0.6,1.5,1.4c0,0.8-0.7,1.4-1.5,1.4C65,51.6,64.4,51,64.4,50.2z M66.8,50.2
			c0-0.5-0.4-0.9-0.9-0.9c-0.5,0-0.9,0.4-0.9,0.9c0,0.5,0.4,0.9,0.9,0.9C66.4,51.1,66.8,50.7,66.8,50.2z"/>
		<path d="M67.9,48.8h0.6V51H70v0.5h-2.1V48.8z"/>
	</g>
</g>
</svg>
