<?xml version="1.0" encoding="utf-8"?>
<!-- Generator: Adobe Illustrator 18.0.0, SVG Export Plug-In . SVG Version: 6.00 Build 0)  -->
<!DOCTYPE svg PUBLIC "-//W3C//DTD SVG 1.1//EN" "http://www.w3.org/Graphics/SVG/1.1/DTD/svg11.dtd">
<svg version="1.1" id="Layer_1" xmlns="http://www.w3.org/2000/svg" xmlns:xlink="http://www.w3.org/1999/xlink" x="0px" y="0px"
	 viewBox="0 0 100 99.9" enable-background="new 0 0 100 99.9" xml:space="preserve">
<g>
	<g>
		<g>
			<path fill="#F9EF6B" d="M97.7,52.8c-1.6,26.3-24.2,46.4-50.5,44.8C20.8,96.1,0.7,73.4,2.3,47.1C3.9,20.8,26.5,0.7,52.8,2.3
				c26,1.6,45.9,23.7,44.9,49.6"/>
		</g>
	</g>
	<path fill="#FFFFFF" d="M50.3,18.5c-0.2-0.4-0.3-0.8-0.5-1.1c-0.3-0.7-0.6-1.4-1-2c-0.5-0.8-1.2-1.1-2.1-1.2c0,0-0.1,0-0.1,0
		c-0.6-0.5-1.4-0.6-2.1-0.7c-1.1-0.1-2.2-0.1-3.3-0.2c-0.6,0-1.2,0.1-1.8,0.5c-0.4,0.2-0.7,0.5-1.1,0.7c-0.1,0-0.2,0.1-0.3,0
		c-0.3-0.1-0.6-0.1-0.9,0c-0.4,0.1-0.9,0.2-1.4,0.2c-0.7,0.1-1.3,0.4-1.8,0.8c-0.8,0.6-1.6,1.2-2.4,1.7c-0.6,0.3-1.1,0.8-1.4,1.6
		c-0.2,0.7-0.5,1.3-0.8,2c-0.4,0.6-0.8,1.2-1.3,1.7c-0.3,0.3-0.5,0.7-0.8,1c-0.4,0.5-0.5,1-0.5,1.6c0,0.9-0.3,1.6-0.8,2.4
		c-0.2,0.3-0.3,0.6-0.4,0.9c-0.3,0.7-0.4,1.5-0.9,2.1c-0.3,0.4-0.4,0.8-0.5,1.3c0,0.3-0.2,0.6-0.3,0.9l-0.1,0.2
		c-0.7,0.2-0.9,0.7-1.1,1.3c0,0.1,0,0.2-0.1,0.3c-0.3,0.7-0.3,1.5-0.4,2.2c-0.1,0.5-0.3,1.1-0.4,1.6c0,0.1-0.1,0.1-0.1,0.1
		c-0.6,0.3-0.8,0.8-1,1.3c-0.2,0.5-0.4,0.9-0.5,1.4C20,41.5,20,41.9,20,42.3c0,0.9-0.2,1.8-0.5,2.6c-0.3,0.8-0.2,1.6,0.1,2.4
		c0.1,0.2,0.2,0.5,0.3,0.7l0.1,0c-0.2,0.1-0.4,0.3-0.6,0.6c-0.6,1.2-0.6,2.4-0.3,3.6c0.1,0.5,0.3,1,0.4,1.5l0,0
		c-0.2,0.4-0.5,0.7-0.7,1.1c-0.4,0.8-0.5,1.6-0.4,2.5c0.1,0.6,0.2,1.2,1,1.3l-0.5,0c-0.3,0.5-0.2,1.1-0.1,1.6
		c0.1,0.8,0.4,1.5,0.7,2.3c0,0,0,0,0,0c0.2,0.4,0.2,1,0.2,1.4c0,0.4,0,0.8,0.2,1.2c0.5,1.2,1.1,2.3,2.1,3.2c0.9,0.8,1.4,1.9,1.8,3.1
		c0.2,0.6,0.6,1.2,1.2,1.5c0.1,0.1,0.2,0.2,0.3,0.4c0.1,0.2,0.2,0.5,0.3,0.7c0.5,0.7,1,1.4,1.6,2c0.2,0.2,0.5,0.3,0.8,0.5
		c0.1,0,0.2,0,0.2,0l-0.2,0.1c-0.1,0.4,0,0.9,0.2,1.2c0.5,0.8,1.1,1.5,1.7,2.2c0.4,0.5,1,1,1.6,1.4c0.2,0.1,0.3,0.1,0.5,0l-0.3,0.1
		c0,0.7,0.5,1,0.9,1.4c0.4,0.3,0.7,0.6,1.1,0.9c0.6,0.4,1.3,0.8,2.1,1c0.8,0.2,1.5,0.2,2.3,0.3c0.6,0.1,1.2,0.1,1.7,0.1
		c0.6,0,1.2-0.2,1.8-0.4c0.1,0,0.2-0.1,0.3,0c0.5,0.2,1,0.2,1.5,0.2c0.6,0,1.2,0,1.7-0.3c0.1-0.1,0.4,0,0.6,0
		c0.7,0.1,1.3-0.1,1.9-0.5c0.9-0.5,1.6-1.1,2.1-2c0.2-0.3,0.3-0.6,0.4-0.9c0.1-0.4,0.2-0.7,0.4-1c0,0,0-0.1,0-0.2l0,0.2
		c0.4,0.2,0.6,0.5,0.8,0.8c0.1,0.1,0.2,0.2,0.2,0.4c-0.1,0.4,0.1,0.6,0.3,0.9c0.3,0.3,0.5,0.7,0.7,1c0.3,0.3,0.6,0.7,0.9,0.9
		c1.1,0.5,2.3,0.7,3.5,0.1c0.1,0,0.2-0.1,0.3,0c1,0.2,2,0.1,3-0.1c0.3-0.1,0.5-0.1,0.7,0c0.3,0.1,0.5,0.1,0.8,0.1
		c1-0.1,2-0.2,2.9-0.5c0.3-0.1,0.6-0.1,0.8-0.3c0.4-0.4,0.8-0.8,1.2-1.2c0.5-0.5,0.9-0.9,1.5-1.2c0.7-0.3,1.4-0.6,2-1.1
		c0.5-0.4,1-0.9,1.1-1.6c0.1-0.4,0-0.5-0.4-0.5l0.4,0.1c0.8-0.7,1.7-1.2,2.4-2c0.6-0.7,1.1-1.4,1.2-2.3l0.1,0c0.5-0.4,1-0.7,1.4-1.1
		c0.4-0.4,0.7-0.8,0.8-1.4c0-0.2,0.1-0.4,0.3-0.6c0.2-0.3,0.5-0.6,0.8-0.8c0.3-0.3,0.5-0.6,0.7-0.9c0.3-0.5,0.4-1,0.5-1.6
		c0-0.2,0.1-0.3,0.1-0.5c0.2-0.5,0.5-0.9,0.7-1.4c0.2-0.3,0.3-0.7,0.3-1.1c0.1-0.8,0.2-1.7,0.3-2.5c0.1-0.5,0.1-0.9-0.2-1.4
		c-0.2-0.4-0.4-0.4-0.7-0.1l0.3-0.2c0-0.6,0.1-1.2,0.4-1.8c0.5-0.8,0.7-1.7,0.5-2.7c-0.1-0.5-0.3-1-0.4-1.5c-0.2-0.5-0.2-1,0-1.5
		c0.1-0.3,0.2-0.6,0.2-0.8c0.1-0.8,0-1.7-0.7-2.3c0,0-0.1-0.1-0.1-0.1c0-0.5-0.1-0.9-0.1-1.4c0-0.8,0.1-1.5-0.1-2.3
		c-0.1-0.2-0.2-0.4-0.3-0.6l-0.1-0.1c-0.3-0.2-0.3-0.5-0.2-0.8c0-0.2,0.1-0.4,0.1-0.6c0.1-0.7,0.2-1.4,0.2-2.1
		c0-0.8-0.1-1.6-0.3-2.4c-0.2-0.7-0.4-1.3-0.9-1.8c-0.2-0.2-0.3-0.4-0.3-0.6c0-0.8-0.1-1.7-0.4-2.4c-0.2-0.7-0.5-1.4-0.8-2.1
		c-0.2-0.5-0.5-0.9-1.1-1l-0.2-0.1c-0.1-0.4-0.2-0.8-0.3-1.2c-0.1-0.5-0.3-1-0.5-1.4c-0.2-0.6-0.6-1.2-1.2-1.5l-0.5-0.2
		c-0.1-0.5-0.2-1.1-0.3-1.6c-0.1-0.4-0.2-0.7-0.4-1.1c-0.2-0.5-0.5-1.1-0.8-1.6C72,22,71.7,21.3,71,21.1l-0.1-0.3
		c-0.2-0.4-0.4-0.8-0.6-1.1c-0.5-0.7-0.9-1.4-1.4-2c-0.4-0.5-0.8-0.9-1.5-1.1c-0.4-0.1-0.7-0.3-1-0.6c-0.9-0.8-1.8-1.4-3-1.6
		c-0.7-0.1-1.4-0.4-2.1-0.3c0,0-0.1,0-0.1,0c-0.5,0.3-0.8-0.1-1.1-0.3c-0.6-0.4-1.3-0.7-2-0.8c-0.3-0.1-0.7,0-1,0
		c-0.9,0-1.8,0.2-2.6,0.4c-1.3,0.3-2.1,1.1-2.6,2.3c-0.3,0.8-0.6,1.7-0.9,2.6c-0.1,0.3-0.3,0.6-0.6,0.7L50.3,18.5z"/>
	<g>
		<g>
			
				<path fill="none" stroke="#000000" stroke-width="0.535" stroke-linecap="round" stroke-linejoin="round" stroke-miterlimit="10" d="
				M47.1,19.9c1-0.7,2.1-0.6,3.2-0.1c0-0.1,0.1-0.2,0.1-0.3c0.2-0.3,0.2-0.6,0-1c-0.2-0.4-0.3-0.8-0.5-1.1c-0.3-0.7-0.6-1.4-1-2
				c-0.5-0.8-1.2-1.1-2.1-1.2c0,0-0.1,0-0.1,0c-0.6-0.5-1.4-0.6-2.1-0.7c-1.1-0.1-2.2-0.1-3.3-0.2c-0.6,0-1.2,0.1-1.8,0.5
				c-0.4,0.2-0.7,0.5-1.1,0.7c-0.1,0-0.2,0.1-0.3,0c-0.3-0.1-0.6-0.1-0.9,0c-0.4,0.1-0.9,0.2-1.4,0.2c-0.7,0.1-1.3,0.4-1.8,0.8
				c-0.8,0.6-1.6,1.2-2.4,1.7c-0.6,0.3-1.1,0.8-1.4,1.6c-0.2,0.7-0.5,1.3-0.8,2c-0.4,0.6-0.8,1.2-1.3,1.7c-0.3,0.3-0.5,0.7-0.8,1
				c-0.4,0.5-0.5,1-0.5,1.6c0,0.9-0.3,1.6-0.8,2.4c-0.2,0.3-0.3,0.6-0.4,0.9c-0.3,0.7-0.4,1.5-0.9,2.1c-0.3,0.4-0.4,0.8-0.5,1.3
				c0,0.3-0.2,0.6-0.3,0.9c0,0.1,0,0.2,0,0.3c0.4,0.5,0.8,1,1.4,1.4c0.9,0.5,1.4,1.2,1.6,2.1c0.1,0.5,0.3,1,0.3,1.5"/>
			
				<path fill="none" stroke="#000000" stroke-width="0.535" stroke-linecap="round" stroke-linejoin="round" stroke-miterlimit="10" d="
				M75.2,39.4c-0.1-0.3-0.2-0.7-0.2-1c-0.1-0.5-0.2-1.1-0.2-1.6c-0.1-0.8-0.2-1.6-0.6-2.3c0-0.1-0.1-0.2-0.1-0.2
				c-0.2-0.3-0.4-0.3-0.6,0c-0.4,0.5-0.7,1-0.9,1.6c-0.3,0.8-0.4,1.7-1,2.5c-0.2,0.2-0.5,0.4-0.7,0.6c-0.2,0.2-0.3,0.5-0.5,0.8
				c-0.3,0.3-0.6,0.4-1,0.5c-0.9,0-1.9,0-2.8,0.1c-0.8,0.1-1.5,0.2-2.3,0.4c-0.8,0.2-1.2,0.8-1.6,1.4c-0.1,0.2-0.2,0.5-0.3,0.8
				c-0.2,0.7,0.1,1.2,0.7,1.5c0.4,0.2,0.8,0.4,1.2,0.5c0.4,0.1,0.5,0.4,0.6,0.8c0.1,0.5,0.1,0.5,0.6,0.5"/>
			
				<path fill="none" stroke="#000000" stroke-width="0.535" stroke-linecap="round" stroke-linejoin="round" stroke-miterlimit="10" d="
				M77.5,50.9c-0.2,0-0.3,0-0.5,0c-0.4,0-0.9,0-1.3-0.1c0,0-0.1,0-0.1,0c-0.8,0.7-1.6,1.4-2.2,2.4c-0.4,0.7-0.9,1.4-1.4,2
				c-0.4,0.6-0.9,1-1.6,1.3c-0.8,0.3-1.6,0.6-2.4,0.4c-0.1,0-0.2,0-0.3,0.1c-0.9,0.4-1.7,0.9-2.6,1.3c-0.4,0.2-0.3,0.5-0.4,0.8
				c-0.1,0.8,0,1.6,0.1,2.4c0.1,0.8,0.6,1.3,1.2,1.7c0.1,0.1,0.2,0.1,0.2,0.3c0.1,0.7,0.2,1.3,0.3,2c0,0.1,0.1,0.2,0.1,0.3
				c0.2,0.2,0.5,0.3,0.7,0.5c0,0,0.2-0.1,0.3-0.2c0.2-0.1,0.4-0.3,0.6-0.4c0.7-0.7,1.5-0.9,2.4-0.7c0.4,0.1,0.9,0.2,1.3,0.3
				c0.1,0,0.3,0,0.4,0c0.1,0,0.3-0.1,0.4-0.1c0.8,0.1,1.6-0.1,2.4-0.4c0.3-0.1,0.5-0.1,0.7,0.2c0.4,0.5,1,0.5,1.6,0.5
				c0,0,0.1,0,0.1-0.1c0.5-0.3,1-0.7,1.3-1.2c0.4-0.6,0.5-1.3,0.6-2c0.1-0.6,0.2-1.3,0.7-1.7c0.3-0.3,0.5-0.3,0.7,0.1
				c0.3,0.4,0.3,0.9,0.2,1.4c-0.1,0.8-0.2,1.7-0.3,2.5c-0.1,0.4-0.2,0.7-0.3,1.1c-0.2,0.5-0.5,0.9-0.7,1.4c-0.1,0.2-0.1,0.3-0.1,0.5
				c-0.1,0.5-0.2,1.1-0.5,1.6c-0.2,0.3-0.5,0.6-0.7,0.9c-0.2,0.3-0.5,0.5-0.8,0.8c-0.1,0.2-0.2,0.4-0.3,0.6c-0.1,0.6-0.4,1-0.8,1.4
				c-0.5,0.4-0.9,0.8-1.4,1.1c-0.8-0.4-1.4-0.3-2.1,0.1c-0.4,0.2-0.9,0.4-1.4,0.3c-0.1,0-0.2,0-0.3,0"/>
			
				<path fill="none" stroke="#000000" stroke-width="0.535" stroke-linecap="round" stroke-linejoin="round" stroke-miterlimit="10" d="
				M69.7,26.7c-0.3-0.2-0.4-0.4-0.2-0.7c0.3-0.7,0.4-1.3,0.4-2.1c0-0.5,0-1,0-1.5c0-0.2,0-0.3,0.2-0.5c0.3-0.2,0.5-0.5,0.8-0.7
				c0.2-0.1,0.2-0.3,0.1-0.4c-0.2-0.4-0.4-0.8-0.6-1.1c-0.5-0.7-0.9-1.4-1.4-2c-0.4-0.5-0.8-0.9-1.5-1.1c-0.4-0.1-0.7-0.3-1-0.6
				c-0.9-0.8-1.8-1.4-3-1.6c-0.7-0.1-1.4-0.4-2.1-0.3c0,0-0.1,0-0.1,0c-0.5,0.3-0.8-0.1-1.1-0.3c-0.6-0.4-1.3-0.7-2-0.8
				c-0.3-0.1-0.7,0-1,0c-0.9,0-1.8,0.2-2.6,0.4c-1.3,0.3-2.1,1.1-2.6,2.3c-0.3,0.8-0.6,1.7-0.9,2.6c-0.1,0.3-0.3,0.6-0.6,0.7"/>
			
				<path fill="none" stroke="#000000" stroke-width="0.535" stroke-linecap="round" stroke-linejoin="round" stroke-miterlimit="10" d="
				M69.8,75.6c-0.2,0-0.5,0-0.7,0c-0.4-0.2-0.7-0.4-1-0.6c-0.1-0.1-0.2-0.1-0.4-0.1c-0.9,0.2-1.8,0.4-2.7,0.8
				c-0.1,0-0.2,0.2-0.3,0.3c-0.1,0.4-0.1,0.8-0.2,1.1c-0.1,0.2,0,0.3,0.1,0.4c0.2,0.1,0.3,0.2,0.5,0.3c0.8,0.6,1.6,0.5,2.5,0.3
				c0.3-0.1,0.7-0.1,1-0.1c0.1,0,0.3,0,0.4,0.1c0.3,0.2,0.5,0.1,0.8,0.1c0.4,0,0.8-0.1,1.2-0.1c0.4,0,0.5,0.1,0.4,0.5
				c-0.1,0.7-0.6,1.2-1.1,1.6c-0.6,0.5-1.3,0.8-2,1.1c-0.6,0.2-1.1,0.7-1.5,1.2c-0.4,0.4-0.8,0.8-1.2,1.2c-0.2,0.2-0.5,0.2-0.8,0.3
				c-0.9,0.3-1.9,0.4-2.9,0.5c-0.3,0-0.5,0-0.8-0.1c-0.2-0.1-0.5-0.1-0.7,0c-1,0.3-2,0.3-3,0.1c-0.1,0-0.2,0-0.3,0
				c-1.2,0.6-2.4,0.4-3.5-0.1c-0.4-0.2-0.7-0.5-0.9-0.9c-0.3-0.3-0.5-0.7-0.7-1c-0.2-0.3-0.3-0.6-0.3-0.9c0-0.2-0.1-0.3-0.2-0.4
				c-0.2-0.3-0.4-0.7-0.8-0.8"/>
			
				<path fill="none" stroke="#000000" stroke-width="0.535" stroke-linecap="round" stroke-linejoin="round" stroke-miterlimit="10" d="
				M71,44.8c0,0.2,0,0.4,0.1,0.6c0.2,0.3,0,0.6-0.1,0.8c-0.4,0.8-0.8,1.5-1.2,2.3c-0.3,0.6-0.7,1.2-1.1,1.8c0,0-0.1,0.1-0.1,0.1
				c-0.2,0.6-0.7,0.7-1.2,0.9c-0.5,0.1-1,0.3-1.4,0.4c-0.6,0.1-1.2,0-1.8,0c-0.5,0-1.1,0-1.6,0c-0.4,0-0.8,0-1.2,0.1"/>
			
				<path fill="none" stroke="#000000" stroke-width="0.535" stroke-linecap="round" stroke-linejoin="round" stroke-miterlimit="10" d="
				M76.2,31.2c-0.1-0.4-0.2-0.8-0.3-1.2c-0.1-0.5-0.3-1-0.5-1.4c-0.2-0.6-0.6-1.2-1.2-1.5c-0.3-0.2-0.6-0.2-0.8,0
				c-0.3,0.3-0.6,0.5-0.9,0.8c-0.1,0.1-0.1,0.1-0.2,0.2c-0.9,0.3-1,1.1-1,1.8c-0.1,0.7-0.1,1.4-0.1,2.2c0,0.5-0.1,1-0.4,1.4
				c-0.4,0.6-0.9,0.7-1.5,0.8c-0.8,0.1-1.6,0.2-2.4,0.4c-0.6,0.1-1.2,0.3-1.7,0.7c0,0-0.1,0.1-0.1,0.1c-0.4,0.1-0.5,0.5-0.6,0.8
				c-0.1,0.5-0.3,1.1-0.5,1.6"/>
			
				<path fill="none" stroke="#000000" stroke-width="0.535" stroke-linecap="round" stroke-linejoin="round" stroke-miterlimit="10" d="
				M80.1,45.3c0.1,0.2,0.2,0.4,0.3,0.6c0.2,0.8,0.1,1.5,0.1,2.3c0,0.5,0.1,0.9,0.1,1.4c0,0,0,0.1,0.1,0.1c0.7,0.6,0.8,1.4,0.7,2.3
				c0,0.3-0.2,0.6-0.2,0.8c-0.1,0.5-0.1,1,0,1.5c0.2,0.5,0.3,1,0.4,1.5c0.2,1-0.1,1.8-0.5,2.7c-0.3,0.6-0.4,1.2-0.4,1.8"/>
			
				<path fill="none" stroke="#000000" stroke-width="0.535" stroke-linecap="round" stroke-linejoin="round" stroke-miterlimit="10" d="
				M31.6,81.4c0,0.7,0.5,1,0.9,1.4c0.4,0.3,0.7,0.6,1.1,0.9c0.6,0.4,1.3,0.8,2.1,1c0.8,0.2,1.5,0.2,2.3,0.3c0.6,0.1,1.2,0.1,1.7,0.1
				c0.6,0,1.2-0.2,1.8-0.4c0.1,0,0.2-0.1,0.3,0c0.5,0.2,1,0.2,1.5,0.2c0.6,0,1.2,0,1.7-0.3c0.1-0.1,0.4,0,0.6,0
				c0.7,0.1,1.3-0.1,1.9-0.5c0.9-0.5,1.6-1.1,2.1-2c0.2-0.3,0.3-0.6,0.4-0.9c0.1-0.4,0.2-0.7,0.4-1c0,0,0-0.1,0-0.2
				c-0.1-0.6-0.1-1.3-0.1-1.9c0-1.1-0.1-2.1-0.2-3.2c0-0.2-0.2-0.4-0.3-0.6"/>
			
				<path fill="none" stroke="#000000" stroke-width="0.535" stroke-linecap="round" stroke-linejoin="round" stroke-miterlimit="10" d="
				M18.8,58.5c-0.3,0.5-0.2,1.1-0.1,1.6c0.1,0.8,0.4,1.5,0.7,2.3c0,0,0,0,0,0c0.2,0.4,0.2,1,0.2,1.4c0,0.4,0,0.8,0.2,1.2
				c0.5,1.2,1.1,2.3,2.1,3.2c0.9,0.8,1.4,1.9,1.8,3.1c0.2,0.6,0.6,1.2,1.2,1.5c0.1,0.1,0.2,0.2,0.3,0.4c0.1,0.2,0.2,0.5,0.3,0.7
				c0.5,0.7,1,1.4,1.6,2c0.2,0.2,0.5,0.3,0.8,0.5c0.1,0,0.2,0,0.2,0c0.4-0.1,0.9-0.1,1.3,0.2c0.3,0.2,0.5,0.4,0.8,0.6
				c0.1,0.1,0.3,0.1,0.5,0.1"/>
			
				<path fill="none" stroke="#000000" stroke-width="0.535" stroke-linecap="round" stroke-linejoin="round" stroke-miterlimit="10" d="
				M36.6,51.1c0.3,0.3,0.6,0.7,0.9,1c0.4,0.4,0.8,0.5,1.4,0.4c0.4-0.1,0.7-0.1,1.1-0.2c1-0.1,1.8,0.2,2.5,1c0.4,0.5,0.7,0.9,1.1,1.4
				c0.5,0.7,1.2,1,2.1,1.1c1.3,0.2,2.5,0.7,3.4,1.6c0.2,0.2,0.5,0.4,0.8,0.5c0.5,0.3,0.6,0.4,0.6,1c0,0.9-0.2,1.9,0,2.8
				c0.1,0.3,0.1,0.7,0.2,1c0.1,0.3,0.3,0.6,0.5,0.9"/>
			
				<path fill="none" stroke="#000000" stroke-width="0.535" stroke-linecap="round" stroke-linejoin="round" stroke-miterlimit="10" d="
				M59.6,55.5c-0.1,0.5,0.2,0.8,0.4,1.2c0.3,0.5,0.3,0.4,0,0.9c-0.2,0.4-0.4,0.9-0.5,1.3c-0.3,0.9-0.4,1.8-0.8,2.6
				c-0.4,0.6-0.9,1-1.5,1.3c-0.4,0.2-0.8,0.3-1.2,0.4c-0.9,0.3-1.6,0.9-2.1,1.7c-0.1,0.2-0.1,0.4-0.2,0.6"/>
			
				<path fill="none" stroke="#000000" stroke-width="0.535" stroke-linecap="round" stroke-linejoin="round" stroke-miterlimit="10" d="
				M39.4,45.5c0.1-0.4,0.4-0.6,0.7-0.7c0.1-0.1,0.2-0.2,0.3-0.3c0.3-0.6,0.7-1.3,1-1.9c0.2-0.4,0.2-0.9,0.2-1.3c0-0.3-0.1-0.7-0.2-1
				c-0.1-0.4,0.1-0.8,0.4-1.1c0.3-0.4,0.6-0.7,0.9-1.1c0.1-0.1,0.2-0.3,0.2-0.5c0.1-0.6,0.1-1.2,0-1.7c-0.1-0.4-0.3-0.8-0.6-1.1
				c-0.6-0.6-0.9-1.4-1.1-2.2c-0.1-0.3-0.2-0.5-0.2-0.8c0-0.1,0-0.3,0.1-0.3c0.4-0.5,0.8-1,1.2-1.6c0.4-0.5,0.6-1.1,0.7-1.8
				c-0.4-0.3-0.9-0.7-1.4-1.1c-0.4-0.3-0.9-0.2-1.3,0c-0.4,0.2-0.8,0.4-1.1,0.7c-0.7,0.6-1.4,0.7-2.2,0.6c-0.8-0.1-1.6-0.3-2.4-0.3
				c-0.5-0.1-1-0.1-1.5-0.1"/>
			
				<path fill="none" stroke="#000000" stroke-width="0.535" stroke-linecap="round" stroke-linejoin="round" stroke-miterlimit="10" d="
				M21.7,38.4c0.3,0.4,0.6,0.8,0.8,1.3c0.4,0.7,0.9,1.2,1.4,1.7c0.6,0.6,1.3,1.3,1.8,2c0.4,0.5,1.1,0.8,1.6,1.1
				c0.4,0.3,0.8,0.6,1.3,0.8c0.2,0.2,0.4,0.4,0.7,0.5c0.2,0.1,0.5,0,0.8,0c0.3,0,0.6,0,0.9-0.1c0.7-0.3,1.3,0.1,1.9,0.4
				c0.4,0.3,0.9,0.5,1.3,0.8c0.7,0.4,1,1.1,1.4,1.7c0.3,0.5,0.5,1.1,1,1.4c0.2,0.1,0.1,0.7-0.1,0.9c-0.2,0.2-0.4,0.5-0.6,0.7"/>
			
				<path fill="none" stroke="#000000" stroke-width="0.535" stroke-linecap="round" stroke-linejoin="round" stroke-miterlimit="10" d="
				M38.2,14.5c0,0.5-0.1,1-0.3,1.5c-0.2,0.5-0.2,1-0.3,1.6c0,0.1-0.1,0.2-0.2,0.3c-0.1,0.1-0.1,0.1-0.2,0.2
				c-0.6,0.8-1.4,1.1-2.3,1.4c-0.9,0.4-1.7,0.8-2.3,1.6c-0.4,0.6-0.5,1.2-0.6,1.9c-0.1,0.5,0,1.1,0.1,1.6c0.1,0.2,0,0.4-0.2,0.5
				c-0.5,0.4-1,0.7-1.4,1.2c-0.8,0.9-1.2,1.8-1.2,3c0,0.5,0,1-0.3,1.5c-0.4,0.7-0.5,1.5-0.4,2.4c0.1,0.4,0.3,0.8,0.3,1.1
				c0.1,0.3,0,0.7,0,1c0,0.1-0.1,0.2-0.1,0.3"/>
			
				<path fill="none" stroke="#000000" stroke-width="0.535" stroke-linecap="round" stroke-linejoin="round" stroke-miterlimit="10" d="
				M67.3,66.3c0,0.8-0.2,1.5-0.4,2.2c-0.4,1.5-1.3,2.5-2.5,3.4c-0.6,0.4-1.3,0.8-1.9,1.2c-0.1,0.1-0.2,0.2-0.4,0.3"/>
			
				<path fill="none" stroke="#000000" stroke-width="0.535" stroke-linecap="round" stroke-linejoin="round" stroke-miterlimit="10" d="
				M57.8,50.1c0.1,0.7,0.1,1.4,0.3,2.1c0.2,0.7-0.1,1.1-0.5,1.6c-0.6,0.7-1.1,1.6-1.9,2.1c-0.5,0.3-1,0.5-1.5,0.8
				c-0.6,0.3-1.2,0.6-1.8,0.9c-0.5,0.3-1,0.7-1.6,0.8c-0.1,0-0.1,0-0.2,0"/>
			
				<path fill="none" stroke="#000000" stroke-width="0.535" stroke-linecap="round" stroke-linejoin="round" stroke-miterlimit="10" d="
				M23.8,32.8c-0.7,0.2-0.9,0.7-1.1,1.3c0,0.1,0,0.2-0.1,0.3c-0.3,0.7-0.3,1.5-0.4,2.2c-0.1,0.5-0.3,1.1-0.4,1.6
				c0,0.1-0.1,0.1-0.1,0.1c-0.6,0.3-0.8,0.8-1,1.3c-0.2,0.5-0.4,0.9-0.5,1.4C20,41.5,20,41.9,20,42.3c0,0.9-0.2,1.8-0.5,2.6
				c-0.3,0.8-0.2,1.6,0.1,2.4c0.1,0.2,0.2,0.5,0.3,0.7"/>
			
				<path fill="none" stroke="#000000" stroke-width="0.535" stroke-linecap="round" stroke-linejoin="round" stroke-miterlimit="10" d="
				M79.7,55.3c-0.4-0.1-0.8,0.2-1.2,0.3c-0.5,0.1-0.9,0.4-1.3,0.6c-0.2,0.1-0.3,0.3-0.4,0.4c-0.3,0.6-0.6,1.1-1,1.6
				c-0.7,0.8-1.6,1.2-2.6,1.4c-0.8,0.1-1.6,0.2-2.3,0.5c-0.3,0.1-0.7,0.3-1,0.4c-0.1,0-0.2,0.1-0.2,0.2c-0.5,0.7-1.3,1-2.1,1.3
				c-0.1,0-0.2,0.1-0.2,0.1c-0.4,0.4-0.7,0.8-1.1,1.2"/>
			
				<path fill="none" stroke="#000000" stroke-width="0.535" stroke-linecap="round" stroke-linejoin="round" stroke-miterlimit="10" d="
				M58.4,74.9c-0.1,0.6-0.5,0.9-0.9,1.3c-0.4,0.3-0.9,0.6-1.1,1.1c-0.1,0.2-0.1,0.3-0.2,0.5c-0.1,0.4-0.1,0.9-0.2,1.3
				c-0.2,1-1.3,2-2.5,2.1c-0.2,0-0.4,0-0.6,0c-0.4,0-0.8,0-1.2,0"/>
			
				<path fill="none" stroke="#000000" stroke-width="0.535" stroke-linecap="round" stroke-linejoin="round" stroke-miterlimit="10" d="
				M31.4,56.6c0.4-0.1,0.7,0,1,0.2c0.5,0.4,1,0.8,1.4,1.1c0.1,0.1,0.2,0.2,0.4,0.2c0.3,0.2,0.4,0.4,0.4,0.7c0,0.7,0,1.5,0,2.2
				c0,0.5-0.1,1.1-0.2,1.6c-0.2,0.9-0.4,1.8-0.7,2.7c0,0,0,0,0,0c-0.5,0.7,0,1.2,0.4,1.6c0.2,0.2,0.3,0.4,0.5,0.6
				c0.1,0.1,0.3,0.2,0.4,0.3"/>
			
				<path fill="none" stroke="#000000" stroke-width="0.535" stroke-linecap="round" stroke-linejoin="round" stroke-miterlimit="10" d="
				M73.7,34c0-0.8,0.4-1.3,1.1-1.6c0.5-0.3,0.9-0.6,1.3-1c0.1-0.1,0.2-0.1,0.4-0.1c0.6,0.1,0.9,0.5,1.1,1c0.3,0.7,0.6,1.4,0.8,2.1
				c0.2,0.8,0.4,1.6,0.4,2.4c0,0.3,0.1,0.4,0.3,0.6c0.5,0.5,0.7,1.1,0.9,1.8c0.2,0.8,0.3,1.6,0.3,2.4c0,0.7-0.1,1.4-0.2,2.1
				c0,0.2-0.1,0.4-0.1,0.6c-0.1,0.3,0,0.6,0.2,0.8"/>
			
				<path fill="none" stroke="#000000" stroke-width="0.535" stroke-linecap="round" stroke-linejoin="round" stroke-miterlimit="10" d="
				M51,24.4c-0.2,0.4-0.3,0.8-0.3,1.2c0,0.6-0.1,1.1-0.3,1.7c-0.1,0.2-0.1,0.5,0,0.7c0.3,0.7,0.3,1.5,0.3,2.2c0,0.8-0.1,1.6,0.2,2.4
				c0.1,0.3,0.1,0.6-0.1,0.9c-0.2,0.3-0.3,0.6-0.4,0.9c0,0.1-0.1,0.2,0,0.3c0.2,0.5,0.1,1.1,0,1.6c0,0.6-0.1,1.2-0.1,1.8
				c0,0.9,0,1.8,0.1,2.7c0,0.2,0.2,0.4,0.2,0.6c0,0.1,0.1,0.2,0.1,0.2c-0.1,0.7-0.1,1.4-0.5,2.1C50.1,44,49.9,44,49.8,44
				c-0.4-0.2-0.8-0.3-1.1-0.6c-0.3-0.2-0.5-0.5-0.8-0.7c-0.1-0.1-0.2-0.1-0.3-0.1c-0.6-0.1-1-0.4-1-1"/>
			
				<path fill="none" stroke="#000000" stroke-width="0.535" stroke-linecap="round" stroke-linejoin="round" stroke-miterlimit="10" d="
				M56.3,59.6c-0.4-0.1-0.7-0.2-1.1-0.3c-0.3-0.1-0.5,0.1-0.7,0.2c-0.5,0.3-0.9,0.6-1.3,0.9c-0.4,0.3-0.6,0.7-0.7,1.1
				c-0.2,0.5-0.3,0.9-0.5,1.4c-0.1,0.2-0.2,0.4-0.4,0.5c-0.4,0.2-0.6,0.5-0.7,0.9c-0.1,0.1-0.1,0.2-0.2,0.3
				c-0.3,0.3-0.2,0.6-0.2,0.9c0.1,0.8,0.1,1.5,0.1,2.3c0,0.8,0,1.5,0.2,2.2c0,0.1,0,0.2,0,0.3c-0.2,0.6-0.4,1.1-0.5,1.7
				c0,0.1,0,0.2,0,0.2c0.2,0.7,0,1.3-0.1,2c0,0.1-0.1,0.1-0.1,0.1c-0.4,0.1-0.6,0.3-0.8,0.6c-0.2,0.4-0.6,0.5-1,0.7
				c-0.4,0.1-0.7,0.3-1.1,0.4c-0.1,0.1-0.2,0.3-0.4,0.4c-0.5,0.6-1.2,0.9-2,0.8c-0.5-0.1-1-0.1-1.5-0.1"/>
			
				<path fill="none" stroke="#000000" stroke-width="0.535" stroke-linecap="round" stroke-linejoin="round" stroke-miterlimit="10" d="
				M60.2,67.1c-0.6-0.2-1.2-0.3-1.9-0.3c-1.1,0.1-2.1,0.4-2.7,1.5c-0.3,0.5-0.6,1-0.9,1.4c-0.1,0.2-0.2,0.2-0.4,0.2
				c-0.4,0-0.7,0.2-1.1,0.2c-0.6,0.1-1.2,0.1-1.9-0.1c-0.2-0.1-0.4-0.1-0.6-0.1"/>
			
				<path fill="none" stroke="#000000" stroke-width="0.535" stroke-linecap="round" stroke-linejoin="round" stroke-miterlimit="10" d="
				M33.9,69c0,0.1,0.1,0.2,0,0.3c-0.2,0.3-0.1,0.5,0,0.8c0.3,0.6,0.6,1.3,0.9,1.9c0.3,0.6,0.8,0.9,1.5,1c0,0,0.1,0,0.1,0
				c0.7,0.3,1.2,0,1.7-0.3c0.3-0.2,0.6-0.3,0.8-0.5c0.3-0.2,0.5-0.5,0.7-0.8c0.1-0.1,0.1-0.2,0.2-0.3c0.1-0.2,0.3-0.3,0.5-0.2
				c0.6,0.3,1.3,0.4,2,0.5c0.5,0,1,0,1.5,0.1c0.4,0,0.9,0.2,1.3,0.2c0.4,0,0.9-0.1,1.3-0.2c0,0,0.1,0,0.1-0.1
				c0.2-0.4,0.4-0.7,0.6-1.1c0.1-0.1,0.1-0.3,0.1-0.4c0-0.8,0-1.6-0.1-2.4c0,0,0,0,0,0"/>
			
				<path fill="none" stroke="#000000" stroke-width="0.535" stroke-linecap="round" stroke-linejoin="round" stroke-miterlimit="10" d="
				M47,51.2c-0.5-0.3-1.1-0.5-1.4-1c-0.2-0.3-0.4-0.5-0.5-0.8c-0.3-0.9-0.9-1.6-1.6-2.1c-0.4-0.3-1-0.4-1.5-0.5
				c-0.2-0.1-0.4,0-0.5,0.3c-0.2,0.5-0.1,1,0,1.5c0,0.2,0.1,0.4,0.1,0.6"/>
			
				<path fill="none" stroke="#000000" stroke-width="0.535" stroke-linecap="round" stroke-linejoin="round" stroke-miterlimit="10" d="
				M64.7,32c-0.9,0.1-1.8,0.2-2.6,0.3c-0.7,0.1-1.3,0.5-1.9,1c-0.6,0.5-1.1,1.1-1.5,1.8c-0.1,0.1-0.2,0.3-0.3,0.4"/>
			
				<path fill="none" stroke="#000000" stroke-width="0.535" stroke-linecap="round" stroke-linejoin="round" stroke-miterlimit="10" d="
				M71,21.1c0.7,0.2,1,0.9,1.4,1.5c0.3,0.5,0.6,1.1,0.8,1.6c0.2,0.3,0.3,0.7,0.4,1.1c0.1,0.5,0.2,1.1,0.3,1.6"/>
			
				<path fill="none" stroke="#000000" stroke-width="0.535" stroke-linecap="round" stroke-linejoin="round" stroke-miterlimit="10" d="
				M72.9,71.2c-0.5,0-0.9,0.1-1.4,0.1c-0.9,0-1.6,0.6-2.1,1.3c-0.5,0.7-0.9,1.4-1.3,2.1c0,0,0,0.1-0.1,0.1"/>
			
				<path fill="none" stroke="#000000" stroke-width="0.535" stroke-linecap="round" stroke-linejoin="round" stroke-miterlimit="10" d="
				M24,54.9c0.4,0.9,0.8,1.8,1.5,2.5c0.3,0.4,0.5,0.9,0.7,1.4c0.2,0.6,0.5,1.1,1.1,1.4c0.2,0.1,0.3,0.1,0.5,0.1"/>
			
				<path fill="none" stroke="#000000" stroke-width="0.535" stroke-linecap="round" stroke-linejoin="round" stroke-miterlimit="10" d="
				M38.8,79.8c-0.3,0.3-0.7,0.6-1,0.9c-0.1,0.1-0.2,0.1-0.2,0.1c-0.5,0-1.1,0-1.6,0.1c-0.6,0-1.1-0.1-1.6-0.3
				c-0.4-0.1-0.8,0-1.2,0.2c-0.4,0.2-0.7,0.3-1.1,0.5c-0.2,0.1-0.4,0.1-0.5,0c-0.6-0.3-1.1-0.8-1.6-1.4c-0.6-0.7-1.2-1.5-1.7-2.2
				c-0.2-0.3-0.3-0.8-0.2-1.2"/>
			
				<path fill="none" stroke="#000000" stroke-width="0.535" stroke-linecap="round" stroke-linejoin="round" stroke-miterlimit="10" d="
				M21.2,48.2c-0.2,0-0.4-0.1-0.7-0.1c-0.6-0.1-0.9,0-1.2,0.6c-0.6,1.2-0.6,2.4-0.3,3.6c0.1,0.5,0.3,1,0.4,1.5
				c0.6,0.1,1.1,0.2,1.6,0.1"/>
			
				<path fill="none" stroke="#000000" stroke-width="0.535" stroke-linecap="round" stroke-linejoin="round" stroke-miterlimit="10" d="
				M50.1,44c0.2,0.4,0.5,0.9,0.7,1.3c0.1,0.2,0,0.4,0,0.6c0,0.2-0.1,0.4-0.2,0.5c-0.3,0.4-0.2,0.9-0.2,1.3c0.1,0.5,0.1,1,0,1.5
				c0,0.8-0.1,1.5-0.1,2.3c0,0.3,0.1,0.6,0.2,0.8c0.2,0.3,0.2,0.5,0.1,0.8c-0.1,0.6-0.1,1.1-0.1,1.7c0,1.1,0,2.1-0.3,3.2"/>
			
				<path fill="none" stroke="#000000" stroke-width="0.535" stroke-linecap="round" stroke-linejoin="round" stroke-miterlimit="10" d="
				M78.7,37.3c-0.4,0.3-0.6,0.8-0.7,1.2c-0.2,0.8-0.5,1.6-1.2,2.2c-0.5,0.4-0.7,1-0.8,1.6c0,0.1,0,0.3,0,0.4"/>
			
				<path fill="none" stroke="#000000" stroke-width="0.535" stroke-linecap="round" stroke-linejoin="round" stroke-miterlimit="10" d="
				M64.5,77.2c-0.6,0.3-1,0.7-1.5,1.1c-0.4,0.3-0.8,0.7-1.3,0.8c-0.3,0.1-0.6,0.2-0.9,0.2c-1,0.1-2.1,0.7-2.7,1.4
				c-0.2,0.3-0.4,0.5-0.6,0.7c-0.4,0.5-0.9,0.7-1.5,0.7c-0.3,0-0.7,0.1-1,0.2"/>
			
				<path fill="none" stroke="#000000" stroke-width="0.535" stroke-linecap="round" stroke-linejoin="round" stroke-miterlimit="10" d="
				M37.7,23.1c-0.5,0.1-0.9,0.5-1.3,0.8c-0.7,0.6-1.4,0.8-2.2,0.9c-0.6,0.1-1.2,0-1.8,0"/>
			
				<path fill="none" stroke="#000000" stroke-width="0.535" stroke-linecap="round" stroke-linejoin="round" stroke-miterlimit="10" d="
				M34.1,33.3c-0.5-0.6-0.9-1.1-1.4-1.7c-0.6-0.7-1.4-1.1-2.3-1.3c-0.4-0.1-0.9-0.1-1.3-0.3c-0.4-0.2-0.8-0.4-1.3-0.6"/>
			
				<path fill="none" stroke="#000000" stroke-width="0.535" stroke-linecap="round" stroke-linejoin="round" stroke-miterlimit="10" d="
				M72.1,65.4c0,0.4,0.1,0.8,0,1.2c-0.1,0.6-0.2,1.3-0.5,1.9c-0.2,0.6-0.7,1.1-1.2,1.5c-0.1,0.1-0.3,0-0.4,0"/>
			
				<path fill="none" stroke="#000000" stroke-width="0.535" stroke-linecap="round" stroke-linejoin="round" stroke-miterlimit="10" d="
				M77.2,44.2c0-0.6-0.4-1.1-0.9-1.3c-0.2-0.1-0.4-0.1-0.5,0.1c-0.3,0.3-0.5,0.7-0.8,1c-1,1.1-2.2,1.7-3.7,1.9"/>
			
				<path fill="none" stroke="#000000" stroke-width="0.535" stroke-linecap="round" stroke-linejoin="round" stroke-miterlimit="10" d="
				M40.7,31.7c-1.2-0.3-2.4-0.2-3.5,0.3c-0.5,0.2-0.9,0.4-1.2,0.8c-0.2,0.1-0.3,0.2-0.5,0.2c-0.5-0.1-0.9,0.3-1.3,0.4
				c0,0-0.1,0.1-0.1,0.1c-0.1,0.7-0.6,1.3-1,1.9c-0.3,0.5-0.5,1.1-0.6,1.7c0,0.2,0,0.3,0.1,0.5"/>
			
				<path fill="none" stroke="#000000" stroke-width="0.535" stroke-linecap="round" stroke-linejoin="round" stroke-miterlimit="10" d="
				M75.2,73.9c0,1-0.5,1.7-1.2,2.3c-0.7,0.8-1.6,1.3-2.4,2"/>
			
				<path fill="none" stroke="#000000" stroke-width="0.535" stroke-linecap="round" stroke-linejoin="round" stroke-miterlimit="10" d="
				M44.2,34.4c0.3,0,0.6,0,0.8-0.1c0.3-0.1,0.5-0.1,0.7,0c0.7,0.5,1.4,0.9,2,1.4c0,0,0.1,0.1,0.1,0.2c-0.1,0.6-0.2,1.2-0.3,1.8
				C47.2,39,46,39.4,45,39.5c-0.1,0-0.2-0.1-0.2-0.1c-0.4-0.7-1.2-1.1-1.9-1.4"/>
			
				<path fill="none" stroke="#000000" stroke-width="0.535" stroke-linecap="round" stroke-linejoin="round" stroke-miterlimit="10" d="
				M60,23.1c-0.2-0.1-0.4-0.2-0.6-0.4c-0.8-0.5-1.7-0.6-2.7-0.2c-0.5,0.2-0.9,0.5-1.3,0.9c-0.1,0.1-0.1,0.2-0.2,0.3"/>
			
				<path fill="none" stroke="#000000" stroke-width="0.535" stroke-linecap="round" stroke-linejoin="round" stroke-miterlimit="10" d="
				M54.6,70c0.2,0.4,0.1,0.7-0.1,1.1c-0.3,0.6-0.7,1.1-0.5,1.8c0.1,0.3,0.2,0.5,0.4,0.7c0.3,0.3,0.6,0.6,0.9,0.9
				c0,0,0.1,0.1,0.2,0.1c0.5,0,0.9-0.1,1.4-0.1c0.4,0,0.9,0.2,1.3,0.3c0.3,0.1,0.5,0,0.7-0.1c0.6-0.4,1.2-0.7,1.8-1.1
				c0.2-0.1,0.4-0.3,0.6-0.5c0.4-0.3,0.6,0,0.9,0.1c0.2,0.1,0.2,0.3,0.1,0.5c0,0.2-0.1,0.3-0.1,0.5"/>
			
				<path fill="none" stroke="#000000" stroke-width="0.535" stroke-linecap="round" stroke-linejoin="round" stroke-miterlimit="10" d="
				M34.6,58.5c0.5-0.2,1-0.5,1.5-0.7c0.5-0.2,1.1-0.3,1.6-0.5c0.1,0,0.2,0,0.3,0.1c0.8,0.4,1.6,0.7,2.3,1.3c0.5,0.4,1,0.7,1.5,1.1
				c0.1,0.1,0.2,0.1,0.3,0.2c0.4,0.1,0.4,0.4,0.5,0.7c0.1,0.5,0.2,1,0.3,1.5c0,0.2,0.1,0.3,0.2,0.5c0.2,0.8-0.1,1.5-0.2,2.2
				c0,0.2-0.1,0.4-0.1,0.6"/>
			
				<path fill="none" stroke="#000000" stroke-width="0.535" stroke-linecap="round" stroke-linejoin="round" stroke-miterlimit="10" d="
				M20.8,63.2c0.2,0.4,0.3,0.8,0.4,1.2c0.3,1.3,1.2,2,2.4,2.5c0.1,0,0.3,0,0.4,0"/>
			
				<path fill="none" stroke="#000000" stroke-width="0.535" stroke-linecap="round" stroke-linejoin="round" stroke-miterlimit="10" d="
				M50.3,19.7c0.2,0.8,0.2,1.6,0.2,2.3c-0.1,0.8,0,1.5,0.5,2.1c0,0.1,0.1,0.1,0.2,0.1c0.5,0.1,0.9,0.5,1.2,0.8
				c0.1,0.1,0.1,0.4,0.1,0.5"/>
			
				<path fill="none" stroke="#000000" stroke-width="0.535" stroke-linecap="round" stroke-linejoin="round" stroke-miterlimit="10" d="
				M67.2,29.4c-0.4,0-0.9,0.1-1.3,0c-0.4,0-0.8-0.1-1.2-0.3c-0.5-0.2-1-0.4-1.4-0.7c-0.1-0.1-0.4,0-0.7,0"/>
			
				<path fill="none" stroke="#000000" stroke-width="0.535" stroke-linecap="round" stroke-linejoin="round" stroke-miterlimit="10" d="
				M69.3,80c-0.4,0.2-0.8,0.4-1.3,0.2c-0.3,0.2-0.7,0.3-1,0.5c-0.6,0.4-1.3,0.7-2.1,0.7c-0.3,0-0.5-0.1-0.8-0.1
				c-0.2-0.1-0.4-0.3-0.4-0.5"/>
			
				<path fill="none" stroke="#000000" stroke-width="0.535" stroke-linecap="round" stroke-linejoin="round" stroke-miterlimit="10" d="
				M27.3,55.9c0.1,0.2,0.2,0.3,0.4,0.5c0.6,0.7,0.7,1.6,0.6,2.6c0,0.4-0.2,0.9-0.4,1.3c0,0.1,0,0.2,0,0.3c0.2,0.5,0.4,1.1,0.7,1.6
				c0.1,0.3,0.2,0.6,0.1,1"/>
			
				<path fill="none" stroke="#000000" stroke-width="0.535" stroke-linecap="round" stroke-linejoin="round" stroke-miterlimit="10" d="
				M64.7,58.5c-0.6-0.4-1.2-0.9-1.9-1.1c-0.2-0.1-0.5-0.1-0.7-0.2c-0.6-0.2-1.2-0.1-1.8,0"/>
			
				<path fill="none" stroke="#000000" stroke-width="0.535" stroke-linecap="round" stroke-linejoin="round" stroke-miterlimit="10" d="
				M54.8,42.2c-0.3,0.6-0.7,1.1-1.3,1.4c-0.7,0.4-1.3,0.9-1.9,1.4c-0.3,0.2-0.5,0.4-0.8,0.5"/>
			
				<path fill="none" stroke="#000000" stroke-width="0.535" stroke-linecap="round" stroke-linejoin="round" stroke-miterlimit="10" d="
				M54.6,37.6c-0.3-0.8,0.2-1.4,0.5-2.1c0.1-0.3,0.4-0.2,0.7-0.2c0.3,0,0.5,0,0.8,0c0.6-0.1,1.1,0.1,1.6,0.3c0.1,0,0.2,0.1,0.2,0.2
				c0.3,1,0.8,1.9,1.3,2.7c0.3,0.5,0.4,1,0.4,1.5"/>
			
				<path fill="none" stroke="#000000" stroke-width="0.535" stroke-linecap="round" stroke-linejoin="round" stroke-miterlimit="10" d="
				M60.5,20.9c0.1,0.1,0.1,0.2,0.2,0.3c0.3,0.4,0.3,1.2-0.2,1.5c-0.4,0.3-0.5,0.6-0.5,1c0,0.6,0,1.2,0.1,1.8c0,1,0.6,1.6,1.4,2
				c0.3,0.2,0.7,0.4,1,0.6c0.2,0.1,0.3,0.3,0.2,0.5c0,0.3,0,0.6,0.1,0.9c0,0.1,0,0.2,0,0.3"/>
			
				<path fill="none" stroke="#000000" stroke-width="0.535" stroke-linecap="round" stroke-linejoin="round" stroke-miterlimit="10" d="
				M37.3,61.1c0.2,0.6,0.6,0.9,1.1,1.2c0.2,0.1,0.3,0.2,0.3,0.4c0.2,0.5,0.1,0.9-0.1,1.4c-0.3,0.5-0.3,1-0.2,1.5
				c0.1,0.6,0.1,1.3,0.2,1.9c0.2,0.6,0.5,1.1,0.7,1.7c0.3,0.6,0.5,1.2,0.8,1.8"/>
			
				<path fill="none" stroke="#000000" stroke-width="0.535" stroke-linecap="round" stroke-linejoin="round" stroke-miterlimit="10" d="
				M62.6,65.5c-0.9,0.3-1.5,0.8-2.2,1.5c-0.1,0.1-0.1,0.1-0.1,0.2c0.1,0.3,0.2,0.6,0.2,0.9c0,0.2,0,0.5-0.1,0.7
				c-0.2,0.6-0.6,1.1-1,1.6c-0.2,0.2-0.4,0.5-0.6,0.7c-0.2,0.2-0.2,0.3-0.1,0.5c0,0.1,0,0.3,0,0.5"/>
			
				<path fill="none" stroke="#000000" stroke-width="0.535" stroke-linecap="round" stroke-linejoin="round" stroke-miterlimit="10" d="
				M41.6,23c0.4-0.1,0.8,0.1,1.1,0.2c0.4,0.2,0.7,0.5,1.1,0.8c0.1,0,0.1,0.1,0.1,0.2c0.2,1.1,0.2,2.2-0.3,3.3
				c-0.2,0.3-0.3,0.6-0.7,0.7"/>
			
				<path fill="none" stroke="#000000" stroke-width="0.535" stroke-linecap="round" stroke-linejoin="round" stroke-miterlimit="10" d="
				M62.9,48c-0.1-0.3-0.1-0.7-0.5-0.9c-0.5-0.3-1-0.7-1.6-0.7c-0.4,0-0.9-0.1-1.3,0.1c-0.3,0.1-0.4,0.3-0.3,0.6
				c0.1,0.2,0.2,0.5,0.3,0.7c0.2,0.4,0.6,0.8,0.6,1.4"/>
			
				<path fill="none" stroke="#000000" stroke-width="0.535" stroke-linecap="round" stroke-linejoin="round" stroke-miterlimit="10" d="
				M44,73c-0.2,0.6-0.4,1.2-0.7,1.7c-0.3,0.7-0.4,1.5-0.2,2.3c0,0.1,0,0.2,0,0.2c-0.4,0.6-0.8,1.3-1.4,1.8c-0.6,0.5-1.3,0.8-1.9,1.1
				c-0.1,0.1-0.3,0-0.4-0.1c-0.1,0-0.3-0.1-0.4-0.2c-0.1,0-0.1-0.1-0.1-0.2c-0.1-0.4-0.2-0.8-0.3-1.2c0-0.2-0.2-0.3-0.4-0.3
				c-0.4,0-0.8,0-1.2-0.1c-0.7,0-1.3-0.1-2-0.2"/>
			
				<path fill="none" stroke="#000000" stroke-width="0.535" stroke-linecap="round" stroke-linejoin="round" stroke-miterlimit="10" d="
				M37,73.2c-0.2,0.7-0.7,0.9-1.3,1.1c-0.6,0.2-1.3,0.3-1.9,0.1c0,0-0.1,0-0.1,0c-0.6-0.1-0.7-0.2-1,0.4c-0.5,0.7-0.6,1.1-0.1,1.9
				c0.1,0.1,0.1,0.2,0.1,0.3"/>
			
				<path fill="none" stroke="#000000" stroke-width="0.535" stroke-linecap="round" stroke-linejoin="round" stroke-miterlimit="10" d="
				M48.9,75.4c0.1,0.4,0.3,0.8,0.4,1.2c0.1,0.4,0,0.8-0.2,1.1c-0.4,0.5-0.8,1-1.1,1.4c-0.1,0.1-0.1,0.2-0.1,0.3"/>
			
				<path fill="none" stroke="#000000" stroke-width="0.535" stroke-linecap="round" stroke-linejoin="round" stroke-miterlimit="10" d="
				M43.2,16.6c-0.1,0.1-0.3,0.1-0.4,0.2c-0.2,0.3-0.5,0.4-0.8,0.3c-0.2,0-0.4,0-0.5,0.2c-0.7,0.6-1.3,1.4-1.6,2.2
				c-0.2,0.5-0.4,1-0.5,1.4"/>
			
				<path fill="none" stroke="#000000" stroke-width="0.535" stroke-linecap="round" stroke-linejoin="round" stroke-miterlimit="10" d="
				M62.9,64.3c-0.2,0-0.2,0.1-0.2,0.2c0,0.2,0,0.4-0.1,0.6c-0.2,0.3,0.1,0.5,0.3,0.6c0.6,0.4,1.2,0.6,1.9,0.6c0.4,0,0.8-0.2,1.1-0.3
				c0.2-0.1,0.4-0.2,0.5-0.3"/>
			
				<path fill="none" stroke="#000000" stroke-width="0.535" stroke-linecap="round" stroke-linejoin="round" stroke-miterlimit="10" d="
				M23.4,62.8c-0.3-0.5-0.6-1.1-0.9-1.6c-0.1-0.2-0.4-0.2-0.5-0.3c-0.6-0.2-1.2-0.5-1.5-1.1c-0.2-0.3-0.5-0.7-0.7-1
				c-0.1-0.1-0.2-0.2-0.3-0.2c-0.8-0.1-0.9-0.7-1-1.3c-0.1-0.9,0-1.7,0.4-2.5c0.2-0.4,0.5-0.7,0.7-1.1"/>
			
				<path fill="none" stroke="#000000" stroke-width="0.535" stroke-linecap="round" stroke-linejoin="round" stroke-miterlimit="10" d="
				M60.9,14.2c-0.2,0.6,0.2,1,0.5,1.4c0.3,0.4,0.6,0.7,0.8,1.1c0.2,0.4,0.3,0.8,0.2,1.2c-0.1,0.3,0.2,0.5,0.3,0.7
				c0.2,0.2,0.4,0.4,0.6,0.7"/>
			
				<path fill="none" stroke="#000000" stroke-width="0.535" stroke-linecap="round" stroke-linejoin="round" stroke-miterlimit="10" d="
				M44.9,39.5c-0.2,0.4-0.4,0.8-0.5,1.3c-0.1,0.4,0,0.7,0.2,1.1c0.2,0.4,0.5,0.8,0.7,1.3c0.1,0.2,0,0.5,0,0.8
				c-0.2,0.7-0.3,1.5,0,2.2"/>
			
				<path fill="none" stroke="#000000" stroke-width="0.535" stroke-linecap="round" stroke-linejoin="round" stroke-miterlimit="10" d="
				M26.7,63.6c0.6,0,1.2-0.1,1.8-0.4c0.2-0.1,0.3,0,0.5,0.1c0.5,0.5,0.9,0.9,1.4,1.4c0.5,0.5,1,1,1.6,1.5c0.1,0.1,0.2,0.1,0.2,0.1
				c0.4,0,0.8-0.1,1.3-0.1"/>
			
				<path fill="none" stroke="#000000" stroke-width="0.535" stroke-linecap="round" stroke-linejoin="round" stroke-miterlimit="10" d="
				M41.1,74.5c-0.1,0.6-0.4,1.1-0.8,1.5c-0.5,0.5-0.9,1-1.3,1.5c-0.2,0.2-0.3,0.4-0.5,0.6"/>
			
				<path fill="none" stroke="#000000" stroke-width="0.535" stroke-linecap="round" stroke-linejoin="round" stroke-miterlimit="10" d="
				M40.2,22.9c-0.2-0.5-0.4-1-0.5-1.4c0,0,0,0,0,0c-0.2-0.5-0.4-0.6-0.9-0.4c-0.5,0.2-1,0.4-1.5,0.6c-0.4,0.1-0.8,0.2-1.2,0.3
				c-0.2,0-0.4,0.1-0.5,0.3c-0.2,0.3-0.5,0.5-0.8,0.7C34.6,23,34.4,23,34.3,23"/>
			
				<path fill="none" stroke="#000000" stroke-width="0.535" stroke-linecap="round" stroke-linejoin="round" stroke-miterlimit="10" d="
				M53.9,50.2c-0.3-0.1-0.5,0.2-0.6,0.4c-0.4,0.4-0.8,0.9-1.2,1.3c-0.3,0.4-0.7,0.7-1.3,0.8"/>
			
				<path fill="none" stroke="#000000" stroke-width="0.535" stroke-linecap="round" stroke-linejoin="round" stroke-miterlimit="10" d="
				M35.7,33c0,0.3,0,0.7,0,1c0,0.4,0.2,0.7,0.4,1c0.2,0.2,0.4,0.4,0.6,0.7c0.2,0.2,0.4,0.5,0.4,0.8"/>
			
				<path fill="none" stroke="#000000" stroke-width="0.535" stroke-linecap="round" stroke-linejoin="round" stroke-miterlimit="10" d="
				M63.9,69.6c-0.4,0-0.7,0-1,0.4c-0.3,0.4-0.7,0.7-1,1.1c-0.4,0.5-0.7,1.1-0.5,1.8"/>
			
				<path fill="none" stroke="#000000" stroke-width="0.535" stroke-linecap="round" stroke-linejoin="round" stroke-miterlimit="10" d="
				M28.7,53.1c-1,0-1.9-0.3-2.6-0.9c-0.1-0.1-0.1-0.1-0.2-0.1c-0.2-0.1-0.4-0.2-0.5-0.3c-0.5-0.8-1.3-1.5-1.4-2.6c0-0.1,0-0.2,0-0.2
				c0.4-0.7,0.8-1.3,1.2-1.9c0.1-0.1,0.1-0.3,0.1-0.4"/>
			
				<path fill="none" stroke="#000000" stroke-width="0.535" stroke-linecap="round" stroke-linejoin="round" stroke-miterlimit="10" d="
				M32,66.3c-0.2,0.5-0.4,0.9-0.5,1.4c-0.2,0.7,0.1,1.3,0.3,1.9c0.2,0.4,0.3,0.8,0.1,1.3c-0.1,0.3-0.1,0.6,0.1,0.8
				c0.2,0.5,0.4,1,0.6,1.5c0.2,0.4,0.3,0.7,0.5,1.1"/>
			
				<path fill="none" stroke="#000000" stroke-width="0.535" stroke-linecap="round" stroke-linejoin="round" stroke-miterlimit="10" d="
				M54.4,14.5c0.7-0.2,1.4,0,2,0.3c0.3,0.1,0.3,0.5,0.5,0.7c0.1,0.2,0.1,0.4,0.3,0.6c0.5,0.5,0.6,1.1,0.6,1.7c0,0.1,0,0.2,0.1,0.3"
				/>
			
				<path fill="none" stroke="#000000" stroke-width="0.535" stroke-linecap="round" stroke-linejoin="round" stroke-miterlimit="10" d="
				M46.6,21.1c0.2-0.4,0.3-0.7,0.4-1.1c0-0.1,0-0.2-0.1-0.3c-0.5-0.4-1-0.8-1.5-1.1c-0.1,0-0.2-0.1-0.3,0c-0.9,0.3-1.8,0.7-2.4,1.5
				c-0.1,0.1-0.2,0.3-0.3,0.5"/>
			
				<path fill="none" stroke="#000000" stroke-width="0.535" stroke-linecap="round" stroke-linejoin="round" stroke-miterlimit="10" d="
				M32.1,52c0.2,0.9-0.2,1.6-0.7,2.3c-0.1,0.2-0.4,0.4-0.4,0.6c-0.1,0.3,0,0.6,0,0.8c0,0.1,0.1,0.1,0.1,0.2c0.3,0.4,0.3,0.8,0.1,1.3
				c-0.1,0.2-0.1,0.6,0,0.9c0,0.4,0,0.9,0.3,1.2c0,0,0,0.1,0,0.2"/>
			
				<path fill="none" stroke="#000000" stroke-width="0.535" stroke-linecap="round" stroke-linejoin="round" stroke-miterlimit="10" d="
				M67.8,37.7c0.3,0.3,0.8,0.4,1.2,0.4c0.7,0,1.3,0.3,1.8,0.8"/>
			
				<path fill="none" stroke="#000000" stroke-width="0.535" stroke-linecap="round" stroke-linejoin="round" stroke-miterlimit="10" d="
				M25.1,72.9c0.6-0.2,1.2-0.4,1.9-0.7c0.3-0.1,0.6-0.1,0.9,0c0.8,0.2,1.5,0.5,2.2,1c0.1,0.1,0.3,0.2,0.4,0.3"/>
			
				<path fill="none" stroke="#000000" stroke-width="0.535" stroke-linecap="round" stroke-linejoin="round" stroke-miterlimit="10" d="
				M37.6,80.8c0.1,0.2,0.1,0.3,0.2,0.5c0,0.2,0.1,0.5,0,0.7c-0.1,0.4-0.3,0.7-0.4,1.1c-0.1,0.2-0.1,0.5-0.1,0.8"/>
			
				<path fill="none" stroke="#000000" stroke-width="0.535" stroke-linecap="round" stroke-linejoin="round" stroke-miterlimit="10" d="
				M53.3,28.3c0.6,0.4,1.3,0.6,2,0.8c0.3,0.1,0.7-0.1,1-0.1"/>
			
				<path fill="none" stroke="#000000" stroke-width="0.535" stroke-linecap="round" stroke-linejoin="round" stroke-miterlimit="10" d="
				M45.7,81.5c-0.4,0.6-0.6,1.3-0.6,2c0,0.3,0.1,0.6,0.1,0.9"/>
			
				<path fill="none" stroke="#000000" stroke-width="0.535" stroke-linecap="round" stroke-linejoin="round" stroke-miterlimit="10" d="
				M56.7,44.4c0,0.4,0.3,0.6,0.6,0.8c0.4,0.3,0.9,0.6,1.4,0.9c0.2,0.1,0.4,0.3,0.6,0.5"/>
			
				<path fill="none" stroke="#000000" stroke-width="0.535" stroke-linecap="round" stroke-linejoin="round" stroke-miterlimit="10" d="
				M45.2,15.6c0.1,0.7,0.1,1.5,0.2,2.2c0,0.2,0,0.4-0.1,0.7"/>
			
				<path fill="none" stroke="#000000" stroke-width="0.535" stroke-linecap="round" stroke-linejoin="round" stroke-miterlimit="10" d="
				M75,47.5c0.1,0.5,0.2,0.9,0.3,1.4c0,0.1,0,0.3,0.1,0.4c0.1,0.4,0.1,0.8,0.3,1.2c0,0.1,0,0.2,0,0.2"/>
			
				<path fill="none" stroke="#000000" stroke-width="0.535" stroke-linecap="round" stroke-linejoin="round" stroke-miterlimit="10" d="
				M43.8,79c0.5,0,0.7,0.4,1,0.7c0.4,0.4,0.7,1,0.9,1.6c0.1,0.2,0.3,0.3,0.5,0.2c0.5-0.1,1-0.2,1.4-0.4"/>
			
				<path fill="none" stroke="#000000" stroke-width="0.535" stroke-linecap="round" stroke-linejoin="round" stroke-miterlimit="10" d="
				M42.3,66.2c0-0.3,0.2-0.5,0.4-0.6c0.1-0.1,0.2-0.1,0.3,0.1c0.3,0.3,0.3,0.7,0.4,1c0.1,0.5,0.3,1,0.5,1.4c0,0.1,0,0.1,0.1,0.2"/>
			
				<path fill="none" stroke="#000000" stroke-width="0.535" stroke-linecap="round" stroke-linejoin="round" stroke-miterlimit="10" d="
				M50.1,47.1c-0.3,0-0.6-0.1-0.9-0.1c-0.4-0.1-0.8,0-1.2,0.2c-0.2,0.1-0.4,0.3-0.3,0.6"/>
			
				<path fill="none" stroke="#000000" stroke-width="0.535" stroke-linecap="round" stroke-linejoin="round" stroke-miterlimit="10" d="
				M57.4,26.5c-0.2,0.1-0.3,0.2-0.4,0.4c-0.3,0.5-0.4,1-0.6,1.5c-0.1,0.3-0.1,0.6,0.1,0.8c0.4,0.4,0.8,0.9,1.2,1.3
				c0.3,0.4,0.5,0.8,0.6,1.3"/>
			
				<path fill="none" stroke="#000000" stroke-width="0.535" stroke-linecap="round" stroke-linejoin="round" stroke-miterlimit="10" d="
				M50.2,27.7c-0.7,0-1.3,0.2-1.9,0.3c-0.3,0.1-0.6,0.1-0.8,0.1"/>
			
				<path fill="none" stroke="#000000" stroke-width="0.535" stroke-linecap="round" stroke-linejoin="round" stroke-miterlimit="10" d="
				M46.7,73.3c-0.1,0.3-0.1,0.6-0.3,0.8c-0.2,0.4-0.2,0.8,0.1,1.1c0.2,0.3,0.3,0.5,0.5,0.8"/>
			
				<path fill="none" stroke="#000000" stroke-width="0.535" stroke-linecap="round" stroke-linejoin="round" stroke-miterlimit="10" d="
				M66.7,25.3c0.7,0.6,1.5,1,2.4,1c0.1,0,0.2,0,0.2,0"/>
			
				<path fill="none" stroke="#000000" stroke-width="0.535" stroke-linecap="round" stroke-linejoin="round" stroke-miterlimit="10" d="
				M46.9,26.1c-0.1,0.5,0.1,1,0.3,1.4c0.3,0.5,0.2,0.9-0.1,1.3c-0.5,0.7-1,1.3-1.5,2c0,0.1,0,0.2-0.1,0.2"/>
			
				<path fill="none" stroke="#000000" stroke-width="0.535" stroke-linecap="round" stroke-linejoin="round" stroke-miterlimit="10" d="
				M29.4,46c-0.4,0.9-0.6,1.8-0.5,2.7"/>
			
				<path fill="none" stroke="#000000" stroke-width="0.535" stroke-linecap="round" stroke-linejoin="round" stroke-miterlimit="10" d="
				M76.9,62c-0.3,0.7-0.6,1.3-1,1.9c-0.2,0.2-0.2,0.5-0.4,0.8"/>
			
				<path fill="none" stroke="#000000" stroke-width="0.535" stroke-linecap="round" stroke-linejoin="round" stroke-miterlimit="10" d="
				M41.5,23.1c-0.1,0-0.1-0.1-0.2-0.1c-0.3,0-0.7,0-1,0c-0.1,0-0.2,0-0.2,0.1c-0.5,0.6-1,1.2-1.4,1.9c-0.1,0.2-0.1,0.5-0.4,0.5"/>
			
				<path fill="none" stroke="#000000" stroke-width="0.535" stroke-linecap="round" stroke-linejoin="round" stroke-miterlimit="10" d="
				M77.5,65.5c0.1,0.4-0.1,0.9-0.4,1.2c-0.3,0.4-0.5,0.8-0.5,1.4c0,0.6-0.3,1.2-0.7,1.7c-0.1,0.2-0.2,0.4-0.4,0.6"/>
			
				<path fill="none" stroke="#000000" stroke-width="0.535" stroke-linecap="round" stroke-linejoin="round" stroke-miterlimit="10" d="
				M62.9,81.7c-0.7,0.5-1.2,1.1-1.7,1.8c-0.1,0.2-0.2,0.4-0.3,0.6"/>
			
				<path fill="none" stroke="#000000" stroke-width="0.535" stroke-linecap="round" stroke-linejoin="round" stroke-miterlimit="10" d="
				M50.2,72c-0.7-0.1-1.2,0.3-1.8,0.4c-0.6,0.2-1,0.1-1.4-0.4c-0.1-0.1-0.2-0.3-0.4-0.5"/>
			
				<path fill="none" stroke="#000000" stroke-width="0.535" stroke-linecap="round" stroke-linejoin="round" stroke-miterlimit="10" d="
				M58.7,81.9c-0.5,0.3-0.8,0.7-1,1.2c-0.1,0.4-0.3,0.8-0.4,1.2"/>
			
				<path fill="none" stroke="#000000" stroke-width="0.535" stroke-linecap="round" stroke-linejoin="round" stroke-miterlimit="10" d="
				M29.4,50.6c0.2,0.7-0.1,1.3-0.4,1.9c0,0.1-0.1,0.2-0.1,0.3c-0.2,0.2-0.1,0.4,0.1,0.6c0.5,0.5,1,0.9,1.6,1.4
				c0.1,0.1,0.2,0.1,0.3,0.1"/>
			
				<path fill="none" stroke="#000000" stroke-width="0.535" stroke-linecap="round" stroke-linejoin="round" stroke-miterlimit="10" d="
				M79.8,44.9c-0.7,0.4-1.2,1.1-1.6,1.8c-0.1,0.1-0.2,0.3-0.2,0.4"/>
			
				<path fill="none" stroke="#000000" stroke-width="0.535" stroke-linecap="round" stroke-linejoin="round" stroke-miterlimit="10" d="
				M59,14.2c-0.5,0.1-1,0.1-1.4,0.3c-0.3,0.2-0.6,0.3-0.9,0.4"/>
			
				<path fill="none" stroke="#000000" stroke-width="0.535" stroke-linecap="round" stroke-linejoin="round" stroke-miterlimit="10" d="
				M50.3,34.6c-0.5,0.1-1,0.3-1.4,0.6c-0.3,0.2-0.6,0.4-1,0.6"/>
			
				<path fill="none" stroke="#000000" stroke-width="0.535" stroke-linecap="round" stroke-linejoin="round" stroke-miterlimit="10" d="
				M42.6,14.8c0,0.1-0.1,0.2-0.1,0.2c-0.6,0.5-0.8,1.2-0.7,2"/>
			
				<path fill="none" stroke="#000000" stroke-width="0.535" stroke-linecap="round" stroke-linejoin="round" stroke-miterlimit="10" d="
				M29.7,69.9c0.3,0.7,1.3,1.4,2.1,1.4"/>
			
				<path fill="none" stroke="#000000" stroke-width="0.535" stroke-linecap="round" stroke-linejoin="round" stroke-miterlimit="10" d="
				M38,59.9c0.1,0.2,0.2,0.4,0.3,0.5c0.3,0.3,0.5,0.7,0.6,1.1c0.1,0.3,0,0.6-0.3,0.8"/>
			
				<path fill="none" stroke="#000000" stroke-width="0.535" stroke-linecap="round" stroke-linejoin="round" stroke-miterlimit="10" d="
				M58.2,53c0.4,0,0.8,0,1.2,0.1c0.2,0,0.5,0.1,0.7,0.2c0.1,0,0.1,0.1,0.1,0.2"/>
			
				<path fill="none" stroke="#000000" stroke-width="0.535" stroke-linecap="round" stroke-linejoin="round" stroke-miterlimit="10" d="
				M47.8,39.9c0,0.4,0.1,0.9,0.1,1.3c0,0.5-0.1,1-0.2,1.5"/>
			
				<path fill="none" stroke="#000000" stroke-width="0.535" stroke-linecap="round" stroke-linejoin="round" stroke-miterlimit="10" d="
				M25.4,51.9c-0.1,0.1-0.2,0.2-0.2,0.3c-0.3,0.4-0.2,1.1,0.2,1.3c0.2,0.1,0.2,0.2,0.2,0.4"/>
			
				<path fill="none" stroke="#000000" stroke-width="0.535" stroke-linecap="round" stroke-linejoin="round" stroke-miterlimit="10" d="
				M36.7,37.3c0.2,0,0.2-0.1,0.2-0.2c0.1-0.2,0.1-0.4,0.2-0.5c0.2-0.1,0.5,0.1,0.6,0.3c0.4,0.5,0.7,1.1,0.7,1.8"/>
			
				<path fill="none" stroke="#000000" stroke-width="0.535" stroke-linecap="round" stroke-linejoin="round" stroke-miterlimit="10" d="
				M41.1,82.4c0.5,0.4,0.6,0.9,0.6,1.5c0,0.2,0,0.4,0,0.6"/>
			
				<path fill="none" stroke="#000000" stroke-width="0.535" stroke-linecap="round" stroke-linejoin="round" stroke-miterlimit="10" d="
				M55.3,74.6c-0.2,0.6-0.7,0.9-1.1,1.4c-0.1,0.2-0.3,0.3-0.5,0.5c-0.1,0.1-0.1,0.2-0.1,0.2c0,0.4,0,0.9-0.1,1.3
				c0,0.2-0.2,0.4-0.2,0.7"/>
			
				<path fill="none" stroke="#000000" stroke-width="0.535" stroke-linecap="round" stroke-linejoin="round" stroke-miterlimit="10" d="
				M69.5,78.2c-0.2,0.4-0.5,0.7-0.9,0.9c-0.3,0.2-0.6,0.6-0.6,1"/>
			
				<path fill="none" stroke="#000000" stroke-width="0.535" stroke-linecap="round" stroke-linejoin="round" stroke-miterlimit="10" d="
				M32.5,43.2c-0.1,0.3-0.1,0.5-0.2,0.8c-0.1,0.5-0.3,1.1-0.4,1.6"/>
			
				<path fill="none" stroke="#000000" stroke-width="0.535" stroke-linecap="round" stroke-linejoin="round" stroke-miterlimit="10" d="
				M66.9,16.5c-0.1,0.3-0.1,0.6,0.1,0.8c0.1,0.2,0.1,0.5,0,0.7c-0.1,0.4-0.1,0.7,0.3,0.9c0.2,0.1,0.3,0.3,0.5,0.5"/>
			
				<path fill="none" stroke="#000000" stroke-width="0.535" stroke-linecap="round" stroke-linejoin="round" stroke-miterlimit="10" d="
				M46.6,14.2c-0.1,0.5,0.2,0.9,0.5,1.3c0.1,0.2,0.3,0.5,0.5,0.7c0,0.1,0,0.1,0,0.2"/>
			
				<path fill="none" stroke="#000000" stroke-width="0.535" stroke-linecap="round" stroke-linejoin="round" stroke-miterlimit="10" d="
				M40.4,44.7c0.5,0.3,0.7,0.8,0.9,1.3c0.1,0.2,0.2,0.5,0.3,0.7"/>
			
				<path fill="none" stroke="#000000" stroke-width="0.535" stroke-linecap="round" stroke-linejoin="round" stroke-miterlimit="10" d="
				M63,74.7c0.1,0.1,0.1,0.2,0.2,0.3c0.3,0.2,0.6,0.3,0.9,0.5c0.2,0.1,0.5,0.2,0.7,0.3"/>
			
				<path fill="none" stroke="#000000" stroke-width="0.535" stroke-linecap="round" stroke-linejoin="round" stroke-miterlimit="10" d="
				M57,18.8c0.3-0.2,0.5-0.4,0.8-0.6c0.1-0.1,0.2-0.1,0.3-0.1c0.6,0.1,1,0.4,1.5,0.7c0.1,0.1,0.2,0.1,0.3,0.2"/>
			
				<path fill="none" stroke="#000000" stroke-width="0.535" stroke-linecap="round" stroke-linejoin="round" stroke-miterlimit="10" d="
				M26.2,68.9c0.5,0.2,0.7,0.6,0.9,1.1c0.3,0.7,0.2,1.4,0.3,2"/>
			
				<path fill="none" stroke="#000000" stroke-width="0.535" stroke-linecap="round" stroke-linejoin="round" stroke-miterlimit="10" d="
				M37.2,47.3c0.2,1,0,1.9-0.5,2.8"/>
			
				<path fill="none" stroke="#000000" stroke-width="0.535" stroke-linecap="round" stroke-linejoin="round" stroke-miterlimit="10" d="
				M76.6,67.5c-0.2,0-0.4,0-0.6,0.2c-0.3,0.3-0.6,0.5-0.9,0.8C75,68.5,75,68.6,75,68.7"/>
			
				<path fill="none" stroke="#000000" stroke-width="0.535" stroke-linecap="round" stroke-linejoin="round" stroke-miterlimit="10" d="
				M75.8,54.3c0.4,0.6,0.8,1.3,1.2,1.9"/>
			
				<path fill="none" stroke="#000000" stroke-width="0.535" stroke-linecap="round" stroke-linejoin="round" stroke-miterlimit="10" d="
				M46,22.5c-0.2,0.1-0.5,0.1-0.7,0.2c-0.4,0.2-0.7,0.6-1,0.9c-0.2,0.2-0.3,0.3-0.5,0.4"/>
			
				<path fill="none" stroke="#000000" stroke-width="0.535" stroke-linecap="round" stroke-linejoin="round" stroke-miterlimit="10" d="
				M53.9,33.5c0.5,0.5,1,1.1,1.3,1.8"/>
			
				<path fill="none" stroke="#000000" stroke-width="0.535" stroke-linecap="round" stroke-linejoin="round" stroke-miterlimit="10" d="
				M38,55.5c-0.1,0.6-0.1,1.2-0.2,1.8"/>
			
				<path fill="none" stroke="#000000" stroke-width="0.535" stroke-linecap="round" stroke-linejoin="round" stroke-miterlimit="10" d="
				M68.5,20.6c0.2,0.3,0.4,0.7,0.7,1c0.2,0.2,0.4,0.4,0.6,0.5"/>
			
				<path fill="none" stroke="#000000" stroke-width="0.535" stroke-linecap="round" stroke-linejoin="round" stroke-miterlimit="10" d="
				M68.4,51c0.5,0.5,0.7,1,0.6,1.7"/>
			
				<path fill="none" stroke="#000000" stroke-width="0.535" stroke-linecap="round" stroke-linejoin="round" stroke-miterlimit="10" d="
				M23.8,48.9c-0.5,0-1.1,0-1.6,0"/>
			
				<path fill="none" stroke="#000000" stroke-width="0.535" stroke-linecap="round" stroke-linejoin="round" stroke-miterlimit="10" d="
				M23.5,59.6c-0.4,0.5-0.7,0.9-1.1,1.4"/>
			
				<path fill="none" stroke="#000000" stroke-width="0.535" stroke-linecap="round" stroke-linejoin="round" stroke-miterlimit="10" d="
				M52.3,75.4c0.2,0.5,0.6,0.7,1,0.9c0.1,0.1,0.2,0.1,0.3,0.2"/>
			
				<path fill="none" stroke="#000000" stroke-width="0.535" stroke-linecap="round" stroke-linejoin="round" stroke-miterlimit="10" d="
				M54.6,20.2c-0.2-0.3-0.4-0.3-0.6-0.1c-0.2,0.4-0.4,0.9-0.6,1.3"/>
			
				<path fill="none" stroke="#000000" stroke-width="0.535" stroke-linecap="round" stroke-linejoin="round" stroke-miterlimit="10" d="
				M44,58.7c-0.2,0.2-0.3,0.4-0.5,0.5c-0.3,0.3-0.6,0.5-0.9,0.8"/>
			
				<path fill="none" stroke="#000000" stroke-width="0.535" stroke-linecap="round" stroke-linejoin="round" stroke-miterlimit="10" d="
				M58.6,71.4c-0.5-0.1-0.9,0-1.4,0.2c0,0-0.1,0-0.1,0"/>
			
				<path fill="none" stroke="#000000" stroke-width="0.535" stroke-linecap="round" stroke-linejoin="round" stroke-miterlimit="10" d="
				M39.7,80.1c0.1,0.4,0.2,0.7,0.3,1.1c0,0.1,0,0.2,0,0.3"/>
			
				<path fill="none" stroke="#000000" stroke-width="0.535" stroke-linecap="round" stroke-linejoin="round" stroke-miterlimit="10" d="
				M63.5,34.5c0.2,0.5,0.6,0.8,1,1.1"/>
			
				<path fill="none" stroke="#000000" stroke-width="0.535" stroke-linecap="round" stroke-linejoin="round" stroke-miterlimit="10" d="
				M80.5,49.6c-0.4,0.2-0.7,0.4-1.1,0.5c-0.2,0.1-0.4,0.1-0.6,0.1"/>
			
				<path fill="none" stroke="#000000" stroke-width="0.535" stroke-linecap="round" stroke-linejoin="round" stroke-miterlimit="10" d="
				M37.6,17.8c0.4,0.3,0.5,0.7,0.6,1.1"/>
			
				<path fill="none" stroke="#000000" stroke-width="0.535" stroke-linecap="round" stroke-linejoin="round" stroke-miterlimit="10" d="
				M53.9,18.7c0.1,0.4,0.2,0.8,0.3,1.3"/>
			
				<path fill="none" stroke="#000000" stroke-width="0.535" stroke-linecap="round" stroke-linejoin="round" stroke-miterlimit="10" d="
				M55.8,40.9c0,0.6-0.2,1-0.8,1.2c-0.1,0.1-0.2,0.1-0.4-0.1c-0.1-0.1-0.3-0.2-0.4-0.4C54,41.5,54,41.4,54,41.1"/>
			
				<path fill="none" stroke="#000000" stroke-width="0.535" stroke-linecap="round" stroke-linejoin="round" stroke-miterlimit="10" d="
				M69.4,59.2c0,0.5,0.1,1,0.3,1.4"/>
			
				<path fill="none" stroke="#000000" stroke-width="0.535" stroke-linecap="round" stroke-linejoin="round" stroke-miterlimit="10" d="
				M21,61.6c0,0.1,0,0.1,0,0.2c0.3,0.5,0,0.9-0.3,1.3c0,0-0.1,0.1-0.2,0.1c-0.2,0-0.4,0-0.7,0"/>
			
				<path fill="none" stroke="#000000" stroke-width="0.535" stroke-linecap="round" stroke-linejoin="round" stroke-miterlimit="10" d="
				M50.2,43.9c0.2,0,0.5,0,0.7,0"/>
			
				<path fill="none" stroke="#000000" stroke-width="0.535" stroke-linecap="round" stroke-linejoin="round" stroke-miterlimit="10" d="
				M67,60.9c0.1,0.4,0.2,0.7,0.3,1.1"/>
		</g>
		<g>
			<polygon points="50,95.5 50.9,95.5 50.9,99.9 50.1,99.9 50,95.5 			"/>
			<polygon points="47.8,99.9 47.9,95.5 48.8,95.5 48.6,99.9 47.8,99.9 			"/>
			<polygon points="52.2,95.5 53,95.4 53.3,99.8 52.4,99.9 52.2,95.5 			"/>
			<polygon points="45.5,99.7 45.8,95.3 46.6,95.4 46.3,99.8 45.5,99.7 			"/>
			<polygon points="54.3,95.3 55.1,95.2 55.6,99.6 54.7,99.7 54.3,95.3 			"/>
			<polygon points="43.1,99.5 43.7,95.1 44.5,95.2 43.9,99.6 43.1,99.5 			"/>
			<polygon points="56.4,95.1 57.2,94.9 57.9,99.3 57.1,99.4 56.4,95.1 			"/>
			<polygon points="40.8,99.1 41.6,94.7 42.4,94.9 41.6,99.2 40.8,99.1 			"/>
			<polygon points="58.5,94.7 59.3,94.6 60.2,98.9 59.4,99.1 58.5,94.7 			"/>
			<polygon points="38.6,98.6 39.5,94.3 40.3,94.5 39.4,98.8 38.6,98.6 			"/>
			<polygon points="60.6,94.3 61.4,94.1 62.5,98.4 61.6,98.6 60.6,94.3 			"/>
			<polygon points="36.3,98 37.5,93.8 38.3,94 37.1,98.3 36.3,98 			"/>
			<polygon points="62.6,93.7 63.4,93.5 64.7,97.7 63.9,98 62.6,93.7 			"/>
			<polygon points="34.1,97.4 35.4,93.1 36.2,93.4 34.8,97.6 34.1,97.4 			"/>
			<polygon points="64.7,93.1 65.4,92.8 66.9,97 66.1,97.3 64.7,93.1 			"/>
			<polygon points="31.9,96.6 33.5,92.4 34.2,92.7 32.6,96.9 31.9,96.6 			"/>
			<polygon points="66.6,92.4 67.4,92.1 69.1,96.2 68.3,96.5 66.6,92.4 			"/>
			<polygon points="29.7,95.7 31.5,91.6 32.2,91.9 30.5,96 29.7,95.7 			"/>
			<polygon points="68.6,91.5 69.3,91.2 71.2,95.2 70.4,95.6 68.6,91.5 			"/>
			<polygon points="27.6,94.7 29.6,90.7 30.3,91.1 28.4,95 27.6,94.7 			"/>
			<polygon points="70.5,90.6 71.2,90.2 73.3,94.2 72.5,94.6 70.5,90.6 			"/>
			<polygon points="25.6,93.6 27.7,89.7 28.4,90.1 26.3,94 25.6,93.6 			"/>
			<polygon points="72.4,89.6 73.1,89.2 75.3,93 74.6,93.5 72.4,89.6 			"/>
			<polygon points="23.5,92.4 25.9,88.6 26.6,89.1 24.3,92.8 23.5,92.4 			"/>
			<polygon points="74.2,88.5 74.9,88.1 77.3,91.8 76.6,92.3 74.2,88.5 			"/>
			<polygon points="21.6,91.1 24.1,87.5 24.8,87.9 22.3,91.6 21.6,91.1 			"/>
			<polygon points="76,87.4 76.7,86.9 79.2,90.5 78.5,91 76,87.4 			"/>
			<polygon points="19.7,89.7 22.4,86.2 23,86.7 20.4,90.2 19.7,89.7 			"/>
			<polygon points="77.7,86.1 78.4,85.6 81.1,89.1 80.4,89.6 77.7,86.1 			"/>
			<polygon points="17.9,88.3 20.7,84.9 21.3,85.4 18.6,88.8 17.9,88.3 			"/>
			<polygon points="79.4,84.8 80,84.2 82.9,87.6 82.2,88.1 79.4,84.8 			"/>
			<polygon points="16.2,86.8 19.1,83.5 19.7,84 16.8,87.3 16.2,86.8 			"/>
			<polygon points="80.9,83.4 81.5,82.8 84.6,86 84,86.6 80.9,83.4 			"/>
			<polygon points="14.5,85.1 17.6,82 18.2,82.6 15.1,85.7 14.5,85.1 			"/>
			<polygon points="82.5,81.9 83,81.3 86.2,84.4 85.6,85 82.5,81.9 			"/>
			<polygon points="12.9,83.4 16.1,80.5 16.7,81.1 13.4,84.1 12.9,83.4 			"/>
			<polygon points="83.9,80.4 84.5,79.7 87.8,82.6 87.2,83.3 83.9,80.4 			"/>
			<polygon points="11.4,81.7 14.8,78.8 15.3,79.5 11.9,82.3 11.4,81.7 			"/>
			<polygon points="85.3,78.7 85.8,78.1 89.3,80.8 88.8,81.5 85.3,78.7 			"/>
			<polygon points="9.9,79.8 13.4,77.2 13.9,77.8 10.4,80.5 9.9,79.8 			"/>
			<polygon points="86.6,77.1 87.1,76.4 90.7,79 90.2,79.7 86.6,77.1 			"/>
			<polygon points="8.6,77.9 12.2,75.4 12.7,76.1 9,78.6 8.6,77.9 			"/>
			<polygon points="87.8,75.3 88.3,74.6 92,77.1 91.5,77.8 87.8,75.3 			"/>
			<polygon points="7.3,76 11.1,73.7 11.5,74.4 7.7,76.7 7.3,76 			"/>
			<polygon points="89,73.5 89.4,72.8 93.2,75.1 92.8,75.8 89,73.5 			"/>
			<polygon points="6.1,74 10,71.8 10.4,72.5 6.5,74.7 6.1,74 			"/>
			<polygon points="90,71.7 90.4,71 94.3,73 93.9,73.8 90,71.7 			"/>
			<polygon points="5.1,71.9 9,69.9 9.4,70.7 5.4,72.7 5.1,71.9 			"/>
			<polygon points="91,69.8 91.3,69.1 95.3,71 95,71.7 91,69.8 			"/>
			<polygon points="4.1,69.8 8.1,68 8.5,68.8 4.4,70.6 4.1,69.8 			"/>
			<polygon points="91.9,67.9 92.2,67.1 96.3,68.8 96,69.6 91.9,67.9 			"/>
			<polygon points="3.2,67.6 7.3,66 7.6,66.8 3.5,68.4 3.2,67.6 			"/>
			<polygon points="92.7,65.9 92.9,65.1 97.1,66.6 96.8,67.4 92.7,65.9 			"/>
			<polygon points="2.4,65.4 6.6,64 6.9,64.8 2.7,66.2 2.4,65.4 			"/>
			<polygon points="93.4,63.9 93.6,63.1 97.8,64.4 97.6,65.2 93.4,63.9 			"/>
			<polygon points="1.8,63.2 6,62 6.3,62.8 2,64 1.8,63.2 			"/>
			<polygon points="94,61.9 94.2,61.1 98.4,62.2 98.2,63 94,61.9 			"/>
			<polygon points="1.2,60.9 5.5,59.9 5.7,60.8 1.4,61.7 1.2,60.9 			"/>
			<polygon points="94.5,59.8 94.6,59 99,59.9 98.8,60.7 94.5,59.8 			"/>
			<polygon points="0.8,58.7 5.1,57.8 5.3,58.7 0.9,59.5 0.8,58.7 			"/>
			<polygon points="94.9,57.7 95,56.9 99.4,57.6 99.2,58.4 94.9,57.7 			"/>
			<polygon points="0.4,56.4 4.8,55.8 4.9,56.6 0.5,57.2 0.4,56.4 			"/>
			<polygon points="95.2,55.7 95.3,54.9 99.7,55.4 99.6,56.2 95.2,55.7 			"/>
			<polygon points="0.2,54 4.6,53.7 4.6,54.5 0.2,54.9 0.2,54 			"/>
			<polygon points="95.4,53.7 95.4,52.9 99.9,53.2 99.8,54 95.4,53.7 			"/>
			<polygon points="0,51.7 4.4,51.5 4.5,52.3 0.1,52.6 0,51.7 			"/>
			<polygon points="95.5,51.7 95.5,50.9 99.9,51.1 99.9,51.9 95.5,51.7 			"/>
			<polygon points="0,50.2 0,49.4 4.4,49.4 4.4,50.2 0,50.2 			"/>
			<polygon points="95.5,48.9 99.9,48.8 100,49.6 95.5,49.7 95.5,48.9 			"/>
			<polygon points="0,47.9 0.1,47 4.5,47.3 4.5,48.1 0,47.9 			"/>
			<polygon points="95.4,46.8 99.8,46.5 99.9,47.3 95.5,47.6 95.4,46.8 			"/>
			<polygon points="0.2,45.6 0.3,44.7 4.7,45.1 4.6,46 0.2,45.6 			"/>
			<polygon points="95.2,44.6 99.6,44.2 99.7,45 95.3,45.4 95.2,44.6 			"/>
			<polygon points="0.4,43.2 0.6,42.4 5,43.1 4.8,43.9 0.4,43.2 			"/>
			<polygon points="94.9,42.5 99.3,41.9 99.4,42.7 95.1,43.3 94.9,42.5 			"/>
			<polygon points="0.8,40.9 1,40.1 5.3,41 5.2,41.8 0.8,40.9 			"/>
			<polygon points="94.5,40.4 98.9,39.6 99,40.4 94.7,41.3 94.5,40.4 			"/>
			<polygon points="1.3,38.7 1.5,37.9 5.8,38.9 5.6,39.7 1.3,38.7 			"/>
			<polygon points="94,38.4 98.3,37.3 98.5,38.1 94.3,39.2 94,38.4 			"/>
			<polygon points="1.9,36.4 2.1,35.6 6.3,36.8 6.1,37.6 1.9,36.4 			"/>
			<polygon points="93.5,36.3 97.7,35 97.9,35.8 93.7,37.1 93.5,36.3 			"/>
			<polygon points="2.5,34.2 2.8,33.4 7,34.8 6.7,35.6 2.5,34.2 			"/>
			<polygon points="92.8,34.3 96.9,32.9 97.2,33.6 93,35.1 92.8,34.3 			"/>
			<polygon points="3.3,32 3.6,31.2 7.8,32.8 7.4,33.6 3.3,32 			"/>
			<polygon points="92,32.3 96.1,30.7 96.4,31.5 92.3,33.1 92,32.3 			"/>
			<polygon points="4.2,29.8 4.6,29.1 8.6,30.9 8.3,31.7 4.2,29.8 			"/>
			<polygon points="91.1,30.4 95.1,28.6 95.5,29.3 91.5,31.2 91.1,30.4 			"/>
			<polygon points="5.2,27.7 5.6,27 9.5,29 9.2,29.7 5.2,27.7 			"/>
			<polygon points="90.2,28.5 94.1,26.5 94.5,27.2 90.6,29.3 90.2,28.5 			"/>
			<polygon points="6.3,25.7 6.7,24.9 10.6,27.1 10.1,27.8 6.3,25.7 			"/>
			<polygon points="89.1,26.7 92.9,24.4 93.4,25.2 89.5,27.4 89.1,26.7 			"/>
			<polygon points="7.5,23.6 7.9,23 11.7,25.3 11.2,26 7.5,23.6 			"/>
			<polygon points="88,24.9 91.7,22.5 92.2,23.2 88.4,25.6 88,24.9 			"/>
			<polygon points="8.8,21.7 9.2,21 12.9,23.6 12.4,24.2 8.8,21.7 			"/>
			<polygon points="86.8,23.1 90.4,20.6 90.9,21.2 87.3,23.8 86.8,23.1 			"/>
			<polygon points="10.1,19.8 10.6,19.1 14.1,21.9 13.6,22.5 10.1,19.8 			"/>
			<polygon points="85.5,21.4 89,18.7 89.5,19.3 86,22.1 85.5,21.4 			"/>
			<polygon points="11.6,18 12.1,17.3 15.5,20.2 14.9,20.9 11.6,18 			"/>
			<polygon points="84.1,19.8 87.5,16.9 88,17.5 84.7,20.5 84.1,19.8 			"/>
			<polygon points="13.1,16.2 13.7,15.6 16.9,18.7 16.3,19.3 13.1,16.2 			"/>
			<polygon points="82.7,18.3 85.9,15.2 86.5,15.8 83.3,18.9 82.7,18.3 			"/>
			<polygon points="14.7,14.6 15.3,14 18.4,17.1 17.8,17.7 14.7,14.6 			"/>
			<polygon points="81.2,16.8 84.2,13.6 84.8,14.1 81.8,17.3 81.2,16.8 			"/>
			<polygon points="16.4,13 17,12.4 20,15.7 19.4,16.2 16.4,13 			"/>
			<polygon points="79.6,15.4 82.5,12 83.1,12.6 80.2,15.9 79.6,15.4 			"/>
			<polygon points="18.2,11.4 18.8,10.9 21.6,14.3 21,14.9 18.2,11.4 			"/>
			<polygon points="77.9,14 80.7,10.5 81.4,11.1 78.6,14.5 77.9,14 			"/>
			<polygon points="20,10 20.7,9.5 23.3,13.1 22.6,13.5 20,10 			"/>
			<polygon points="76.2,12.7 78.8,9.2 79.5,9.6 76.9,13.2 76.2,12.7 			"/>
			<polygon points="21.9,8.6 22.6,8.2 25,11.9 24.3,12.3 21.9,8.6 			"/>
			<polygon points="74.5,11.6 76.9,7.9 77.6,8.3 75.2,12 74.5,11.6 			"/>
			<polygon points="23.9,7.4 24.6,6.9 26.8,10.7 26.1,11.2 23.9,7.4 			"/>
			<polygon points="72.7,10.5 74.9,6.6 75.6,7.1 73.4,10.9 72.7,10.5 			"/>
			<polygon points="25.9,6.2 26.6,5.8 28.7,9.7 28,10.1 25.9,6.2 			"/>
			<polygon points="70.8,9.4 72.9,5.5 73.6,5.9 71.5,9.8 70.8,9.4 			"/>
			<polygon points="27.9,5.1 28.7,4.8 30.6,8.7 29.8,9.1 27.9,5.1 			"/>
			<polygon points="68.9,8.5 70.8,4.5 71.5,4.9 69.6,8.9 68.9,8.5 			"/>
			<polygon points="30,4.1 30.8,3.8 32.5,7.9 31.8,8.2 30,4.1 			"/>
			<polygon points="66.9,7.7 68.6,3.6 69.4,3.9 67.7,8 66.9,7.7 			"/>
			<polygon points="32.2,3.3 33,3 34.5,7.1 33.7,7.4 32.2,3.3 			"/>
			<polygon points="65,6.9 66.4,2.8 67.2,3 65.7,7.2 65,6.9 			"/>
			<polygon points="34.4,2.5 35.2,2.2 36.5,6.4 35.7,6.7 34.4,2.5 			"/>
			<polygon points="62.9,6.3 64.2,2.1 65,2.3 63.7,6.5 62.9,6.3 			"/>
			<polygon points="36.6,1.8 37.4,1.6 38.6,5.9 37.8,6.1 36.6,1.8 			"/>
			<polygon points="60.9,5.7 62,1.5 62.8,1.7 61.7,5.9 60.9,5.7 			"/>
			<polygon points="38.9,1.2 39.7,1.1 40.6,5.4 39.8,5.6 38.9,1.2 			"/>
			<polygon points="58.8,5.3 59.7,0.9 60.5,1.1 59.6,5.4 58.8,5.3 			"/>
			<polygon points="41.2,0.8 42,0.6 42.7,5 41.9,5.1 41.2,0.8 			"/>
			<polygon points="56.7,4.9 57.4,0.6 58.2,0.7 57.5,5 56.7,4.9 			"/>
			<polygon points="43.5,0.4 44.3,0.3 44.8,4.7 44,4.8 43.5,0.4 			"/>
			<polygon points="54.6,4.7 55.1,0.3 55.9,0.4 55.4,4.7 54.6,4.7 			"/>
			<polygon points="45.8,0.2 46.6,0.1 46.9,4.5 46.1,4.6 45.8,0.2 			"/>
			<polygon points="52.5,4.5 52.8,0.1 53.6,0.1 53.3,4.5 52.5,4.5 			"/>
			<polygon points="48.1,0 49,0 49.1,4.4 48.2,4.4 48.1,0 			"/>
			<polygon points="50.4,4.4 50.4,0 51.3,0 51.2,4.4 50.4,4.4 			"/>
		</g>
	</g>
</g>
</svg>
