<?xml version="1.0" encoding="utf-8"?>
<!-- Generator: Adobe Illustrator 18.0.0, SVG Export Plug-In . SVG Version: 6.00 Build 0)  -->
<!DOCTYPE svg PUBLIC "-//W3C//DTD SVG 1.1//EN" "http://www.w3.org/Graphics/SVG/1.1/DTD/svg11.dtd">
<svg version="1.1" id="Layer_1" xmlns="http://www.w3.org/2000/svg" xmlns:xlink="http://www.w3.org/1999/xlink" x="0px" y="0px"
	 viewBox="0 0 46.4 46.4" enable-background="new 0 0 46.4 46.4" xml:space="preserve">
<g>
	<g>
		<g>
			<path fill="#EFA865" d="M45.3,24.5C44.6,36.7,34.1,46,21.9,45.3C9.6,44.6,0.3,34.1,1.1,21.9C1.8,9.6,12.3,0.3,24.5,1.1
				c12.1,0.7,21.3,11,20.8,23"/>
		</g>
	</g>
	<g>
		<g>
			<polygon points="23.2,44.3 23.6,44.3 23.6,46.4 23.2,46.4 23.2,44.3 			"/>
			<polygon points="22.2,46.3 22.2,44.3 22.6,44.3 22.5,46.4 22.2,46.3 			"/>
			<polygon points="24.2,44.3 24.6,44.3 24.7,46.3 24.3,46.3 24.2,44.3 			"/>
			<polygon points="21.1,46.3 21.2,44.2 21.6,44.3 21.5,46.3 21.1,46.3 			"/>
			<polygon points="25.2,44.2 25.6,44.2 25.8,46.2 25.4,46.3 25.2,44.2 			"/>
			<polygon points="20,46.1 20.3,44.1 20.7,44.2 20.4,46.2 20,46.1 			"/>
			<polygon points="26.2,44.1 26.5,44 26.8,46.1 26.5,46.1 26.2,44.1 			"/>
			<polygon points="18.9,46 19.3,44 19.7,44 19.3,46 18.9,46 			"/>
			<polygon points="27.1,43.9 27.5,43.9 27.9,45.9 27.5,46 27.1,43.9 			"/>
			<polygon points="17.9,45.8 18.3,43.7 18.7,43.8 18.3,45.8 17.9,45.8 			"/>
			<polygon points="28.1,43.7 28.5,43.6 29,45.6 28.6,45.7 28.1,43.7 			"/>
			<polygon points="16.8,45.5 17.4,43.5 17.8,43.6 17.2,45.6 16.8,45.5 			"/>
			<polygon points="29.1,43.5 29.4,43.4 30,45.3 29.6,45.5 29.1,43.5 			"/>
			<polygon points="15.8,45.2 16.4,43.2 16.8,43.3 16.2,45.3 15.8,45.2 			"/>
			<polygon points="30,43.2 30.4,43.1 31,45 30.7,45.1 30,43.2 			"/>
			<polygon points="14.8,44.8 15.5,42.9 15.9,43 15.1,44.9 14.8,44.8 			"/>
			<polygon points="30.9,42.9 31.3,42.7 32,44.6 31.7,44.8 30.9,42.9 			"/>
			<polygon points="13.8,44.4 14.6,42.5 15,42.6 14.1,44.5 13.8,44.4 			"/>
			<polygon points="31.8,42.5 32.2,42.3 33,44.2 32.7,44.3 31.8,42.5 			"/>
			<polygon points="12.8,43.9 13.7,42.1 14.1,42.2 13.2,44.1 12.8,43.9 			"/>
			<polygon points="32.7,42 33.1,41.9 34,43.7 33.7,43.9 32.7,42 			"/>
			<polygon points="11.9,43.4 12.8,41.6 13.2,41.8 12.2,43.6 11.9,43.4 			"/>
			<polygon points="33.6,41.6 33.9,41.4 34.9,43.2 34.6,43.4 33.6,41.6 			"/>
			<polygon points="10.9,42.9 12,41.1 12.3,41.3 11.3,43.1 10.9,42.9 			"/>
			<polygon points="34.4,41.1 34.7,40.9 35.9,42.6 35.5,42.8 34.4,41.1 			"/>
			<polygon points="10,42.3 11.2,40.6 11.5,40.8 10.3,42.5 10,42.3 			"/>
			<polygon points="35.2,40.5 35.6,40.3 36.7,42 36.4,42.2 35.2,40.5 			"/>
			<polygon points="9.1,41.6 10.4,40 10.7,40.2 9.5,41.9 9.1,41.6 			"/>
			<polygon points="36,39.9 36.3,39.7 37.6,41.3 37.3,41.6 36,39.9 			"/>
			<polygon points="8.3,41 9.6,39.4 9.9,39.6 8.6,41.2 8.3,41 			"/>
			<polygon points="36.8,39.3 37.1,39.1 38.4,40.6 38.1,40.9 36.8,39.3 			"/>
			<polygon points="7.5,40.2 8.9,38.7 9.2,39 7.8,40.5 7.5,40.2 			"/>
			<polygon points="37.5,38.7 37.8,38.4 39.2,39.9 39,40.2 37.5,38.7 			"/>
			<polygon points="6.7,39.5 8.2,38 8.4,38.3 7,39.8 6.7,39.5 			"/>
			<polygon points="38.3,38 38.5,37.7 40,39.1 39.7,39.4 38.3,38 			"/>
			<polygon points="6,38.7 7.5,37.3 7.7,37.6 6.2,39 6,38.7 			"/>
			<polygon points="38.9,37.3 39.2,37 40.7,38.3 40.5,38.6 38.9,37.3 			"/>
			<polygon points="5.3,37.9 6.8,36.6 7.1,36.9 5.5,38.2 5.3,37.9 			"/>
			<polygon points="39.6,36.5 39.8,36.2 41.4,37.5 41.2,37.8 39.6,36.5 			"/>
			<polygon points="4.6,37 6.2,35.8 6.5,36.1 4.8,37.3 4.6,37 			"/>
			<polygon points="40.2,35.8 40.4,35.4 42.1,36.6 41.8,37 40.2,35.8 			"/>
			<polygon points="4,36.2 5.7,35 5.9,35.3 4.2,36.5 4,36.2 			"/>
			<polygon points="40.7,34.9 41,34.6 42.7,35.8 42.5,36.1 40.7,34.9 			"/>
			<polygon points="3.4,35.2 5.1,34.2 5.3,34.5 3.6,35.6 3.4,35.2 			"/>
			<polygon points="41.3,34.1 41.5,33.8 43.2,34.8 43,35.2 41.3,34.1 			"/>
			<polygon points="2.9,34.3 4.6,33.3 4.8,33.6 3,34.7 2.9,34.3 			"/>
			<polygon points="41.8,33.3 41.9,32.9 43.8,33.9 43.6,34.2 41.8,33.3 			"/>
			<polygon points="2.4,33.4 4.2,32.4 4.4,32.8 2.5,33.7 2.4,33.4 			"/>
			<polygon points="42.2,32.4 42.4,32 44.2,32.9 44.1,33.3 42.2,32.4 			"/>
			<polygon points="1.9,32.4 3.8,31.5 3.9,31.9 2.1,32.7 1.9,32.4 			"/>
			<polygon points="42.6,31.5 42.8,31.1 44.7,31.9 44.5,32.3 42.6,31.5 			"/>
			<polygon points="1.5,31.4 3.4,30.6 3.5,31 1.6,31.7 1.5,31.4 			"/>
			<polygon points="43,30.6 43.1,30.2 45,30.9 44.9,31.3 43,30.6 			"/>
			<polygon points="1.1,30.4 3.1,29.7 3.2,30.1 1.3,30.7 1.1,30.4 			"/>
			<polygon points="43.3,29.6 43.4,29.3 45.4,29.9 45.3,30.3 43.3,29.6 			"/>
			<polygon points="0.8,29.3 2.8,28.8 2.9,29.1 0.9,29.7 0.8,29.3 			"/>
			<polygon points="43.6,28.7 43.7,28.3 45.7,28.8 45.6,29.2 43.6,28.7 			"/>
			<polygon points="0.6,28.3 2.6,27.8 2.6,28.2 0.6,28.6 0.6,28.3 			"/>
			<polygon points="43.8,27.7 43.9,27.4 45.9,27.8 45.8,28.2 43.8,27.7 			"/>
			<polygon points="0.3,27.2 2.4,26.8 2.4,27.2 0.4,27.6 0.3,27.2 			"/>
			<polygon points="44,26.8 44.1,26.4 46.1,26.7 46,27.1 44,26.8 			"/>
			<polygon points="0.2,26.1 2.2,25.9 2.3,26.2 0.2,26.5 0.2,26.1 			"/>
			<polygon points="44.2,25.8 44.2,25.5 46.2,25.7 46.2,26.1 44.2,25.8 			"/>
			<polygon points="0.1,25.1 2.1,24.9 2.2,25.3 0.1,25.4 0.1,25.1 			"/>
			<polygon points="44.3,24.9 44.3,24.5 46.3,24.7 46.3,25.1 44.3,24.9 			"/>
			<polygon points="0,24 2.1,23.9 2.1,24.3 0,24.4 0,24 			"/>
			<polygon points="44.3,24 44.3,23.6 46.4,23.7 46.4,24.1 44.3,24 			"/>
			<polygon points="0,23.3 0,22.9 2.1,22.9 2.1,23.3 0,23.3 			"/>
			<polygon points="44.3,22.7 46.4,22.6 46.4,23 44.3,23.1 44.3,22.7 			"/>
			<polygon points="0,22.2 0,21.8 2.1,21.9 2.1,22.3 0,22.2 			"/>
			<polygon points="44.3,21.7 46.3,21.6 46.3,21.9 44.3,22.1 44.3,21.7 			"/>
			<polygon points="0.1,21.1 0.1,20.8 2.2,20.9 2.1,21.3 0.1,21.1 			"/>
			<polygon points="44.2,20.7 46.2,20.5 46.3,20.9 44.2,21.1 44.2,20.7 			"/>
			<polygon points="0.2,20.1 0.3,19.7 2.3,20 2.2,20.4 0.2,20.1 			"/>
			<polygon points="44,19.7 46.1,19.4 46.1,19.8 44.1,20.1 44,19.7 			"/>
			<polygon points="0.4,19 0.5,18.6 2.5,19 2.4,19.4 0.4,19 			"/>
			<polygon points="43.9,18.8 45.9,18.4 45.9,18.7 43.9,19.1 43.9,18.8 			"/>
			<polygon points="0.6,17.9 0.7,17.6 2.7,18 2.6,18.4 0.6,17.9 			"/>
			<polygon points="43.6,17.8 45.6,17.3 45.7,17.7 43.7,18.2 43.6,17.8 			"/>
			<polygon points="0.9,16.9 1,16.5 2.9,17.1 2.8,17.5 0.9,16.9 			"/>
			<polygon points="43.4,16.9 45.3,16.3 45.4,16.6 43.5,17.2 43.4,16.9 			"/>
			<polygon points="1.2,15.9 1.3,15.5 3.3,16.2 3.1,16.5 1.2,15.9 			"/>
			<polygon points="43,15.9 45,15.2 45.1,15.6 43.2,16.3 43,15.9 			"/>
			<polygon points="1.5,14.8 1.7,14.5 3.6,15.2 3.5,15.6 1.5,14.8 			"/>
			<polygon points="42.7,15 44.6,14.2 44.7,14.6 42.8,15.4 42.7,15 			"/>
			<polygon points="2,13.8 2.1,13.5 4,14.3 3.8,14.7 2,13.8 			"/>
			<polygon points="42.3,14.1 44.1,13.2 44.3,13.6 42.4,14.5 42.3,14.1 			"/>
			<polygon points="2.4,12.9 2.6,12.5 4.4,13.4 4.3,13.8 2.4,12.9 			"/>
			<polygon points="41.8,13.2 43.7,12.3 43.8,12.6 42,13.6 41.8,13.2 			"/>
			<polygon points="2.9,11.9 3.1,11.6 4.9,12.6 4.7,12.9 2.9,11.9 			"/>
			<polygon points="41.3,12.4 43.1,11.3 43.3,11.7 41.5,12.7 41.3,12.4 			"/>
			<polygon points="3.5,11 3.7,10.6 5.4,11.7 5.2,12.1 3.5,11 			"/>
			<polygon points="40.8,11.5 42.5,10.4 42.8,10.7 41,11.9 40.8,11.5 			"/>
			<polygon points="4.1,10.1 4.3,9.8 6,10.9 5.7,11.2 4.1,10.1 			"/>
			<polygon points="40.3,10.7 41.9,9.5 42.2,9.8 40.5,11 40.3,10.7 			"/>
			<polygon points="4.7,9.2 4.9,8.9 6.6,10.1 6.3,10.4 4.7,9.2 			"/>
			<polygon points="39.7,10 41.3,8.7 41.5,9 39.9,10.3 39.7,10 			"/>
			<polygon points="5.4,8.3 5.6,8 7.2,9.4 6.9,9.7 5.4,8.3 			"/>
			<polygon points="39,9.2 40.6,7.8 40.8,8.1 39.3,9.5 39,9.2 			"/>
			<polygon points="6.1,7.5 6.3,7.2 7.8,8.7 7.6,8.9 6.1,7.5 			"/>
			<polygon points="38.4,8.5 39.8,7.1 40.1,7.3 38.6,8.8 38.4,8.5 			"/>
			<polygon points="6.8,6.8 7.1,6.5 8.5,7.9 8.3,8.2 6.8,6.8 			"/>
			<polygon points="37.7,7.8 39.1,6.3 39.3,6.6 37.9,8 37.7,7.8 			"/>
			<polygon points="7.6,6 7.9,5.8 9.3,7.3 9,7.5 7.6,6 			"/>
			<polygon points="36.9,7.1 38.3,5.6 38.6,5.8 37.2,7.4 36.9,7.1 			"/>
			<polygon points="8.4,5.3 8.7,5.1 10,6.7 9.7,6.9 8.4,5.3 			"/>
			<polygon points="36.2,6.5 37.4,4.9 37.7,5.1 36.5,6.7 36.2,6.5 			"/>
			<polygon points="9.3,4.6 9.6,4.4 10.8,6.1 10.5,6.3 9.3,4.6 			"/>
			<polygon points="35.4,5.9 36.6,4.2 36.9,4.5 35.7,6.1 35.4,5.9 			"/>
			<polygon points="10.2,4 10.5,3.8 11.6,5.5 11.3,5.7 10.2,4 			"/>
			<polygon points="34.5,5.4 35.7,3.6 36,3.9 34.9,5.6 34.5,5.4 			"/>
			<polygon points="11.1,3.4 11.4,3.2 12.5,5 12.1,5.2 11.1,3.4 			"/>
			<polygon points="33.7,4.9 34.7,3.1 35.1,3.3 34,5 33.7,4.9 			"/>
			<polygon points="12,2.9 12.3,2.7 13.3,4.5 13,4.7 12,2.9 			"/>
			<polygon points="32.8,4.4 33.8,2.6 34.1,2.7 33.2,4.6 32.8,4.4 			"/>
			<polygon points="13,2.4 13.3,2.2 14.2,4.1 13.8,4.2 13,2.4 			"/>
			<polygon points="32,4 32.8,2.1 33.2,2.3 32.3,4.1 32,4 			"/>
			<polygon points="13.9,1.9 14.3,1.8 15.1,3.7 14.7,3.8 13.9,1.9 			"/>
			<polygon points="31.1,3.6 31.8,1.7 32.2,1.8 31.4,3.7 31.1,3.6 			"/>
			<polygon points="14.9,1.5 15.3,1.4 16,3.3 15.7,3.4 14.9,1.5 			"/>
			<polygon points="30.1,3.2 30.8,1.3 31.2,1.4 30.5,3.3 30.1,3.2 			"/>
			<polygon points="16,1.2 16.3,1 16.9,3 16.6,3.1 16,1.2 			"/>
			<polygon points="29.2,2.9 29.8,1 30.2,1.1 29.6,3 29.2,2.9 			"/>
			<polygon points="17,0.8 17.4,0.7 17.9,2.7 17.5,2.8 17,0.8 			"/>
			<polygon points="28.2,2.7 28.8,0.7 29.1,0.8 28.6,2.8 28.2,2.7 			"/>
			<polygon points="18,0.6 18.4,0.5 18.8,2.5 18.5,2.6 18,0.6 			"/>
			<polygon points="27.3,2.4 27.7,0.4 28.1,0.5 27.7,2.5 27.3,2.4 			"/>
			<polygon points="19.1,0.4 19.5,0.3 19.8,2.3 19.4,2.4 19.1,0.4 			"/>
			<polygon points="26.3,2.3 26.6,0.3 27,0.3 26.7,2.3 26.3,2.3 			"/>
			<polygon points="20.2,0.2 20.5,0.1 20.8,2.2 20.4,2.2 20.2,0.2 			"/>
			<polygon points="25.3,2.2 25.6,0.1 25.9,0.2 25.7,2.2 25.3,2.2 			"/>
			<polygon points="21.2,0.1 21.6,0 21.8,2.1 21.4,2.1 21.2,0.1 			"/>
			<polygon points="24.3,2.1 24.5,0 24.9,0.1 24.7,2.1 24.3,2.1 			"/>
			<polygon points="22.3,0 22.7,0 22.8,2.1 22.4,2.1 22.3,0 			"/>
			<polygon points="23.4,2.1 23.4,0 23.8,0 23.7,2.1 23.4,2.1 			"/>
		</g>
		<g>
			<g>
				<path fill="#FFFFFF" stroke="#000000" stroke-width="0.248" stroke-miterlimit="10" d="M35.1,20h-4.1c-0.3,0-0.5-0.2-0.5-0.5
					v-6.4c0-0.3,0.2-0.5,0.5-0.5h4.1c0.3,0,0.5,0.2,0.5,0.5v6.4C35.5,19.8,35.3,20,35.1,20z"/>
				<g>
					<path fill="none" stroke="#000000" stroke-width="0.248" stroke-miterlimit="10" d="M30.4,19.6c0,0.3,0.2,0.5,0.5,0.5h4.1
						c0.3,0,0.5-0.2,0.5-0.5v-0.4h-5.1V19.6z"/>
					<path fill="none" stroke="#000000" stroke-width="0.248" stroke-miterlimit="10" d="M35.1,12.7h-4.1c-0.3,0-0.5,0.2-0.5,0.5
						v0.3h5.1v-0.3C35.5,12.9,35.3,12.7,35.1,12.7z"/>
				</g>
			</g>
			<g>
				<path fill="#FFFFFF" stroke="#000000" stroke-width="0.248" stroke-miterlimit="10" d="M24.7,16.8c0.3,0,0.5,0,0.8,0
					c0.7,0.1,1.4,0.4,2,0.8c0.3,0.2,0.4,0.5,0.1,0.6c-0.1,0.1-0.3,0.1-0.4,0c-0.7-0.5-1.5-0.7-2.3-0.8c-0.7-0.1-1.3,0.1-1.9,0.4
					c-0.3,0.1-0.5,0.2-0.7,0.4c-0.2,0.1-0.4,0.1-0.5-0.1c-0.1-0.2,0-0.3,0.1-0.5C22.7,17.1,23.7,16.8,24.7,16.8z"/>
				<path fill="#FFFFFF" stroke="#000000" stroke-width="0.248" stroke-miterlimit="10" d="M24.5,18.4c0.7-0.1,1.4,0.1,1.9,0.5
					c0.3,0.2,0.3,0.4,0.1,0.5c-0.1,0.1-0.3,0-0.4,0c-0.8-0.4-1.6-0.5-2.4-0.2c-0.2,0.1-0.4,0.2-0.5,0.3c-0.2,0.1-0.3,0-0.4-0.1
					c-0.1-0.1-0.1-0.3,0-0.4c0.3-0.2,0.5-0.3,0.8-0.4C24,18.5,24.2,18.4,24.5,18.4z"/>
				<circle fill="#FFFFFF" stroke="#000000" stroke-width="0.248" stroke-miterlimit="10" cx="24.7" cy="20.6" r="0.5"/>
			</g>
			<g>
				<path fill="#FFFFFF" d="M9.7,30.3c0-4.8,2.7-6,2.7-6h7c0,0,2.7,1.3,2.7,6H9.7z"/>
				<polygon fill="#FFFFFF" points="15.5,19.9 12.6,14.5 9.2,18.7 12.6,22 				"/>
				<polygon fill="#FFFFFF" points="19.7,8.2 10.2,12.4 13.2,15.6 19.3,11.2 				"/>
				<circle fill="#FFFFFF" stroke="#000000" stroke-width="0.2482" stroke-miterlimit="10" cx="9.7" cy="15.6" r="3.1"/>
				<line fill="none" stroke="#000000" stroke-width="0.2482" stroke-miterlimit="10" x1="10.2" y1="12.4" x2="19.7" y2="8.2"/>
				<polygon fill="#FFFFFF" stroke="#000000" stroke-width="0.2482" stroke-miterlimit="10" points="11.8,23.3 13.8,26.8 13.8,26.8 
					17.8,26.8 17.8,26.8 19.8,23.3 17.8,19.9 13.8,19.9 13.8,19.9 				"/>
				<line fill="none" stroke="#000000" stroke-width="0.2482" stroke-miterlimit="10" x1="9.2" y1="18.7" x2="12.6" y2="22"/>
				<line fill="none" stroke="#000000" stroke-width="0.2482" stroke-miterlimit="10" x1="12.6" y1="14.5" x2="15.5" y2="19.9"/>
				<line fill="none" stroke="#000000" stroke-width="0.2482" stroke-miterlimit="10" x1="13.2" y1="15.6" x2="19.3" y2="11.2"/>
				<circle fill="none" stroke="#000000" stroke-width="0.2482" stroke-miterlimit="10" cx="15.8" cy="23.4" r="1.5"/>
				<path fill="#FFFFFF" stroke="#000000" stroke-width="0.2482" stroke-miterlimit="10" d="M30.3,32.1H6.8c-0.2,0-0.3-0.1-0.3-0.3
					v-1.1c0-0.2,0.1-0.3,0.3-0.3h23.5c0.1,0,0.1,0.1,0.1,0.1v1.4C30.5,32,30.4,32.1,30.3,32.1z"/>
				<path fill="none" stroke="#000000" stroke-width="0.2482" stroke-miterlimit="10" d="M9.7,30.3c0-4.8,2.7-6,2.7-6"/>
				<path fill="none" stroke="#000000" stroke-width="0.2482" stroke-miterlimit="10" d="M22,30.3c0-4.8-2.7-6-2.7-6"/>
				<path fill="#FFFFFF" stroke="#000000" stroke-width="0.2482" stroke-miterlimit="10" d="M20.9,12.9h1.8c0.5,0,0.9-0.2,1.1-0.6
					l0.9-1.6c0.2-0.4,0.2-0.9,0-1.3l-0.9-1.5c-0.2-0.4-0.7-0.6-1.1-0.6h-1.8c-0.5,0-0.9,0.2-1.1,0.6l-0.9,1.5
					c-0.2,0.4-0.2,0.9,0,1.3l0.9,1.6C20,12.6,20.4,12.9,20.9,12.9z"/>
				<path fill="#FFFFFF" stroke="#000000" stroke-width="0.2482" stroke-miterlimit="10" d="M24.2,11.7l-0.8-1.4
					c-0.2-0.4-0.7-0.5-1.1-0.3c-0.4,0.2-0.5,0.7-0.3,1.1l0.9,1.6l1,1.7c0.2,0.4,0.7,0.5,1.1,0.3c0.4-0.2,0.5-0.7,0.3-1.1L24.2,11.7"
					/>
			</g>
			<g>
				<path fill="#FFFFFF" stroke="#000000" stroke-width="0.2482" stroke-miterlimit="10" d="M36.9,32.6H23.5c-0.2,0-0.4,0-0.5-0.2
					c0-0.1,0-0.1,0-0.2v-8.2c0-0.3,0.2-0.5,0.5-0.5h13.4c0.3,0,0.5,0.2,0.5,0.5v8.2C37.3,32.6,37.1,32.6,36.9,32.6z"/>
				<path fill="#FFFFFF" stroke="#000000" stroke-width="0.2482" stroke-miterlimit="10" d="M37.3,32.8l0-0.3l0,0
					c-0.1,0.2-0.3,0.2-0.5,0.2l-13.4,0c-0.2,0-0.4,0-0.5-0.2l0,0.3l-1.6,2c0,0.9,0.9,1,0.9,1h16c0,0,0.8-0.1,0.8-1L37.3,32.8z"/>
				<line fill="#FFFFFF" stroke="#000000" stroke-width="0.2482" stroke-miterlimit="10" x1="21.3" y1="34.8" x2="39" y2="34.8"/>
			</g>
		</g>
	</g>
</g>
</svg>
