<?xml version="1.0" encoding="utf-8"?>
<!-- Generator: Adobe Illustrator 18.0.0, SVG Export Plug-In . SVG Version: 6.00 Build 0)  -->
<!DOCTYPE svg PUBLIC "-//W3C//DTD SVG 1.1//EN" "http://www.w3.org/Graphics/SVG/1.1/DTD/svg11.dtd">
<svg version="1.1" id="Layer_1" xmlns="http://www.w3.org/2000/svg" xmlns:xlink="http://www.w3.org/1999/xlink" x="0px" y="0px"
	 viewBox="0 0 100 99.9" enable-background="new 0 0 100 99.9" xml:space="preserve">
<g>
	<g>
		<g>
			<path fill="#669966" d="M97.7,52.8c-1.6,26.3-24.2,46.4-50.5,44.8C20.8,96.1,0.7,73.4,2.3,47.1C3.9,20.8,26.5,0.7,52.8,2.3
				c26,1.6,45.9,23.7,44.9,49.6"/>
		</g>
	</g>
	<g>
		<g>
			<path fill="#FFFFFF" stroke="#000000" stroke-width="0.535" stroke-miterlimit="10" d="M47.9,22.4c3.1,0,6.3,0,9.4,0
				c0,1.2,0,2.5,0,3.7h0.8c0,12.6,0,25.3,0,37.9h1.3c0,2.4,0,4.7,0,7l1,0c0,0.7,0,1.4,0,2.1c-8.8,0-17.6,0-26.5,0c0-0.7,0-1.4,0-2.1
				l1,0c0-2.3,0-4.7,0-7l1.4,0c0-12.6,0-25.3,0-37.9l0.8,0c0-1.2,0-2.5,0-3.7c3.2,0,6.3,0,9.4,0h0.3v-6.9l0.8,0v6.9H47.9z"/>
			<g>
				<path fill="#FFFFFF" stroke="#000000" stroke-width="0.535" stroke-miterlimit="10" d="M43.3,70.4c-0.5,0-1,0-1.5,0l0-8.3l1.5,0
					L43.3,70.4z"/>
				<path fill="#FFFFFF" stroke="#000000" stroke-width="0.535" stroke-miterlimit="10" d="M50,70.4c-0.5,0-4.9,0-5.4,0l0-8.3l5.4,0
					L50,70.4z"/>
				<path fill="#FFFFFF" stroke="#000000" stroke-width="0.535" stroke-miterlimit="10" d="M52.9,70.4c-0.5,0-1,0-1.5,0l0-8.3l1.5,0
					L52.9,70.4z"/>
				<path fill="#FFFFFF" stroke="#000000" stroke-width="0.535" stroke-miterlimit="10" d="M55.7,70.4c-0.5,0-1,0-1.5,0l0-8.3l1.5,0
					L55.7,70.4z"/>
				<path fill="#FFFFFF" stroke="#000000" stroke-width="0.535" stroke-miterlimit="10" d="M40.3,70.4c-0.5,0-1,0-1.5,0l0-8.3l1.5,0
					L40.3,70.4z"/>
				<g>
					
						<rect x="40.6" y="44.3" fill="#FFFFFF" stroke="#000000" stroke-width="0.535" stroke-miterlimit="10" width="0.8" height="6.9"/>
					
						<rect x="38.8" y="44.3" fill="#FFFFFF" stroke="#000000" stroke-width="0.535" stroke-miterlimit="10" width="0.8" height="6.9"/>
					
						<rect x="44.2" y="44.3" fill="#FFFFFF" stroke="#000000" stroke-width="0.535" stroke-miterlimit="10" width="0.8" height="6.9"/>
					
						<rect x="42.4" y="44.3" fill="#FFFFFF" stroke="#000000" stroke-width="0.535" stroke-miterlimit="10" width="0.8" height="6.9"/>
					
						<rect x="47.8" y="44.3" fill="#FFFFFF" stroke="#000000" stroke-width="0.535" stroke-miterlimit="10" width="0.8" height="6.9"/>
					
						<rect x="46" y="44.3" fill="#FFFFFF" stroke="#000000" stroke-width="0.535" stroke-miterlimit="10" width="0.8" height="6.9"/>
					
						<rect x="51.4" y="44.3" fill="#FFFFFF" stroke="#000000" stroke-width="0.535" stroke-miterlimit="10" width="0.8" height="6.9"/>
					
						<rect x="49.6" y="44.3" fill="#FFFFFF" stroke="#000000" stroke-width="0.535" stroke-miterlimit="10" width="0.8" height="6.9"/>
					
						<rect x="54.9" y="44.3" fill="#FFFFFF" stroke="#000000" stroke-width="0.535" stroke-miterlimit="10" width="0.8" height="6.9"/>
					
						<rect x="53.1" y="44.3" fill="#FFFFFF" stroke="#000000" stroke-width="0.535" stroke-miterlimit="10" width="0.8" height="6.9"/>
				</g>
				<g>
					
						<rect x="40.6" y="52.9" fill="#FFFFFF" stroke="#000000" stroke-width="0.535" stroke-miterlimit="10" width="0.8" height="6.9"/>
					
						<rect x="38.8" y="52.9" fill="#FFFFFF" stroke="#000000" stroke-width="0.535" stroke-miterlimit="10" width="0.8" height="6.9"/>
					
						<rect x="44.2" y="52.9" fill="#FFFFFF" stroke="#000000" stroke-width="0.535" stroke-miterlimit="10" width="0.8" height="6.9"/>
					
						<rect x="42.4" y="52.9" fill="#FFFFFF" stroke="#000000" stroke-width="0.535" stroke-miterlimit="10" width="0.8" height="6.9"/>
					
						<rect x="47.8" y="52.9" fill="#FFFFFF" stroke="#000000" stroke-width="0.535" stroke-miterlimit="10" width="0.8" height="6.9"/>
					
						<rect x="46" y="52.9" fill="#FFFFFF" stroke="#000000" stroke-width="0.535" stroke-miterlimit="10" width="0.8" height="6.9"/>
					
						<rect x="51.4" y="52.9" fill="#FFFFFF" stroke="#000000" stroke-width="0.535" stroke-miterlimit="10" width="0.8" height="6.9"/>
					
						<rect x="49.6" y="52.9" fill="#FFFFFF" stroke="#000000" stroke-width="0.535" stroke-miterlimit="10" width="0.8" height="6.9"/>
					
						<rect x="54.9" y="52.9" fill="#FFFFFF" stroke="#000000" stroke-width="0.535" stroke-miterlimit="10" width="0.8" height="6.9"/>
					
						<rect x="53.1" y="52.9" fill="#FFFFFF" stroke="#000000" stroke-width="0.535" stroke-miterlimit="10" width="0.8" height="6.9"/>
				</g>
				<g>
					
						<rect x="40.6" y="35.6" fill="#FFFFFF" stroke="#000000" stroke-width="0.535" stroke-miterlimit="10" width="0.8" height="6.9"/>
					
						<rect x="38.8" y="35.6" fill="#FFFFFF" stroke="#000000" stroke-width="0.535" stroke-miterlimit="10" width="0.8" height="6.9"/>
					
						<rect x="44.2" y="35.6" fill="#FFFFFF" stroke="#000000" stroke-width="0.535" stroke-miterlimit="10" width="0.8" height="6.9"/>
					
						<rect x="42.4" y="35.6" fill="#FFFFFF" stroke="#000000" stroke-width="0.535" stroke-miterlimit="10" width="0.8" height="6.9"/>
					
						<rect x="47.8" y="35.6" fill="#FFFFFF" stroke="#000000" stroke-width="0.535" stroke-miterlimit="10" width="0.8" height="6.9"/>
					
						<rect x="46" y="35.6" fill="#FFFFFF" stroke="#000000" stroke-width="0.535" stroke-miterlimit="10" width="0.8" height="6.9"/>
					
						<rect x="51.4" y="35.6" fill="#FFFFFF" stroke="#000000" stroke-width="0.535" stroke-miterlimit="10" width="0.8" height="6.9"/>
					
						<rect x="49.6" y="35.6" fill="#FFFFFF" stroke="#000000" stroke-width="0.535" stroke-miterlimit="10" width="0.8" height="6.9"/>
					
						<rect x="54.9" y="35.6" fill="#FFFFFF" stroke="#000000" stroke-width="0.535" stroke-miterlimit="10" width="0.8" height="6.9"/>
					
						<rect x="53.1" y="35.6" fill="#FFFFFF" stroke="#000000" stroke-width="0.535" stroke-miterlimit="10" width="0.8" height="6.9"/>
				</g>
				<rect x="40.6" y="27" fill="#FFFFFF" stroke="#000000" stroke-width="0.535" stroke-miterlimit="10" width="0.8" height="6.9"/>
				<rect x="38.8" y="27" fill="#FFFFFF" stroke="#000000" stroke-width="0.535" stroke-miterlimit="10" width="0.8" height="6.9"/>
				<rect x="44.2" y="27" fill="#FFFFFF" stroke="#000000" stroke-width="0.535" stroke-miterlimit="10" width="0.8" height="6.9"/>
				<rect x="42.4" y="27" fill="#FFFFFF" stroke="#000000" stroke-width="0.535" stroke-miterlimit="10" width="0.8" height="6.9"/>
				<rect x="47.8" y="27" fill="#FFFFFF" stroke="#000000" stroke-width="0.535" stroke-miterlimit="10" width="0.8" height="6.9"/>
				<rect x="46" y="27" fill="#FFFFFF" stroke="#000000" stroke-width="0.535" stroke-miterlimit="10" width="0.8" height="6.9"/>
				<rect x="51.4" y="27" fill="#FFFFFF" stroke="#000000" stroke-width="0.535" stroke-miterlimit="10" width="0.8" height="6.9"/>
				<rect x="49.6" y="27" fill="#FFFFFF" stroke="#000000" stroke-width="0.535" stroke-miterlimit="10" width="0.8" height="6.9"/>
				<rect x="54.9" y="27" fill="#FFFFFF" stroke="#000000" stroke-width="0.535" stroke-miterlimit="10" width="0.8" height="6.9"/>
				<rect x="53.1" y="27" fill="#FFFFFF" stroke="#000000" stroke-width="0.535" stroke-miterlimit="10" width="0.8" height="6.9"/>
			</g>
		</g>
		<g>
			<g>
				<path fill="#FFFFFF" d="M16.3,73.2c0-4.6,0-9.1,0-13.7c0.9,0,1.7,0,2.6,0c0-5.4,0-10.7,0-16.1c1.5,0,2.9,0,4.4,0
					c0.1-1,0.2-1.9,0.3-2.9c2,0,3.9,0,5.9,0c0.1,1,0.2,1.9,0.3,2.9c0.2,0,0.4,0,0.6,0c0-2.5,0-5,0-7.5c1.2,0,2.3,0,3.5,0
					c1.2-1.7,2.4-3.5,3.6-5.2c1.2,0,2.5,0,3.7,0c0,1.7,0,3.4,0,5.2c0.6,0,1.1,0,1.6,0c0,6,0,12,0,18c0.9,0,1.8,0,2.6,0
					c0,2.8,0,5.5,0,8.3c1.8,0,3.5,0,5.2,0c0,3.6,0,7.3,0,10.9C39.2,73.2,27.8,73.2,16.3,73.2z"/>
			</g>
			<g>
				<path fill="none" stroke="#000000" stroke-width="0.535" stroke-miterlimit="10" d="M16.3,73.2c0-4.6,0-9.1,0-13.7
					c0.9,0,1.7,0,2.6,0c0-5.4,0-10.7,0-16.1c1.5,0,2.9,0,4.4,0c0.1-1,0.2-1.9,0.3-2.9c2,0,3.9,0,5.9,0c0.1,1,0.2,1.9,0.3,2.9
					c0.2,0,0.4,0,0.6,0c0-2.5,0-5,0-7.5c1.2,0,2.3,0,3.5,0c1.2-1.7,2.4-3.5,3.6-5.2c1.2,0,2.5,0,3.7,0c0,1.7,0,3.4,0,5.2
					c0.6,0,1.1,0,1.6,0c0,6,0,12,0,18c0.9,0,1.8,0,2.6,0c0,2.8,0,5.5,0,8.3c1.8,0,3.5,0,5.2,0c0,3.6,0,7.3,0,10.9
					C39.2,73.2,27.8,73.2,16.3,73.2z"/>
			</g>
			<path fill="none" stroke="#000000" stroke-width="0.535" stroke-miterlimit="10" d="M21,64.3c0,0.8,0,1.5,0,2.3
				c0.6,0,1.1,0,1.6,0c0-0.8,0-1.5,0-2.3C22,64.3,21.5,64.3,21,64.3z"/>
			<path fill="none" stroke="#000000" stroke-width="0.535" stroke-miterlimit="10" d="M26.8,64.3c0,0.8,0,1.5,0,2.3
				c0.6,0,1.1,0,1.6,0c0-0.8,0-1.5,0-2.3C27.9,64.3,27.3,64.3,26.8,64.3z"/>
			<path fill="none" stroke="#000000" stroke-width="0.535" stroke-miterlimit="10" d="M23.9,64.3c0,0.8,0,1.5,0,2.3
				c0.6,0,1.1,0,1.6,0c0-0.8,0-1.5,0-2.3C24.9,64.3,24.4,64.3,23.9,64.3z"/>
			<path fill="none" stroke="#000000" stroke-width="0.535" stroke-miterlimit="10" d="M18,64.3c0,0.8,0,1.5,0,2.3
				c0.6,0,1.1,0,1.6,0c0-0.8,0-1.5,0-2.3C19,64.3,18.5,64.3,18,64.3z"/>
			<path fill="none" stroke="#000000" stroke-width="0.535" stroke-miterlimit="10" d="M32.7,64.3c0,0.8,0,1.5,0,2.3
				c0.6,0,1.1,0,1.6,0c0-0.8,0-1.5,0-2.3C33.7,64.3,33.2,64.3,32.7,64.3z"/>
			<path fill="none" stroke="#000000" stroke-width="0.535" stroke-miterlimit="10" d="M38.6,64.3c0,0.8,0,1.5,0,2.3
				c0.6,0,1.1,0,1.6,0c0-0.8,0-1.5,0-2.3C39.6,64.3,39.1,64.3,38.6,64.3z"/>
			<path fill="none" stroke="#000000" stroke-width="0.535" stroke-miterlimit="10" d="M35.6,64.3c0,0.8,0,1.5,0,2.3
				c0.6,0,1.1,0,1.6,0c0-0.8,0-1.5,0-2.3C36.7,64.3,36.2,64.3,35.6,64.3z"/>
			<path fill="none" stroke="#000000" stroke-width="0.535" stroke-miterlimit="10" d="M29.8,64.3c0,0.8,0,1.5,0,2.3
				c0.6,0,1.1,0,1.6,0c0-0.8,0-1.5,0-2.3C30.8,64.3,30.3,64.3,29.8,64.3z"/>
			<path fill="none" stroke="#000000" stroke-width="0.535" stroke-miterlimit="10" d="M44.5,64.3c0,0.8,0,1.5,0,2.3
				c0.6,0,1.1,0,1.6,0c0-0.8,0-1.5,0-2.3C45.5,64.3,45,64.3,44.5,64.3z"/>
			<path fill="none" stroke="#000000" stroke-width="0.535" stroke-miterlimit="10" d="M41.5,64.3c0,0.8,0,1.5,0,2.3
				c0.6,0,1.1,0,1.6,0c0-0.8,0-1.5,0-2.3C42.5,64.3,42,64.3,41.5,64.3z"/>
			<path fill="none" stroke="#000000" stroke-width="0.535" stroke-miterlimit="10" d="M21,68c0,0.8,0,1.5,0,2.3c0.6,0,1.1,0,1.6,0
				c0-0.8,0-1.5,0-2.3C22,68,21.5,68,21,68z"/>
			<path fill="none" stroke="#000000" stroke-width="0.535" stroke-miterlimit="10" d="M26.8,68c0,0.8,0,1.5,0,2.3
				c0.6,0,1.1,0,1.6,0c0-0.8,0-1.5,0-2.3C27.9,68,27.3,68,26.8,68z"/>
			<path fill="none" stroke="#000000" stroke-width="0.535" stroke-miterlimit="10" d="M23.9,68c0,0.8,0,1.5,0,2.3
				c0.6,0,1.1,0,1.6,0c0-0.8,0-1.5,0-2.3C24.9,68,24.4,68,23.9,68z"/>
			<path fill="none" stroke="#000000" stroke-width="0.535" stroke-miterlimit="10" d="M18,68c0,0.8,0,1.5,0,2.3c0.6,0,1.1,0,1.6,0
				c0-0.8,0-1.5,0-2.3C19,68,18.5,68,18,68z"/>
			<path fill="none" stroke="#000000" stroke-width="0.535" stroke-miterlimit="10" d="M32.7,68c0,0.8,0,1.5,0,2.3
				c0.6,0,1.1,0,1.6,0c0-0.8,0-1.5,0-2.3C33.7,68,33.2,68,32.7,68z"/>
			<path fill="none" stroke="#000000" stroke-width="0.535" stroke-miterlimit="10" d="M38.6,68c0,0.8,0,1.5,0,2.3
				c0.6,0,1.1,0,1.6,0c0-0.8,0-1.5,0-2.3C39.6,68,39.1,68,38.6,68z"/>
			<path fill="none" stroke="#000000" stroke-width="0.535" stroke-miterlimit="10" d="M35.6,68c0,0.8,0,1.5,0,2.3
				c0.6,0,1.1,0,1.6,0c0-0.8,0-1.5,0-2.3C36.7,68,36.2,68,35.6,68z"/>
			<path fill="none" stroke="#000000" stroke-width="0.535" stroke-miterlimit="10" d="M29.8,68c0,0.8,0,1.5,0,2.3
				c0.6,0,1.1,0,1.6,0c0-0.8,0-1.5,0-2.3C30.8,68,30.3,68,29.8,68z"/>
			<path fill="none" stroke="#000000" stroke-width="0.535" stroke-miterlimit="10" d="M44.5,68c0,0.8,0,1.5,0,2.3
				c0.6,0,1.1,0,1.6,0c0-0.8,0-1.5,0-2.3C45.5,68,45,68,44.5,68z"/>
			<path fill="none" stroke="#000000" stroke-width="0.535" stroke-miterlimit="10" d="M47.4,68c0,0.8,0,1.5,0,2.3
				c0.6,0,1.1,0,1.6,0c0-0.8,0-1.5,0-2.3C48.4,68,47.9,68,47.4,68z"/>
			<path fill="none" stroke="#000000" stroke-width="0.535" stroke-miterlimit="10" d="M41.5,68c0,0.8,0,1.5,0,2.3
				c0.6,0,1.1,0,1.6,0c0-0.8,0-1.5,0-2.3C42.5,68,42,68,41.5,68z"/>
			<path fill="none" stroke="#000000" stroke-width="0.535" stroke-miterlimit="10" d="M21,56.9c0,0.8,0,1.5,0,2.3
				c0.6,0,1.1,0,1.6,0c0-0.8,0-1.5,0-2.3C22,56.9,21.5,56.9,21,56.9z"/>
			<path fill="none" stroke="#000000" stroke-width="0.535" stroke-miterlimit="10" d="M26.8,56.9c0,0.8,0,1.5,0,2.3
				c0.6,0,1.1,0,1.6,0c0-0.8,0-1.5,0-2.3C27.9,56.9,27.3,56.9,26.8,56.9z"/>
			<path fill="none" stroke="#000000" stroke-width="0.535" stroke-miterlimit="10" d="M23.9,56.9c0,0.8,0,1.5,0,2.3
				c0.6,0,1.1,0,1.6,0c0-0.8,0-1.5,0-2.3C24.9,56.9,24.4,56.9,23.9,56.9z"/>
			<path fill="none" stroke="#000000" stroke-width="0.535" stroke-miterlimit="10" d="M32.7,56.9c0,0.8,0,1.5,0,2.3
				c0.6,0,1.1,0,1.6,0c0-0.8,0-1.5,0-2.3C33.7,56.9,33.2,56.9,32.7,56.9z"/>
			<path fill="none" stroke="#000000" stroke-width="0.535" stroke-miterlimit="10" d="M38.6,56.9c0,0.8,0,1.5,0,2.3
				c0.6,0,1.1,0,1.6,0c0-0.8,0-1.5,0-2.3C39.6,56.9,39.1,56.9,38.6,56.9z"/>
			<path fill="none" stroke="#000000" stroke-width="0.535" stroke-miterlimit="10" d="M35.6,56.9c0,0.8,0,1.5,0,2.3
				c0.6,0,1.1,0,1.6,0c0-0.8,0-1.5,0-2.3C36.7,56.9,36.2,56.9,35.6,56.9z"/>
			<path fill="none" stroke="#000000" stroke-width="0.535" stroke-miterlimit="10" d="M29.8,56.9c0,0.8,0,1.5,0,2.3
				c0.6,0,1.1,0,1.6,0c0-0.8,0-1.5,0-2.3C30.8,56.9,30.3,56.9,29.8,56.9z"/>
			<path fill="none" stroke="#000000" stroke-width="0.535" stroke-miterlimit="10" d="M41.5,56.9c0,0.8,0,1.5,0,2.3
				c0.6,0,1.1,0,1.6,0c0-0.8,0-1.5,0-2.3C42.5,56.9,42,56.9,41.5,56.9z"/>
			<path fill="none" stroke="#000000" stroke-width="0.535" stroke-miterlimit="10" d="M21,60.6c0,0.8,0,1.5,0,2.3
				c0.6,0,1.1,0,1.6,0c0-0.8,0-1.5,0-2.3C22,60.6,21.5,60.6,21,60.6z"/>
			<path fill="none" stroke="#000000" stroke-width="0.535" stroke-miterlimit="10" d="M26.8,60.6c0,0.8,0,1.5,0,2.3
				c0.6,0,1.1,0,1.6,0c0-0.8,0-1.5,0-2.3C27.9,60.6,27.3,60.6,26.8,60.6z"/>
			<path fill="none" stroke="#000000" stroke-width="0.535" stroke-miterlimit="10" d="M23.9,60.6c0,0.8,0,1.5,0,2.3
				c0.6,0,1.1,0,1.6,0c0-0.8,0-1.5,0-2.3C24.9,60.6,24.4,60.6,23.9,60.6z"/>
			<path fill="none" stroke="#000000" stroke-width="0.535" stroke-miterlimit="10" d="M32.7,60.6c0,0.8,0,1.5,0,2.3
				c0.6,0,1.1,0,1.6,0c0-0.8,0-1.5,0-2.3C33.7,60.6,33.2,60.6,32.7,60.6z"/>
			<path fill="none" stroke="#000000" stroke-width="0.535" stroke-miterlimit="10" d="M38.6,60.6c0,0.8,0,1.5,0,2.3
				c0.6,0,1.1,0,1.6,0c0-0.8,0-1.5,0-2.3C39.6,60.6,39.1,60.6,38.6,60.6z"/>
			<path fill="none" stroke="#000000" stroke-width="0.535" stroke-miterlimit="10" d="M35.6,60.6c0,0.8,0,1.5,0,2.3
				c0.6,0,1.1,0,1.6,0c0-0.8,0-1.5,0-2.3C36.7,60.6,36.2,60.6,35.6,60.6z"/>
			<path fill="none" stroke="#000000" stroke-width="0.535" stroke-miterlimit="10" d="M29.8,60.6c0,0.8,0,1.5,0,2.3
				c0.6,0,1.1,0,1.6,0c0-0.8,0-1.5,0-2.3C30.8,60.6,30.3,60.6,29.8,60.6z"/>
			<path fill="none" stroke="#000000" stroke-width="0.535" stroke-miterlimit="10" d="M41.5,60.6c0,0.8,0,1.5,0,2.3
				c0.6,0,1.1,0,1.6,0c0-0.8,0-1.5,0-2.3C42.5,60.6,42,60.6,41.5,60.6z"/>
			<path fill="none" stroke="#000000" stroke-width="0.535" stroke-miterlimit="10" d="M21,49.5c0,0.8,0,1.5,0,2.3
				c0.6,0,1.1,0,1.6,0c0-0.8,0-1.5,0-2.3C22,49.5,21.5,49.5,21,49.5z"/>
			<path fill="none" stroke="#000000" stroke-width="0.535" stroke-miterlimit="10" d="M26.8,49.5c0,0.8,0,1.5,0,2.3
				c0.6,0,1.1,0,1.6,0c0-0.8,0-1.5,0-2.3C27.9,49.5,27.3,49.5,26.8,49.5z"/>
			<path fill="none" stroke="#000000" stroke-width="0.535" stroke-miterlimit="10" d="M23.9,49.5c0,0.8,0,1.5,0,2.3
				c0.6,0,1.1,0,1.6,0c0-0.8,0-1.5,0-2.3C24.9,49.5,24.4,49.5,23.9,49.5z"/>
			<path fill="none" stroke="#000000" stroke-width="0.535" stroke-miterlimit="10" d="M32.7,49.5c0,0.8,0,1.5,0,2.3
				c0.6,0,1.1,0,1.6,0c0-0.8,0-1.5,0-2.3C33.7,49.5,33.2,49.5,32.7,49.5z"/>
			<path fill="none" stroke="#000000" stroke-width="0.535" stroke-miterlimit="10" d="M38.6,49.5c0,0.8,0,1.5,0,2.3
				c0.6,0,1.1,0,1.6,0c0-0.8,0-1.5,0-2.3C39.6,49.5,39.1,49.5,38.6,49.5z"/>
			<path fill="none" stroke="#000000" stroke-width="0.535" stroke-miterlimit="10" d="M35.6,49.5c0,0.8,0,1.5,0,2.3
				c0.6,0,1.1,0,1.6,0c0-0.8,0-1.5,0-2.3C36.7,49.5,36.2,49.5,35.6,49.5z"/>
			<path fill="none" stroke="#000000" stroke-width="0.535" stroke-miterlimit="10" d="M29.8,49.5c0,0.8,0,1.5,0,2.3
				c0.6,0,1.1,0,1.6,0c0-0.8,0-1.5,0-2.3C30.8,49.5,30.3,49.5,29.8,49.5z"/>
			<path fill="none" stroke="#000000" stroke-width="0.535" stroke-miterlimit="10" d="M21,53.2c0,0.8,0,1.5,0,2.3
				c0.6,0,1.1,0,1.6,0c0-0.8,0-1.5,0-2.3C22,53.2,21.5,53.2,21,53.2z"/>
			<path fill="none" stroke="#000000" stroke-width="0.535" stroke-miterlimit="10" d="M26.8,53.2c0,0.8,0,1.5,0,2.3
				c0.6,0,1.1,0,1.6,0c0-0.8,0-1.5,0-2.3C27.9,53.2,27.3,53.2,26.8,53.2z"/>
			<path fill="none" stroke="#000000" stroke-width="0.535" stroke-miterlimit="10" d="M23.9,53.2c0,0.8,0,1.5,0,2.3
				c0.6,0,1.1,0,1.6,0c0-0.8,0-1.5,0-2.3C24.9,53.2,24.4,53.2,23.9,53.2z"/>
			<path fill="none" stroke="#000000" stroke-width="0.535" stroke-miterlimit="10" d="M32.7,53.2c0,0.8,0,1.5,0,2.3
				c0.6,0,1.1,0,1.6,0c0-0.8,0-1.5,0-2.3C33.7,53.2,33.2,53.2,32.7,53.2z"/>
			<path fill="none" stroke="#000000" stroke-width="0.535" stroke-miterlimit="10" d="M38.6,53.2c0,0.8,0,1.5,0,2.3
				c0.6,0,1.1,0,1.6,0c0-0.8,0-1.5,0-2.3C39.6,53.2,39.1,53.2,38.6,53.2z"/>
			<path fill="none" stroke="#000000" stroke-width="0.535" stroke-miterlimit="10" d="M35.6,53.2c0,0.8,0,1.5,0,2.3
				c0.6,0,1.1,0,1.6,0c0-0.8,0-1.5,0-2.3C36.7,53.2,36.2,53.2,35.6,53.2z"/>
			<path fill="none" stroke="#000000" stroke-width="0.535" stroke-miterlimit="10" d="M29.8,53.2c0,0.8,0,1.5,0,2.3
				c0.6,0,1.1,0,1.6,0c0-0.8,0-1.5,0-2.3C30.8,53.2,30.3,53.2,29.8,53.2z"/>
			<path fill="none" stroke="#000000" stroke-width="0.535" stroke-miterlimit="10" d="M38.6,42.1c0,0.8,0,1.5,0,2.3
				c0.6,0,1.1,0,1.6,0c0-0.8,0-1.5,0-2.3C39.6,42.1,39.1,42.1,38.6,42.1z"/>
			<path fill="none" stroke="#000000" stroke-width="0.535" stroke-miterlimit="10" d="M35.6,42.1c0,0.8,0,1.5,0,2.3
				c0.6,0,1.1,0,1.6,0c0-0.8,0-1.5,0-2.3C36.7,42.1,36.2,42.1,35.6,42.1z"/>
			<path fill="none" stroke="#000000" stroke-width="0.535" stroke-miterlimit="10" d="M21,45.8c0,0.8,0,1.5,0,2.3
				c0.6,0,1.1,0,1.6,0c0-0.8,0-1.5,0-2.3C22,45.8,21.5,45.8,21,45.8z"/>
			<path fill="none" stroke="#000000" stroke-width="0.535" stroke-miterlimit="10" d="M26.8,45.8c0,0.8,0,1.5,0,2.3
				c0.6,0,1.1,0,1.6,0c0-0.8,0-1.5,0-2.3C27.9,45.8,27.3,45.8,26.8,45.8z"/>
			<path fill="none" stroke="#000000" stroke-width="0.535" stroke-miterlimit="10" d="M23.9,45.8c0,0.8,0,1.5,0,2.3
				c0.6,0,1.1,0,1.6,0c0-0.8,0-1.5,0-2.3C24.9,45.8,24.4,45.8,23.9,45.8z"/>
			<path fill="none" stroke="#000000" stroke-width="0.535" stroke-miterlimit="10" d="M32.7,45.8c0,0.8,0,1.5,0,2.3
				c0.6,0,1.1,0,1.6,0c0-0.8,0-1.5,0-2.3C33.7,45.8,33.2,45.8,32.7,45.8z"/>
			<path fill="none" stroke="#000000" stroke-width="0.535" stroke-miterlimit="10" d="M38.6,45.8c0,0.8,0,1.5,0,2.3
				c0.6,0,1.1,0,1.6,0c0-0.8,0-1.5,0-2.3C39.6,45.8,39.1,45.8,38.6,45.8z"/>
			<path fill="none" stroke="#000000" stroke-width="0.535" stroke-miterlimit="10" d="M35.6,45.8c0,0.8,0,1.5,0,2.3
				c0.6,0,1.1,0,1.6,0c0-0.8,0-1.5,0-2.3C36.7,45.8,36.2,45.8,35.6,45.8z"/>
			<path fill="none" stroke="#000000" stroke-width="0.535" stroke-miterlimit="10" d="M29.8,45.8c0,0.8,0,1.5,0,2.3
				c0.6,0,1.1,0,1.6,0c0-0.8,0-1.5,0-2.3C30.8,45.8,30.3,45.8,29.8,45.8z"/>
			<path fill="none" stroke="#000000" stroke-width="0.535" stroke-miterlimit="10" d="M38.6,38.4c0,0.8,0,1.5,0,2.3
				c0.6,0,1.1,0,1.6,0c0-0.8,0-1.5,0-2.3C39.6,38.4,39.1,38.4,38.6,38.4z"/>
			<path fill="none" stroke="#000000" stroke-width="0.535" stroke-miterlimit="10" d="M35.6,38.4c0,0.8,0,1.5,0,2.3
				c0.6,0,1.1,0,1.6,0c0-0.8,0-1.5,0-2.3C36.7,38.4,36.2,38.4,35.6,38.4z"/>
		</g>
		<g>
			<g>
				<path fill="#FFFFFF" d="M56.2,73.2c0-3.3,0-6.6,0-10c0.9,0,1.9,0,2.9,0c0-1.8,0-6.7,0-8.4c0.9,0,1.9,0,2.8,0
					c0-8.9,0-14.6,0-23.5c0.3,0,0.6-0.1,0.9-0.1c0-1.6,0-3.2,0-4.8c0.2,0,0.4,0,0.6-0.1c0-1,0-2,0-3c0.3,0,0.6,0,0.9,0c0,1,0,2,0,3
					c1.4,0,2.7,0,4,0c0,1.6,0,3.2,0,4.8c2.6,0,5.1,0,7.6,0c0,9.6,0,19.2,0,28.8c2.9,0,5.7,0,8.6,0c0,4.4,0,8.7,0,13.1
					C75.2,73.2,65.6,73.2,56.2,73.2z"/>
			</g>
			<g>
				<g>
					<path fill="none" stroke="#000000" stroke-width="0.535" stroke-miterlimit="10" d="M56.2,73.2c0-3.3,0-6.6,0-10
						c0.9,0,1.9,0,2.9,0c0-1.8,0-6.7,0-8.4c0.9,0,1.9,0,2.8,0c0-8.9,0-14.6,0-23.5c0.3,0,0.6-0.1,0.9-0.1c0-1.6,0-3.2,0-4.8
						c0.2,0,0.4,0,0.6-0.1c0-1,0-2,0-3c0.3,0,0.6,0,0.9,0c0,1,0,2,0,3c1.4,0,2.7,0,4,0c0,1.6,0,3.2,0,4.8c2.6,0,5.1,0,7.6,0
						c0,9.6,0,19.2,0,28.8c2.9,0,5.7,0,8.6,0c0,4.4,0,8.7,0,13.1C75.2,73.2,65.6,73.2,56.2,73.2z"/>
				</g>
				<path fill="none" stroke="#000000" stroke-width="0.535" stroke-miterlimit="10" d="M67.4,64.4c0,3.1,0,5.9,0,8.8
					c2.2,0,4.1,0,6.2,0c0-3.1,0-5.9,0-8.8C71.4,64.4,69.4,64.4,67.4,64.4z"/>
				<path fill="none" stroke="#000000" stroke-width="0.535" stroke-miterlimit="10" d="M63.7,50.7c0,1.3,0,2.4,0,3.6
					c0.6,0,1.1,0,1.6,0c0-1.3,0-2.4,0-3.6C64.7,50.7,64.2,50.7,63.7,50.7z"/>
				<path fill="none" stroke="#000000" stroke-width="0.535" stroke-miterlimit="10" d="M69.5,50.7c0,1.3,0,2.4,0,3.6
					c0.6,0,1.1,0,1.6,0c0-1.3,0-2.4,0-3.6C70.6,50.7,70,50.7,69.5,50.7z"/>
				<path fill="none" stroke="#000000" stroke-width="0.535" stroke-miterlimit="10" d="M72.5,50.7c0,1.3,0,2.4,0,3.6
					c0.6,0,1.1,0,1.6,0c0-1.3,0-2.4,0-3.6C73.5,50.7,73,50.7,72.5,50.7z"/>
				<path fill="none" stroke="#000000" stroke-width="0.535" stroke-miterlimit="10" d="M66.6,50.7c0,1.3,0,2.4,0,3.6
					c0.6,0,1.1,0,1.6,0c0-1.3,0-2.4,0-3.6C67.6,50.7,67.1,50.7,66.6,50.7z"/>
				<path fill="none" stroke="#000000" stroke-width="0.535" stroke-miterlimit="10" d="M63.7,56.5c0,1.3,0,2.4,0,3.6
					c0.6,0,1.1,0,1.6,0c0-1.3,0-2.4,0-3.6C64.7,56.5,64.2,56.5,63.7,56.5z"/>
				<path fill="none" stroke="#000000" stroke-width="0.535" stroke-miterlimit="10" d="M69.5,56.5c0,1.3,0,2.4,0,3.6
					c0.6,0,1.1,0,1.6,0c0-1.3,0-2.4,0-3.6C70.6,56.5,70,56.5,69.5,56.5z"/>
				<path fill="none" stroke="#000000" stroke-width="0.535" stroke-miterlimit="10" d="M72.5,56.5c0,1.3,0,2.4,0,3.6
					c0.6,0,1.1,0,1.6,0c0-1.3,0-2.4,0-3.6C73.5,56.5,73,56.5,72.5,56.5z"/>
				<path fill="none" stroke="#000000" stroke-width="0.535" stroke-miterlimit="10" d="M66.6,56.5c0,1.3,0,2.4,0,3.6
					c0.6,0,1.1,0,1.6,0c0-1.3,0-2.4,0-3.6C67.6,56.5,67.1,56.5,66.6,56.5z"/>
				<path fill="none" stroke="#000000" stroke-width="0.535" stroke-miterlimit="10" d="M63.7,39.3c0,1.3,0,2.4,0,3.6
					c0.6,0,1.1,0,1.6,0c0-1.3,0-2.4,0-3.6C64.7,39.3,64.2,39.3,63.7,39.3z"/>
				<path fill="none" stroke="#000000" stroke-width="0.535" stroke-miterlimit="10" d="M69.5,39.3c0,1.3,0,2.4,0,3.6
					c0.6,0,1.1,0,1.6,0c0-1.3,0-2.4,0-3.6C70.6,39.3,70,39.3,69.5,39.3z"/>
				<path fill="none" stroke="#000000" stroke-width="0.535" stroke-miterlimit="10" d="M72.5,39.3c0,1.3,0,2.4,0,3.6
					c0.6,0,1.1,0,1.6,0c0-1.3,0-2.4,0-3.6C73.5,39.3,73,39.3,72.5,39.3z"/>
				<path fill="none" stroke="#000000" stroke-width="0.535" stroke-miterlimit="10" d="M66.6,39.3c0,1.3,0,2.4,0,3.6
					c0.6,0,1.1,0,1.6,0c0-1.3,0-2.4,0-3.6C67.6,39.3,67.1,39.3,66.6,39.3z"/>
				<path fill="none" stroke="#000000" stroke-width="0.535" stroke-miterlimit="10" d="M63.7,45c0,1.3,0,2.4,0,3.6
					c0.6,0,1.1,0,1.6,0c0-1.3,0-2.4,0-3.6C64.7,45,64.2,45,63.7,45z"/>
				<path fill="none" stroke="#000000" stroke-width="0.535" stroke-miterlimit="10" d="M69.5,45c0,1.3,0,2.4,0,3.6
					c0.6,0,1.1,0,1.6,0c0-1.3,0-2.4,0-3.6C70.6,45,70,45,69.5,45z"/>
				<path fill="none" stroke="#000000" stroke-width="0.535" stroke-miterlimit="10" d="M72.5,45c0,1.3,0,2.4,0,3.6
					c0.6,0,1.1,0,1.6,0c0-1.3,0-2.4,0-3.6C73.5,45,73,45,72.5,45z"/>
				<path fill="none" stroke="#000000" stroke-width="0.535" stroke-miterlimit="10" d="M66.6,45c0,1.3,0,2.4,0,3.6
					c0.6,0,1.1,0,1.6,0c0-1.3,0-2.4,0-3.6C67.6,45,67.1,45,66.6,45z"/>
				<path fill="none" stroke="#000000" stroke-width="0.535" stroke-miterlimit="10" d="M63.7,33.5c0,1.3,0,2.4,0,3.6
					c0.6,0,1.1,0,1.6,0c0-1.3,0-2.4,0-3.6C64.7,33.5,64.2,33.5,63.7,33.5z"/>
				<path fill="none" stroke="#000000" stroke-width="0.535" stroke-miterlimit="10" d="M69.5,33.5c0,1.3,0,2.4,0,3.6
					c0.6,0,1.1,0,1.6,0c0-1.3,0-2.4,0-3.6C70.6,33.5,70,33.5,69.5,33.5z"/>
				<path fill="none" stroke="#000000" stroke-width="0.535" stroke-miterlimit="10" d="M72.5,33.5c0,1.3,0,2.4,0,3.6
					c0.6,0,1.1,0,1.6,0c0-1.3,0-2.4,0-3.6C73.5,33.5,73,33.5,72.5,33.5z"/>
				<path fill="none" stroke="#000000" stroke-width="0.535" stroke-miterlimit="10" d="M66.6,33.5c0,1.3,0,2.4,0,3.6
					c0.6,0,1.1,0,1.6,0c0-1.3,0-2.4,0-3.6C67.6,33.5,67.1,33.5,66.6,33.5z"/>
				<path fill="none" stroke="#000000" stroke-width="0.535" stroke-miterlimit="10" d="M60.8,56.5c0,1.3,0,2.4,0,3.6
					c0.6,0,1.1,0,1.6,0c0-1.3,0-2.4,0-3.6C61.8,56.5,61.3,56.5,60.8,56.5z"/>
			</g>
		</g>
		<g>
			<g>
				<path fill="#FFFFFF" d="M46.2,73.2c0-0.3,0-1.5,0-1.7l0.9,0c0-0.8,0-1.6,0-1.6c0-4.6,0-6.7,0-11.3l0.6,0c0-0.4,0-3.4,0-3.8
					c5.6,0,11.2,0,16.9,0c0,0.4,0,3.4,0,3.8h0.6c0,4.6,0,6.7,0,11.3c0,0,0,0.7,0,1.6l0.9,0c0,0.3,0,1.5,0,1.7
					C58.8,73.2,53.6,73.2,46.2,73.2z"/>
			</g>
			<g>
				<path fill="none" stroke="#000000" stroke-width="0.535" stroke-miterlimit="10" d="M46.2,73.2c0-0.3,0-1.5,0-1.7l0.9,0
					c0-0.8,0-1.6,0-1.6c0-4.6,0-6.7,0-11.3l0.6,0c0-0.4,0-3.4,0-3.8c5.6,0,11.2,0,16.9,0c0,0.4,0,3.4,0,3.8h0.6c0,4.6,0,6.7,0,11.3
					c0,0,0,0.7,0,1.6l0.9,0c0,0.3,0,1.5,0,1.7C58.8,73.2,53.6,73.2,46.2,73.2z"/>
			</g>
			<g>
				
					<rect x="49.1" y="62.7" fill="#FFFFFF" stroke="#000000" stroke-width="0.535" stroke-miterlimit="10" width="1.4" height="1.8"/>
				
					<rect x="55.5" y="62.7" fill="#FFFFFF" stroke="#000000" stroke-width="0.535" stroke-miterlimit="10" width="1.4" height="1.8"/>
				
					<rect x="52.3" y="62.7" fill="#FFFFFF" stroke="#000000" stroke-width="0.535" stroke-miterlimit="10" width="1.4" height="1.8"/>
				
					<rect x="61.9" y="62.7" fill="#FFFFFF" stroke="#000000" stroke-width="0.535" stroke-miterlimit="10" width="1.4" height="1.8"/>
				
					<rect x="58.7" y="62.7" fill="#FFFFFF" stroke="#000000" stroke-width="0.535" stroke-miterlimit="10" width="1.4" height="1.8"/>
			</g>
			<g>
				
					<rect x="49.1" y="59.7" fill="#FFFFFF" stroke="#000000" stroke-width="0.535" stroke-miterlimit="10" width="1.4" height="1.8"/>
				
					<rect x="55.5" y="59.7" fill="#FFFFFF" stroke="#000000" stroke-width="0.535" stroke-miterlimit="10" width="1.4" height="1.8"/>
				
					<rect x="52.3" y="59.7" fill="#FFFFFF" stroke="#000000" stroke-width="0.535" stroke-miterlimit="10" width="1.4" height="1.8"/>
				
					<rect x="61.9" y="59.7" fill="#FFFFFF" stroke="#000000" stroke-width="0.535" stroke-miterlimit="10" width="1.4" height="1.8"/>
				
					<rect x="58.7" y="59.7" fill="#FFFFFF" stroke="#000000" stroke-width="0.535" stroke-miterlimit="10" width="1.4" height="1.8"/>
			</g>
			
				<rect x="53.5" y="56.2" fill="#FFFFFF" stroke="#000000" stroke-width="0.535" stroke-miterlimit="10" width="1.4" height="1.4"/>
			
				<rect x="49.5" y="56.2" fill="#FFFFFF" stroke="#000000" stroke-width="0.535" stroke-miterlimit="10" width="1.4" height="1.4"/>
			
				<rect x="61.6" y="56.2" fill="#FFFFFF" stroke="#000000" stroke-width="0.535" stroke-miterlimit="10" width="1.4" height="1.4"/>
			
				<rect x="57.6" y="56.2" fill="#FFFFFF" stroke="#000000" stroke-width="0.535" stroke-miterlimit="10" width="1.4" height="1.4"/>
			<g>
				
					<rect x="49.1" y="69.5" fill="#FFFFFF" stroke="#000000" stroke-width="0.535" stroke-miterlimit="10" width="1.4" height="1.8"/>
				
					<rect x="55.5" y="69.5" fill="#FFFFFF" stroke="#000000" stroke-width="0.535" stroke-miterlimit="10" width="1.4" height="1.8"/>
				
					<rect x="52.3" y="69.5" fill="#FFFFFF" stroke="#000000" stroke-width="0.535" stroke-miterlimit="10" width="1.4" height="1.8"/>
				
					<rect x="61.9" y="69.5" fill="#FFFFFF" stroke="#000000" stroke-width="0.535" stroke-miterlimit="10" width="1.4" height="1.8"/>
				
					<rect x="58.7" y="69.5" fill="#FFFFFF" stroke="#000000" stroke-width="0.535" stroke-miterlimit="10" width="1.4" height="1.8"/>
			</g>
			<g>
				
					<rect x="49.1" y="66.4" fill="#FFFFFF" stroke="#000000" stroke-width="0.535" stroke-miterlimit="10" width="1.4" height="1.8"/>
				
					<rect x="55.5" y="66.4" fill="#FFFFFF" stroke="#000000" stroke-width="0.535" stroke-miterlimit="10" width="1.4" height="1.8"/>
				
					<rect x="52.3" y="66.4" fill="#FFFFFF" stroke="#000000" stroke-width="0.535" stroke-miterlimit="10" width="1.4" height="1.8"/>
				
					<rect x="61.9" y="66.4" fill="#FFFFFF" stroke="#000000" stroke-width="0.535" stroke-miterlimit="10" width="1.4" height="1.8"/>
				
					<rect x="58.7" y="66.4" fill="#FFFFFF" stroke="#000000" stroke-width="0.535" stroke-miterlimit="10" width="1.4" height="1.8"/>
			</g>
		</g>
		<g>
			<g>
				<path fill="#FFFFFF" stroke="#000000" stroke-width="0.535" stroke-miterlimit="10" d="M81.6,75.6c0-0.2,0.1-0.5,0.1-0.7
					c0.4-2.7,0.5-5.4,0.6-8.1c0-0.1,0-0.3,0-0.4c-0.2-0.1-0.3-0.1-0.4-0.2c-0.4,0.7-1.1,0.9-1.9,0.8c-0.4,0.3-0.9,0.6-1.5,0.5
					c-0.6,0-1-0.3-1.4-0.8c-0.3,0-0.7,0.1-1-0.2c-0.3-0.2-0.5-0.5-0.5-0.9c-0.1-0.5,0.3-1,0.8-1.3c-0.1-0.6-0.1-1.2,0.2-1.7
					c0.3-0.4,0.7-0.8,1.2-0.9c1-0.2,2.1,0.3,2.5,1.6c0.1,0,0.2,0,0.4,0c-0.1-0.3-0.1-0.7-0.2-1c-0.8-0.3-1.3-1-1.1-1.9
					c0.1-0.7,0.5-1.1,1.1-1.4c0.1-0.4,0.2-0.8,0.6-1.1c0.3-0.2,0.7-0.4,1.1-0.3c0.8,0.1,1.3,0.6,1.4,1.5c0.5,0.1,1,0.3,1.2,0.9
					c0.5,0.1,0.9,0.2,1.2,0.6c0.2,0.3,0.4,0.6,0.4,0.9c0.1,0.4-0.1,0.8-0.3,1.2c-0.2,0.4-0.6,0.6-1,0.7c-0.2,0-0.5,0-0.8,0
					c-0.3,0.5-0.7,0.9-1.3,1c0,0.7,0,1.5,0,2c0.2-0.1,0.2-0.2,0.2-0.3c0-0.3,0-0.6,0.1-0.8c0.2-0.6,0.8-1,1.7-1.1
					c0.2-0.4,0.4-0.6,0.8-0.8c0.4-0.2,0.8-0.2,1.2-0.1c0.8,0.3,1.2,0.8,1.2,1.6c0.7,0.1,1.2,0.5,1.5,1.1c0.2,0.4,0.2,0.9,0,1.3
					c-0.3,0.8-1.2,1.5-2.6,1c-0.3,0.1-0.6,0.3-1,0.3c-0.6,0-1.1-0.2-1.5-0.7c-0.1-0.2-0.3-0.3-0.5-0.4c-0.2-0.1-0.4-0.3-0.6-0.5
					c-0.1,0.1-0.5,0-0.5,0.2c-0.1,3.8,0.2,5.9,0.6,7.3c0,0.2,0.2,0.6,0.1,0.7c0,0.1-0.1,0.2-0.1,0.3C83.3,76.1,82.2,76.2,81.6,75.6z
					"/>
			</g>
			<g>
				<path fill="#FFFFFF" stroke="#000000" stroke-width="0.535" stroke-miterlimit="10" d="M73.2,67c-0.3,0.3-0.5,0.5-0.9,0.5
					c-0.7,0.2-1,0-1.1-0.7c-0.2-0.1-0.5-0.2-0.6-0.4c-0.2-0.2-0.2-0.4-0.2-0.7c0.1-0.3,0.3-0.6,0.6-0.9c0-0.1,0-0.2,0-0.4
					c-0.1-0.7,0.2-1.3,0.8-1.7c0.3-0.1,0.5-0.3,0.8-0.4c0.3-0.1,0.7-0.2,1-0.3c0.2-1,0.9-1.4,1.6-1.4c0.1-0.4,0.3-0.7,0.7-0.9
					c0.4-0.2,0.7-0.2,1.1-0.1c0.4-0.3,0.9-0.4,1.3,0c0.9-0.1,1.4,0.1,1.6,1.1c0.2,0.1,0.5,0.2,0.7,0.4c0.2,0.1,0.3,0.3,0.5,0.6
					c0.3-0.1,0.7-0.3,1.1-0.2c0.4,0.1,0.7,0.3,0.8,0.7c1.3,0.4,1.4,1.7,0.7,2.5c0.5,1.1,0.1,1.7-0.7,1.7c0,0-0.1,0.1-0.1,0.1
					c-0.2,0.7-0.6,0.8-1,0.8c-0.2,0-0.3,0-0.4,0.1c-1.2,0.6-2.4,1.2-3.6,1.8c0,0.9,0,1.7,0.1,2.6c0,0.1,0,0.3,0,0.4
					c0.1,0.8,0.1,1.6,0.2,2.5c0,0.9,0.2,1.7,0.3,2.5c0,0.2,0,0.3-0.2,0.4c-0.4,0.3-1.2,0.3-1.7,0c-0.1-0.1-0.1-0.2-0.1-0.3
					c0-0.2,0.1-0.4,0.1-0.6c0.2-1.2,0.3-2.3,0.4-3.5c0-1,0.1-2,0.1-3C75.9,69,74.5,68,73.2,67z M74.2,66.9c0.9,0.7,1.8,1.4,2.8,2
					c0-0.6,0-1.1,0-1.6c-0.9,0-1.2-0.3-1.4-0.9c-0.4,0-0.7,0-1.1,0C74.4,66.5,74.3,66.7,74.2,66.9z M77.8,68.1
					c1-0.2,1.9-0.6,2.8-0.9c-0.7,0.1-0.9,0-1-0.6c-0.5,0.3-1.1,0.4-1.7,0.1C77.7,67.2,77.8,67.6,77.8,68.1z"/>
			</g>
		</g>
		<g>
			<path fill="#FFFFFF" stroke="#000000" stroke-width="0.535" stroke-miterlimit="10" d="M82.8,47.6c0.3,0,0.7,0,1,0.1
				c1,0.1,1.9,0.5,2.6,1.1c0.4,0.3,0.5,0.6,0.2,0.8c-0.1,0.1-0.4,0.1-0.6,0c-0.9-0.7-2-1-3.1-1.1c-0.9-0.1-1.7,0.2-2.5,0.5
				c-0.3,0.2-0.7,0.3-1,0.5c-0.3,0.2-0.5,0.1-0.7-0.1c-0.2-0.2-0.1-0.5,0.1-0.6C80.1,48,81.5,47.6,82.8,47.6z"/>
			<path fill="#FFFFFF" stroke="#000000" stroke-width="0.535" stroke-miterlimit="10" d="M82.6,49.8c0.9-0.1,1.8,0.2,2.6,0.7
				c0.3,0.2,0.4,0.5,0.1,0.7c-0.1,0.1-0.4,0-0.5,0c-1-0.6-2.1-0.7-3.2-0.3c-0.3,0.1-0.5,0.2-0.7,0.4c-0.2,0.1-0.4,0-0.5-0.1
				c-0.1-0.2-0.2-0.4,0-0.5c0.4-0.2,0.7-0.4,1.1-0.6C81.8,49.9,82.2,49.9,82.6,49.8z"/>
			<circle fill="#FFFFFF" stroke="#000000" stroke-width="0.535" stroke-miterlimit="10" cx="82.8" cy="52.8" r="0.7"/>
		</g>
		<g>
			<g>
				<path fill="#FFFFFF" stroke="#000000" stroke-width="0.535" stroke-miterlimit="10" d="M23.9,28.3c0-1,0.5-1.6,1.4-1.7
					c0.1,0,0.4,0,0.4,0s0.1-0.2,0.1-0.3c0.3-0.6,0.7-0.8,1.3-0.9c0.7,0,1.2,0.2,1.6,0.8c0,0.1,0.2,0.3,0.2,0.3s0.3,0,0.4,0
					c0.8,0,1.5,0.1,1.8,1.1c0,0,0,0.1,0,0.1s0.2,0.2,0.4,0.2c0.6,0.4,1,1.1,0.8,1.6c-0.2,0.7-0.8,0.9-1.5,0.9c-2.2,0-4.4,0-6.6,0
					c-0.4,0-0.9-0.3-1.1-0.6c-0.3-0.5,0-1,0.4-1.3C23.6,28.5,23.8,28.4,23.9,28.3z"/>
			</g>
			<path fill="#FFFFFF" stroke="#000000" stroke-width="0.535" stroke-miterlimit="10" d="M27.6,33c-0.4,0-0.7-0.3-0.7-0.7
				c0-0.4,0.3-0.7,0.7-0.7s0.7,0.3,0.7,0.7C28.3,32.7,28,33,27.6,33"/>
		</g>
		<g>
			<g>
				
					<line fill="none" stroke="#000000" stroke-width="0.535" stroke-linecap="round" stroke-miterlimit="10" x1="27.6" y1="33.9" x2="27.6" y2="34.2"/>
				
					<line fill="none" stroke="#000000" stroke-width="0.535" stroke-linecap="round" stroke-miterlimit="10" stroke-dasharray="0.6776,0.6776" x1="27.6" y1="34.9" x2="27.6" y2="38.6"/>
				
					<line fill="none" stroke="#000000" stroke-width="0.535" stroke-linecap="round" stroke-miterlimit="10" x1="27.6" y1="38.9" x2="27.6" y2="39.3"/>
			</g>
		</g>
		<g>
			<g>
				
					<line fill="none" stroke="#000000" stroke-width="0.535" stroke-linecap="round" stroke-miterlimit="10" x1="32.7" y1="28" x2="33" y2="28"/>
				
					<line fill="none" stroke="#000000" stroke-width="0.535" stroke-linecap="round" stroke-miterlimit="10" stroke-dasharray="0.7648,0.7648" x1="33.8" y1="28" x2="34.9" y2="28"/>
				
					<line fill="none" stroke="#000000" stroke-width="0.535" stroke-linecap="round" stroke-miterlimit="10" x1="35.3" y1="28" x2="35.6" y2="28"/>
			</g>
		</g>
		
			<line fill="none" stroke="#000000" stroke-width="0.535" stroke-linecap="round" stroke-miterlimit="10" stroke-dasharray="0.6424" x1="82.8" y1="54.4" x2="82.8" y2="56.2"/>
		
			<line fill="none" stroke="#000000" stroke-width="0.535" stroke-linecap="round" stroke-miterlimit="10" stroke-dasharray="0.6424" x1="82.8" y1="56.2" x2="77.2" y2="56.2"/>
		<g>
			<path fill="#FFFFFF" stroke="#000000" stroke-width="0.535" stroke-miterlimit="10" d="M15.5,45.4c0,1.9-1.5,3.4-3.4,3.4
				s-3.4-1.5-3.4-3.4c0-0.9,0.4-1.7,0.9-2.4c0.6-0.7,1.5-1.1,2.5-1.1c1,0,1.9,0.4,2.5,1.1C15.1,43.6,15.5,44.5,15.5,45.4z"/>
			<line fill="none" stroke="#000000" stroke-width="0.535" stroke-miterlimit="10" x1="12" y1="41.9" x2="12" y2="48.8"/>
			<line fill="none" stroke="#000000" stroke-width="0.535" stroke-miterlimit="10" x1="8.6" y1="45.4" x2="15.5" y2="45.4"/>
			<ellipse fill="none" stroke="#000000" stroke-width="0.535" stroke-miterlimit="10" cx="12" cy="45.4" rx="1.7" ry="3.4"/>
			<path fill="none" stroke="#000000" stroke-width="0.535" stroke-miterlimit="10" d="M9.5,43c0,0,0.6,0.6,2.5,0.6
				c2,0,2.5-0.6,2.5-0.6"/>
			<path fill="none" stroke="#000000" stroke-width="0.535" stroke-miterlimit="10" d="M9.5,47.7c0,0,0.6-0.6,2.5-0.6
				c2,0,2.5,0.6,2.5,0.6"/>
		</g>
		
			<line fill="none" stroke="#000000" stroke-width="0.535" stroke-linecap="round" stroke-miterlimit="10" stroke-dasharray="0.6424" x1="12" y1="50" x2="12" y2="51.8"/>
		
			<line fill="none" stroke="#000000" stroke-width="0.535" stroke-linecap="round" stroke-miterlimit="10" stroke-dasharray="0.6424" x1="12" y1="51.8" x2="17.7" y2="51.8"/>
	</g>
	<g>
		<polygon points="50,95.5 50.9,95.5 50.9,99.9 50.1,99.9 50,95.5 		"/>
		<polygon points="47.8,99.9 47.9,95.5 48.8,95.5 48.6,99.9 47.8,99.9 		"/>
		<polygon points="52.2,95.5 53,95.4 53.3,99.8 52.4,99.9 52.2,95.5 		"/>
		<polygon points="45.5,99.7 45.8,95.3 46.6,95.4 46.3,99.8 45.5,99.7 		"/>
		<polygon points="54.3,95.3 55.1,95.2 55.6,99.6 54.7,99.7 54.3,95.3 		"/>
		<polygon points="43.1,99.5 43.7,95.1 44.5,95.2 43.9,99.6 43.1,99.5 		"/>
		<polygon points="56.4,95.1 57.2,94.9 57.9,99.3 57.1,99.4 56.4,95.1 		"/>
		<polygon points="40.8,99.1 41.6,94.7 42.4,94.9 41.6,99.2 40.8,99.1 		"/>
		<polygon points="58.5,94.7 59.3,94.6 60.2,98.9 59.4,99.1 58.5,94.7 		"/>
		<polygon points="38.6,98.6 39.5,94.3 40.3,94.5 39.4,98.8 38.6,98.6 		"/>
		<polygon points="60.6,94.3 61.4,94.1 62.5,98.4 61.6,98.6 60.6,94.3 		"/>
		<polygon points="36.3,98 37.5,93.8 38.3,94 37.1,98.3 36.3,98 		"/>
		<polygon points="62.6,93.7 63.4,93.5 64.7,97.7 63.9,98 62.6,93.7 		"/>
		<polygon points="34.1,97.4 35.4,93.1 36.2,93.4 34.8,97.6 34.1,97.4 		"/>
		<polygon points="64.7,93.1 65.4,92.8 66.9,97 66.1,97.3 64.7,93.1 		"/>
		<polygon points="31.9,96.6 33.5,92.4 34.2,92.7 32.6,96.9 31.9,96.6 		"/>
		<polygon points="66.6,92.4 67.4,92.1 69.1,96.2 68.3,96.5 66.6,92.4 		"/>
		<polygon points="29.7,95.7 31.5,91.6 32.2,91.9 30.5,96 29.7,95.7 		"/>
		<polygon points="68.6,91.5 69.3,91.2 71.2,95.2 70.4,95.6 68.6,91.5 		"/>
		<polygon points="27.6,94.7 29.6,90.7 30.3,91.1 28.4,95 27.6,94.7 		"/>
		<polygon points="70.5,90.6 71.2,90.2 73.3,94.2 72.5,94.6 70.5,90.6 		"/>
		<polygon points="25.6,93.6 27.7,89.7 28.4,90.1 26.3,94 25.6,93.6 		"/>
		<polygon points="72.4,89.6 73.1,89.2 75.3,93 74.6,93.5 72.4,89.6 		"/>
		<polygon points="23.5,92.4 25.9,88.6 26.6,89.1 24.3,92.8 23.5,92.4 		"/>
		<polygon points="74.2,88.5 74.9,88.1 77.3,91.8 76.6,92.3 74.2,88.5 		"/>
		<polygon points="21.6,91.1 24.1,87.5 24.8,87.9 22.3,91.6 21.6,91.1 		"/>
		<polygon points="76,87.4 76.7,86.9 79.2,90.5 78.5,91 76,87.4 		"/>
		<polygon points="19.7,89.7 22.4,86.2 23,86.7 20.4,90.2 19.7,89.7 		"/>
		<polygon points="77.7,86.1 78.4,85.6 81.1,89.1 80.4,89.6 77.7,86.1 		"/>
		<polygon points="17.9,88.3 20.7,84.9 21.3,85.4 18.6,88.8 17.9,88.3 		"/>
		<polygon points="79.4,84.8 80,84.2 82.9,87.6 82.2,88.1 79.4,84.8 		"/>
		<polygon points="16.2,86.8 19.1,83.5 19.7,84 16.8,87.3 16.2,86.8 		"/>
		<polygon points="80.9,83.4 81.5,82.8 84.6,86 84,86.6 80.9,83.4 		"/>
		<polygon points="14.5,85.1 17.6,82 18.2,82.6 15.1,85.7 14.5,85.1 		"/>
		<polygon points="82.5,81.9 83,81.3 86.2,84.4 85.6,85 82.5,81.9 		"/>
		<polygon points="12.9,83.4 16.1,80.5 16.7,81.1 13.4,84.1 12.9,83.4 		"/>
		<polygon points="83.9,80.4 84.5,79.7 87.8,82.6 87.2,83.3 83.9,80.4 		"/>
		<polygon points="11.4,81.7 14.8,78.8 15.3,79.5 11.9,82.3 11.4,81.7 		"/>
		<polygon points="85.3,78.7 85.8,78.1 89.3,80.8 88.8,81.5 85.3,78.7 		"/>
		<polygon points="9.9,79.8 13.4,77.2 13.9,77.8 10.4,80.5 9.9,79.8 		"/>
		<polygon points="86.6,77.1 87.1,76.4 90.7,79 90.2,79.7 86.6,77.1 		"/>
		<polygon points="8.6,77.9 12.2,75.4 12.7,76.1 9,78.6 8.6,77.9 		"/>
		<polygon points="87.8,75.3 88.3,74.6 92,77.1 91.5,77.8 87.8,75.3 		"/>
		<polygon points="7.3,76 11.1,73.7 11.5,74.4 7.7,76.7 7.3,76 		"/>
		<polygon points="89,73.5 89.4,72.8 93.2,75.1 92.8,75.8 89,73.5 		"/>
		<polygon points="6.1,74 10,71.8 10.4,72.5 6.5,74.7 6.1,74 		"/>
		<polygon points="90,71.7 90.4,71 94.3,73 93.9,73.8 90,71.7 		"/>
		<polygon points="5.1,71.9 9,69.9 9.4,70.7 5.4,72.7 5.1,71.9 		"/>
		<polygon points="91,69.8 91.3,69.1 95.3,71 95,71.7 91,69.8 		"/>
		<polygon points="4.1,69.8 8.1,68 8.5,68.8 4.4,70.6 4.1,69.8 		"/>
		<polygon points="91.9,67.9 92.2,67.1 96.3,68.8 96,69.6 91.9,67.9 		"/>
		<polygon points="3.2,67.6 7.3,66 7.6,66.8 3.5,68.4 3.2,67.6 		"/>
		<polygon points="92.7,65.9 92.9,65.1 97.1,66.6 96.8,67.4 92.7,65.9 		"/>
		<polygon points="2.4,65.4 6.6,64 6.9,64.8 2.7,66.2 2.4,65.4 		"/>
		<polygon points="93.4,63.9 93.6,63.1 97.8,64.4 97.6,65.2 93.4,63.9 		"/>
		<polygon points="1.8,63.2 6,62 6.3,62.8 2,64 1.8,63.2 		"/>
		<polygon points="94,61.9 94.2,61.1 98.4,62.2 98.2,63 94,61.9 		"/>
		<polygon points="1.2,60.9 5.5,59.9 5.7,60.8 1.4,61.7 1.2,60.9 		"/>
		<polygon points="94.5,59.8 94.6,59 99,59.9 98.8,60.7 94.5,59.8 		"/>
		<polygon points="0.8,58.7 5.1,57.8 5.3,58.7 0.9,59.5 0.8,58.7 		"/>
		<polygon points="94.9,57.7 95,56.9 99.4,57.6 99.2,58.4 94.9,57.7 		"/>
		<polygon points="0.4,56.4 4.8,55.8 4.9,56.6 0.5,57.2 0.4,56.4 		"/>
		<polygon points="95.2,55.7 95.3,54.9 99.7,55.4 99.6,56.2 95.2,55.7 		"/>
		<polygon points="0.2,54 4.6,53.7 4.6,54.5 0.2,54.9 0.2,54 		"/>
		<polygon points="95.4,53.7 95.4,52.9 99.9,53.2 99.8,54 95.4,53.7 		"/>
		<polygon points="0,51.7 4.4,51.5 4.5,52.3 0.1,52.6 0,51.7 		"/>
		<polygon points="95.5,51.7 95.5,50.9 99.9,51.1 99.9,51.9 95.5,51.7 		"/>
		<polygon points="0,50.2 0,49.4 4.4,49.4 4.4,50.2 0,50.2 		"/>
		<polygon points="95.5,48.9 99.9,48.8 100,49.6 95.5,49.7 95.5,48.9 		"/>
		<polygon points="0,47.9 0.1,47 4.5,47.3 4.5,48.1 0,47.9 		"/>
		<polygon points="95.4,46.8 99.8,46.5 99.9,47.3 95.5,47.6 95.4,46.8 		"/>
		<polygon points="0.2,45.6 0.3,44.7 4.7,45.1 4.6,46 0.2,45.6 		"/>
		<polygon points="95.2,44.6 99.6,44.2 99.7,45 95.3,45.4 95.2,44.6 		"/>
		<polygon points="0.4,43.2 0.6,42.4 5,43.1 4.8,43.9 0.4,43.2 		"/>
		<polygon points="94.9,42.5 99.3,41.9 99.4,42.7 95.1,43.3 94.9,42.5 		"/>
		<polygon points="0.8,40.9 1,40.1 5.3,41 5.2,41.8 0.8,40.9 		"/>
		<polygon points="94.5,40.4 98.9,39.6 99,40.4 94.7,41.3 94.5,40.4 		"/>
		<polygon points="1.3,38.7 1.5,37.9 5.8,38.9 5.6,39.7 1.3,38.7 		"/>
		<polygon points="94,38.4 98.3,37.3 98.5,38.1 94.3,39.2 94,38.4 		"/>
		<polygon points="1.9,36.4 2.1,35.6 6.3,36.8 6.1,37.6 1.9,36.4 		"/>
		<polygon points="93.5,36.3 97.7,35 97.9,35.8 93.7,37.1 93.5,36.3 		"/>
		<polygon points="2.5,34.2 2.8,33.4 7,34.8 6.7,35.6 2.5,34.2 		"/>
		<polygon points="92.8,34.3 96.9,32.9 97.2,33.6 93,35.1 92.8,34.3 		"/>
		<polygon points="3.3,32 3.6,31.2 7.8,32.8 7.4,33.6 3.3,32 		"/>
		<polygon points="92,32.3 96.1,30.7 96.4,31.5 92.3,33.1 92,32.3 		"/>
		<polygon points="4.2,29.8 4.6,29.1 8.6,30.9 8.3,31.7 4.2,29.8 		"/>
		<polygon points="91.1,30.4 95.1,28.6 95.5,29.3 91.5,31.2 91.1,30.4 		"/>
		<polygon points="5.2,27.7 5.6,27 9.5,29 9.2,29.7 5.2,27.7 		"/>
		<polygon points="90.2,28.5 94.1,26.5 94.5,27.2 90.6,29.3 90.2,28.5 		"/>
		<polygon points="6.3,25.7 6.7,24.9 10.6,27.1 10.1,27.8 6.3,25.7 		"/>
		<polygon points="89.1,26.7 92.9,24.4 93.4,25.2 89.5,27.4 89.1,26.7 		"/>
		<polygon points="7.5,23.6 7.9,23 11.7,25.3 11.2,26 7.5,23.6 		"/>
		<polygon points="88,24.9 91.7,22.5 92.2,23.2 88.4,25.6 88,24.9 		"/>
		<polygon points="8.8,21.7 9.2,21 12.9,23.6 12.4,24.2 8.8,21.7 		"/>
		<polygon points="86.8,23.1 90.4,20.6 90.9,21.2 87.3,23.8 86.8,23.1 		"/>
		<polygon points="10.1,19.8 10.6,19.1 14.1,21.9 13.6,22.5 10.1,19.8 		"/>
		<polygon points="85.5,21.4 89,18.7 89.5,19.3 86,22.1 85.5,21.4 		"/>
		<polygon points="11.6,18 12.1,17.3 15.5,20.2 14.9,20.9 11.6,18 		"/>
		<polygon points="84.1,19.8 87.5,16.9 88,17.5 84.7,20.5 84.1,19.8 		"/>
		<polygon points="13.1,16.2 13.7,15.6 16.9,18.7 16.3,19.3 13.1,16.2 		"/>
		<polygon points="82.7,18.3 85.9,15.2 86.5,15.8 83.3,18.9 82.7,18.3 		"/>
		<polygon points="14.7,14.6 15.3,14 18.4,17.1 17.8,17.7 14.7,14.6 		"/>
		<polygon points="81.2,16.8 84.2,13.6 84.8,14.1 81.8,17.3 81.2,16.8 		"/>
		<polygon points="16.4,13 17,12.4 20,15.7 19.4,16.2 16.4,13 		"/>
		<polygon points="79.6,15.4 82.5,12 83.1,12.6 80.2,15.9 79.6,15.4 		"/>
		<polygon points="18.2,11.4 18.8,10.9 21.6,14.3 21,14.9 18.2,11.4 		"/>
		<polygon points="77.9,14 80.7,10.5 81.4,11.1 78.6,14.5 77.9,14 		"/>
		<polygon points="20,10 20.7,9.5 23.3,13.1 22.6,13.5 20,10 		"/>
		<polygon points="76.2,12.7 78.8,9.2 79.5,9.6 76.9,13.2 76.2,12.7 		"/>
		<polygon points="21.9,8.6 22.6,8.2 25,11.9 24.3,12.3 21.9,8.6 		"/>
		<polygon points="74.5,11.6 76.9,7.9 77.6,8.3 75.2,12 74.5,11.6 		"/>
		<polygon points="23.9,7.4 24.6,6.9 26.8,10.7 26.1,11.2 23.9,7.4 		"/>
		<polygon points="72.7,10.5 74.9,6.6 75.6,7.1 73.4,10.9 72.7,10.5 		"/>
		<polygon points="25.9,6.2 26.6,5.8 28.7,9.7 28,10.1 25.9,6.2 		"/>
		<polygon points="70.8,9.4 72.9,5.5 73.6,5.9 71.5,9.8 70.8,9.4 		"/>
		<polygon points="27.9,5.1 28.7,4.8 30.6,8.7 29.8,9.1 27.9,5.1 		"/>
		<polygon points="68.9,8.5 70.8,4.5 71.5,4.9 69.6,8.9 68.9,8.5 		"/>
		<polygon points="30,4.1 30.8,3.8 32.5,7.9 31.8,8.2 30,4.1 		"/>
		<polygon points="66.9,7.7 68.6,3.6 69.4,3.9 67.7,8 66.9,7.7 		"/>
		<polygon points="32.2,3.3 33,3 34.5,7.1 33.7,7.4 32.2,3.3 		"/>
		<polygon points="65,6.9 66.4,2.8 67.2,3 65.7,7.2 65,6.9 		"/>
		<polygon points="34.4,2.5 35.2,2.2 36.5,6.4 35.7,6.7 34.4,2.5 		"/>
		<polygon points="62.9,6.3 64.2,2.1 65,2.3 63.7,6.5 62.9,6.3 		"/>
		<polygon points="36.6,1.8 37.4,1.6 38.6,5.9 37.8,6.1 36.6,1.8 		"/>
		<polygon points="60.9,5.7 62,1.5 62.8,1.7 61.7,5.9 60.9,5.7 		"/>
		<polygon points="38.9,1.2 39.7,1.1 40.6,5.4 39.8,5.6 38.9,1.2 		"/>
		<polygon points="58.8,5.3 59.7,0.9 60.5,1.1 59.6,5.4 58.8,5.3 		"/>
		<polygon points="41.2,0.8 42,0.6 42.7,5 41.9,5.1 41.2,0.8 		"/>
		<polygon points="56.7,4.9 57.4,0.6 58.2,0.7 57.5,5 56.7,4.9 		"/>
		<polygon points="43.5,0.4 44.3,0.3 44.8,4.7 44,4.8 43.5,0.4 		"/>
		<polygon points="54.6,4.7 55.1,0.3 55.9,0.4 55.4,4.7 54.6,4.7 		"/>
		<polygon points="45.8,0.2 46.6,0.1 46.9,4.5 46.1,4.6 45.8,0.2 		"/>
		<polygon points="52.5,4.5 52.8,0.1 53.6,0.1 53.3,4.5 52.5,4.5 		"/>
		<polygon points="48.1,0 49,0 49.1,4.4 48.2,4.4 48.1,0 		"/>
		<polygon points="50.4,4.4 50.4,0 51.3,0 51.2,4.4 50.4,4.4 		"/>
	</g>
</g>
</svg>
